<?xml version="1.0" encoding="UTF-8" standalone="no"?>
<!-- Created with Inkscape (http://www.inkscape.org/) -->
<svg
   xmlns:svg="http://www.w3.org/2000/svg"
   xmlns="http://www.w3.org/2000/svg"
   version="1.0"
   width="602.09998"
   height="156.59164"
   id="svg6128">
  <defs
     id="defs6130" />
  <g
     transform="translate(-83.521879,-572.93575)"
     id="layer1">
    <g
       transform="matrix(7.2153733,0,0,7.2153733,-1000.3347,-1671.9604)"
       id="g6106">
      <g
         transform="translate(2.427591,1.3859277)"
         id="g6159">
        <path
           d="M 150.31085,325.70588 L 228.5096,325.70588 L 228.5096,326.3808 L 150.31085,326.3808 L 150.31085,325.70588 z"
           id="path2900"
           style="fill:#ed1c24;fill-opacity:1;fill-rule:nonzero;stroke:none" />
        <path
           d="M 150.31085,325.70588 L 228.5096,325.70588 L 228.5096,326.3808 L 150.31085,326.3808 L 150.31085,325.70588 z"
           id="path2902"
           style="fill:none;stroke:#ed1c24;stroke-width:0.09595072;stroke-linecap:butt;stroke-linejoin:miter;stroke-miterlimit:3.86400008;stroke-dasharray:none;stroke-opacity:1" />
        <path
           d="M 150.31085,327.1833 L 228.50851,327.1833 L 228.50851,330.00949 L 150.31085,330.00949 L 150.31085,327.1833 z"
           id="path2904"
           style="fill:#ed1c24;fill-opacity:1;fill-rule:nonzero;stroke:none" />
        <path
           d="M 150.31085,327.1833 L 228.5096,327.1833 L 228.5096,330.00949 L 150.31085,330.00949 L 150.31085,327.1833 z"
           id="path2906"
           style="fill:none;stroke:#ed1c24;stroke-width:0.09595072;stroke-linecap:butt;stroke-linejoin:miter;stroke-miterlimit:3.86400008;stroke-dasharray:none;stroke-opacity:1" />
        <path
           d="M 207.69919,312.12231 L 207.69919,314.65955 L 208.91929,314.65955 L 208.91929,315.20473 L 207.76352,315.20473 L 207.73081,320.18217 C 207.73627,320.19307 207.66866,320.83529 208.14842,320.82438 C 208.57911,320.83529 208.64562,320.68809 208.88658,319.76457 L 209.36961,319.76457 C 209.3816,319.76457 209.32818,321.89293 207.44187,321.75663"
           id="path2908"
           style="fill:#231f20;fill-opacity:1;fill-rule:nonzero;stroke:none" />
        <path
           d="M 165.34022,320.4722 L 165.34022,320.92143 C 165.34567,320.92906 165.26499,321.51785 163.99146,321.62797 C 162.74955,321.6923 162.62852,320.59541 162.6427,320.82438 C 162.62852,321.02283 162.03974,321.61162 161.0377,321.62797 C 160.00623,321.61162 158.89517,320.9694 158.88536,319.47562 C 158.89517,317.95895 160.36823,317.32982 161.67992,317.1957 C 161.67883,317.20988 162.50859,317.18262 162.51404,316.61782 C 162.50859,316.01813 162.50859,315.44351 162.51404,315.42934 C 162.4955,314.54615 161.49129,314.77404 161.48693,314.78712 C 160.72914,314.85472 161.18381,315.39008 161.19799,315.39772 C 161.86637,317.00816 160.30063,316.91548 160.29845,316.90676 C 160.30063,316.91548 159.28442,316.87514 159.27134,315.81532 C 159.28442,314.73369 160.35406,314.13182 161.93615,314.14491 C 163.53897,314.13182 164.48866,314.73369 164.47339,316.26454 C 164.48866,317.78449 164.48866,320.17999 164.47339,320.18217 C 164.48866,320.17999 164.59551,320.67501 165.34022,320.4722 M 162.48242,317.74197 C 162.4955,317.73106 160.99627,317.59804 160.97337,319.34805 C 160.9701,319.35023 160.99627,320.56815 161.77587,320.59977 C 162.54893,320.6085 162.4955,319.57812 162.48242,319.86161 C 162.4955,320.15273 162.4955,317.73106 162.48242,317.74197"
           id="path2910"
           style="fill:#231f20;fill-opacity:1;fill-rule:evenodd;stroke:none" />
        <path
           d="M 180.56259,318.09524 C 180.5724,318.10614 180.94748,314.30519 177.80073,314.30628 C 174.618,314.30628 174.55149,318.03854 174.55694,318.03091 C 174.55149,318.03854 174.41738,321.71847 177.64045,321.6923 C 177.65572,321.67813 179.63579,321.87984 180.49826,319.444 L 179.92037,319.28372 C 179.93018,319.28372 179.42208,320.76878 178.28267,320.76114 C 177.12035,320.76878 176.77253,319.18995 176.80524,318.09524 L 180.56259,318.09524 z M 177.7364,315.04444 C 176.70602,315.04117 176.85322,317.46393 176.83686,317.45303 L 178.28267,317.45303 C 178.29793,317.46393 178.5389,317.4901 178.60432,317.06813 C 178.63267,316.6876 178.63267,315.04117 177.7364,315.04444"
           id="path2912"
           style="fill:#231f20;fill-opacity:1;fill-rule:evenodd;stroke:none" />
        <path
           d="M 226.48591,322.23748 L 225.32905,322.23748 C 225.33232,322.24075 224.22125,322.14698 224.20599,322.88078 C 224.22125,323.61895 225.29198,323.76615 225.87531,323.77923 C 226.42921,323.76615 227.53919,323.56552 227.57735,322.97673 C 227.66021,322.14698 226.12173,322.24075 226.48591,322.23748 M 226.61457,320.27921 L 225.32905,320.27921 C 225.33232,320.28684 224.55599,320.3141 224.55926,319.79728 C 224.55599,319.25646 225.33232,319.29681 225.32905,319.28372 L 226.09992,319.28372 C 227.66021,319.16269 228.22174,318.0658 228.21956,316.90676 C 228.20866,315.61688 227.6733,315.24289 227.67439,315.23744 L 228.63826,315.23744 L 228.63826,314.62684 L 226.99946,314.59522 C 226.99074,314.60067 226.44229,314.19833 225.32905,314.24195 C 225.31814,314.25285 222.589,314.21251 222.5999,316.87514 C 222.589,316.86206 222.49523,318.3602 223.98138,319.21939 C 223.99337,319.20304 223.04368,319.76457 223.11346,320.59977 C 223.21813,321.41099 223.65863,321.66504 223.82,321.78825 C 223.99337,321.93327 222.78962,321.8395 222.69695,322.97673 C 222.68277,322.96365 222.40146,324.62207 225.77936,324.42145 C 225.78699,324.40836 228.74402,324.46179 228.79854,322.01287 C 228.81053,322.02704 228.99807,320.29993 226.61457,320.27921 M 224.55926,316.13588 C 224.56907,316.13915 224.55599,315.015 225.39447,315.01173 C 225.39883,315.015 226.20133,315.05535 226.19697,316.13588 L 226.19697,317.61331 C 226.20133,317.62421 226.20133,318.5739 225.39447,318.57718 C 224.60942,318.5739 224.58216,317.61113 224.59088,317.61331 L 224.55926,316.13588 z"
           id="path2914"
           style="fill:#231f20;fill-opacity:1;fill-rule:evenodd;stroke:none" />
        <path
           d="M 155.86727,317.1957 C 156.11369,317.50972 156.30014,317.99275 156.28487,318.70584 C 156.30014,320.79604 154.41274,320.68809 154.80745,320.6641 L 154.2939,320.6641 C 154.27972,320.67501 153.67676,320.70227 153.6833,320.11893 L 153.6833,317.1957 L 151.59528,317.1957 C 151.58983,318.71238 151.58983,320.01971 151.59528,320.02189 C 151.54949,321.02283 150.22471,320.95632 150.2149,320.95305 L 150.2149,321.46769 L 155.64266,321.46769 C 157.00887,321.46442 158.48084,320.64884 158.46775,318.67313 C 158.48084,318.02982 158.32056,317.54571 158.08286,317.1957 L 155.86727,317.1957 z"
           id="path2916"
           style="fill:#231f20;fill-opacity:1;fill-rule:evenodd;stroke:none" />
        <path
           d="M 151.59528,317.1957 C 151.58656,315.39008 151.58329,313.29007 151.56366,312.63586 C 151.56257,311.66981 150.2378,311.80393 150.24761,311.80066 L 150.24761,311.2871 L 155.514,311.2871 C 155.52381,311.29473 158.23987,311.14754 158.21152,313.79163 C 158.2137,316.19258 155.95232,316.19258 156.44515,316.20021 C 156.79516,316.19258 157.59983,316.42483 158.08286,317.1957 L 155.86727,317.1957 C 155.40605,316.56548 154.7344,316.51423 154.74312,316.52187 L 154.13252,316.52187 C 154.13252,316.51423 153.70402,316.48698 153.6833,316.90676 L 153.6833,317.1957 L 151.59528,317.1957 z M 154.55013,315.75099 C 154.55994,315.76407 156.12568,315.93853 156.18783,313.88867 C 156.17911,312.03072 154.52069,311.97729 154.51851,311.99365 L 154.26119,311.99365 C 154.26555,311.97729 153.73019,311.97729 153.6833,312.47558 L 153.6833,315.20473 C 153.67676,315.80442 154.23938,315.76407 154.22957,315.75099 L 154.55013,315.75099 z"
           id="path2918"
           style="fill:#231f20;fill-opacity:1;fill-rule:evenodd;stroke:none" />
        <path
           d="M 165.72621,318.96207 L 166.40004,318.96207 C 166.38914,318.94898 166.68353,321.10351 168.45535,321.11442 C 168.46298,321.10351 169.50645,321.08934 169.61221,320.18217 C 169.6809,319.47126 168.86423,319.02967 168.00613,318.89774 C 167.16547,318.77453 165.58664,317.85209 165.59754,316.52187 C 165.58664,315.17529 166.60285,314.18525 168.16641,314.24195 C 168.18167,314.25285 169.43993,314.19833 169.90115,314.78712 L 170.12576,314.40223 L 170.67203,314.40223 L 170.67203,316.81081 L 170.12576,316.81081 C 170.13558,316.82171 170.12249,314.84164 168.10208,314.81983 C 168.11516,314.82746 167.01827,314.93432 167.04226,315.71828 C 167.04444,316.50006 168.54367,316.79445 169.1619,316.93947 C 169.57296,317.04851 171.1387,317.73106 171.05692,319.28372 C 170.97842,320.76878 170.02872,321.70539 168.45535,321.6923 C 166.91142,321.70539 166.58976,320.94214 166.59303,321.11442 L 166.36842,321.49931 L 165.72621,321.53093 L 165.72621,318.96207 z"
           id="path2920"
           style="fill:#231f20;fill-opacity:1;fill-rule:nonzero;stroke:none" />
        <path
           d="M 173.69012,311.12682 L 173.69012,320.27921 C 173.68139,320.28684 173.65522,321.05009 174.6856,321.05009 L 174.6856,321.49931 L 170.80069,321.49931 L 170.80069,321.05009 C 170.79088,321.05009 171.79509,321.12968 171.79509,320.31083 C 171.79509,319.51051 171.79509,312.47231 171.79509,312.47558 C 171.79509,312.47231 171.83434,311.96421 170.80069,311.96094 L 170.80069,311.31981 L 173.69012,311.12682 z"
           id="path2922"
           style="fill:#231f20;fill-opacity:1;fill-rule:nonzero;stroke:none" />
        <path
           d="M 183.38877,316.32888 L 183.38877,320.40787 C 183.38223,320.40787 183.31572,321.18311 184.44859,321.14604 L 184.44859,321.62797 L 180.30635,321.62797 L 180.30635,321.14604 C 180.29218,321.14386 181.33564,321.15694 181.36508,320.40787 L 181.36508,315.84694 C 181.37599,315.84476 181.38907,315.05535 180.43392,315.07715 L 180.43392,314.49818 L 183.35715,314.40223 L 183.4531,315.20473 C 183.46291,315.21563 184.10513,314.33245 185.12243,314.24195 C 186.2324,314.14491 186.47337,315.13494 186.43957,315.46205 C 186.41994,315.80442 186.31309,316.52732 185.34813,316.52187 C 185.36339,316.52732 184.66775,316.66034 184.28831,315.75099 C 184.29267,315.76407 184.07896,315.51002 183.83799,315.65395 C 183.82491,315.65722 183.49017,315.69756 183.38877,316.32888"
           id="path2924"
           style="fill:#231f20;fill-opacity:1;fill-rule:nonzero;stroke:none" />
        <path
           d="M 194.94974,311.31981 L 194.94974,311.99365 L 190.19691,320.95305 L 191.57838,320.95305 C 191.57184,320.94323 194.3555,321.12968 194.34024,317.90225 L 194.94974,317.90225 L 194.94974,321.62797 L 187.91699,321.62797 L 187.91699,320.95305 L 192.60549,311.99365 L 191.28944,311.99365 C 191.3047,311.97729 188.72167,311.81701 188.71949,314.78712 L 188.07727,314.78712 L 188.07727,311.31981 L 194.94974,311.31981 z"
           id="path2926"
           style="fill:#231f20;fill-opacity:1;fill-rule:nonzero;stroke:none" />
        <path
           d="M 201.40461,318.12795 C 201.40679,318.11923 201.78187,314.31936 198.61113,314.30519 C 195.45239,314.31936 195.38479,318.05272 195.40006,318.06253 C 195.38479,318.05272 195.25177,321.73265 198.48247,321.6923 C 198.47593,321.70539 200.47018,321.90601 201.34028,319.47562 L 200.76239,319.28372 C 200.76457,319.29681 200.25647,320.78186 199.09307,320.79276 C 197.94057,320.78186 197.60692,319.20304 197.64727,318.12795 L 201.40461,318.12795 z M 198.57842,315.04444 C 197.53932,315.05535 197.68652,317.47701 197.67998,317.48465 L 199.12469,317.48465 C 199.13123,317.47701 199.37329,317.50427 199.41363,317.06813 C 199.46597,316.71486 199.46597,315.05535 198.57842,315.04444"
           id="path2928"
           style="fill:#231f20;fill-opacity:1;fill-rule:evenodd;stroke:none" />
        <path
           d="M 201.95087,312.5072 C 201.94215,311.80175 202.50259,311.24131 203.20368,311.25548 C 203.88406,311.24131 204.4445,311.80175 204.45541,312.5072 C 204.4445,313.18322 203.88406,313.74366 203.20368,313.76001 C 202.50259,313.74366 201.94215,313.18322 201.95087,312.5072"
           id="path2930"
           style="fill:#231f20;fill-opacity:1;fill-rule:nonzero;stroke:none" />
        <path
           d="M 201.18,314.65955 L 204.23079,314.40223 L 204.23079,320.43949 C 204.2297,320.43404 204.19045,321.15694 205.19357,321.14604 L 205.19357,321.62797 L 201.30866,321.62797 L 201.30866,321.14604 C 201.29993,321.14386 202.27689,321.23654 202.23982,320.4722 L 202.23982,315.84694 C 202.24963,315.85784 202.24963,315.21563 201.18,315.23744 L 201.18,314.65955 z"
           id="path2932"
           style="fill:#231f20;fill-opacity:1;fill-rule:nonzero;stroke:none" />
        <path
           d="M 207.44187,321.75663 C 205.52831,321.79916 205.72893,319.60428 205.73984,319.73295 C 205.72893,319.87251 205.72893,315.17529 205.73984,315.17311 L 204.84139,315.17311 L 204.84139,314.62684 C 204.83267,314.63992 206.90651,314.47964 207.18564,312.12231 L 207.69919,312.12231"
           id="path2934"
           style="fill:#231f20;fill-opacity:1;fill-rule:nonzero;stroke:none" />
        <path
           d="M 211.64953,314.65955 L 211.64953,319.60428 C 211.64299,319.60428 211.61682,320.63466 212.32336,320.63248 C 212.90125,320.6085 213.0081,320.17999 213.06262,319.60428 L 213.06262,315.84694 C 213.0757,315.84476 213.0757,315.37591 212.13037,315.14039 L 212.13037,314.65955 L 215.08522,314.40223 L 215.08522,320.56815 C 215.08195,320.55507 215.06886,321.17003 215.95205,321.11442 L 215.95205,321.59526 L 213.25452,321.59526 L 213.25452,321.24199 L 213.19019,321.24199 C 213.18147,321.23763 212.5796,321.70539 211.45654,321.72392 C 210.61261,321.73265 209.64874,321.14386 209.65855,319.8289 L 209.65855,315.9756 C 209.64874,315.17529 208.92693,315.18946 208.91929,315.20473 L 208.91929,314.65955 L 211.64953,314.65955 z"
           id="path2936"
           style="fill:#231f20;fill-opacity:1;fill-rule:nonzero;stroke:none" />
        <path
           d="M 215.95205,321.11442 L 215.95205,321.59526 L 219.38883,321.59526 L 219.38883,321.08171 C 219.37683,321.07626 218.56125,321.08934 218.55362,320.40787 L 218.55362,316.32888 C 218.56125,316.33978 218.65502,315.26906 219.54911,315.39772 C 220.15316,315.49694 220.00596,316.12607 220.03104,316.23292 C 220.04631,316.28635 220.03322,321.61162 220.03104,321.62797 L 222.69695,321.62797 L 222.69695,321.14604 C 222.70894,321.12968 221.90644,321.14386 221.89336,320.43949 L 221.89336,316.13588 C 221.89227,316.13915 222.0133,314.38587 220.03104,314.40223 C 220.03322,314.38587 219.15004,314.31936 218.42496,314.98011 L 218.42496,314.40223 L 215.63148,314.65955 L 215.63148,315.17311 C 215.63039,315.17529 216.58118,315.14912 216.6913,315.75099 L 216.6913,320.53544 C 216.70112,320.54089 216.79489,321.14386 215.95205,321.11442"
           id="path2938"
           style="fill:#231f20;fill-opacity:1;fill-rule:nonzero;stroke:none" />
      </g>
    </g>
  </g>
</svg>
