<?xml version="1.0" encoding="UTF-8" standalone="no"?>
<!-- Created with Inkscape (http://www.inkscape.org/) -->
<svg
   xmlns:dc="http://purl.org/dc/elements/1.1/"
   xmlns:cc="http://creativecommons.org/ns#"
   xmlns:rdf="http://www.w3.org/1999/02/22-rdf-syntax-ns#"
   xmlns:svg="http://www.w3.org/2000/svg"
   xmlns="http://www.w3.org/2000/svg"
   xmlns:sodipodi="http://sodipodi.sourceforge.net/DTD/sodipodi-0.dtd"
   xmlns:inkscape="http://www.inkscape.org/namespaces/inkscape"
   width="500"
   height="90.519997"
   id="svg2"
   sodipodi:version="0.32"
   inkscape:version="0.46"
   version="1.0"
   sodipodi:docname="Logo Le Temps (Schweiz).svg"
   inkscape:output_extension="org.inkscape.output.svg.inkscape">
  <defs
     id="defs4">
    <inkscape:perspective
       sodipodi:type="inkscape:persp3d"
       inkscape:vp_x="0 : 526.18109 : 1"
       inkscape:vp_y="0 : 1000 : 0"
       inkscape:vp_z="744.09448 : 526.18109 : 1"
       inkscape:persp3d-origin="372.04724 : 350.78739 : 1"
       id="perspective10" />
    <clipPath
       id="clipPath2610"
       clipPathUnits="userSpaceOnUse">
      <path
         id="path2612"
         d="M 0,276.202 L 595.276,276.202 L 595.276,701.399 L 0,701.399 L 0,276.202 z" />
    </clipPath>
    <clipPath
       id="clipPath2468"
       clipPathUnits="userSpaceOnUse">
      <path
         id="path2470"
         d="M 439.37,28.397 L 566.692,28.397 L 566.692,56.935 L 439.37,56.935 L 439.37,28.397 z" />
    </clipPath>
    <clipPath
       id="clipPath2460"
       clipPathUnits="userSpaceOnUse">
      <path
         id="path2462"
         d="M 439.37,28.347 L 566.929,28.347 L 566.929,56.935 L 439.37,56.935 L 439.37,28.347 z" />
    </clipPath>
    <inkscape:perspective
       id="perspective2450"
       inkscape:persp3d-origin="372.04724 : 350.78739 : 1"
       inkscape:vp_z="744.09448 : 526.18109 : 1"
       inkscape:vp_y="0 : 1000 : 0"
       inkscape:vp_x="0 : 526.18109 : 1"
       sodipodi:type="inkscape:persp3d" />
  </defs>
  <sodipodi:namedview
     id="base"
     pagecolor="#ffffff"
     bordercolor="#666666"
     borderopacity="1.0"
     inkscape:pageopacity="0.0"
     inkscape:pageshadow="2"
     inkscape:zoom="1.4"
     inkscape:cx="210.68166"
     inkscape:cy="103.68578"
     inkscape:document-units="px"
     inkscape:current-layer="layer1"
     showgrid="false"
     inkscape:window-width="1280"
     inkscape:window-height="750"
     inkscape:window-x="-8"
     inkscape:window-y="-8" />
  <metadata
     id="metadata7">
    <rdf:RDF>
      <cc:Work
         rdf:about="">
        <dc:format>image/svg+xml</dc:format>
        <dc:type
           rdf:resource="http://purl.org/dc/dcmitype/StillImage" />
      </cc:Work>
    </rdf:RDF>
  </metadata>
  <g
     inkscape:label="Calque 1"
     inkscape:groupmode="layer"
     id="layer1"
     transform="translate(-246.13842,-198.81525)">
    <g
       id="g3201"
       transform="matrix(3.0159895,0,0,3.0159895,-486.21244,-532.98048)">
      <path
         d="M 246.13841,268.88137 L 246.13841,268.51762 C 249.26091,268.10137 249.83341,268.00637 249.83341,265.09387 L 249.83341,250.16512 C 249.83341,247.21887 249.29216,247.07012 246.13841,246.76762 L 246.13841,246.40887 L 257.91341,246.40887 L 257.91341,246.76762 C 254.30841,246.88762 253.91591,247.30762 253.91591,250.16512 L 253.91591,265.12762 C 253.91591,267.53012 254.42716,268.33887 256.86216,268.33887 C 260.70341,268.33887 264.49091,264.97387 264.82216,259.50387 L 265.21466,259.50387 L 265.21466,268.88137"
         style="fill:#920a25;fill-opacity:1;fill-rule:nonzero;stroke:none"
         id="path2474" />
      <path
         d="M 266.08378,268.88137 L 266.08378,268.51762 C 269.20878,268.10137 269.77878,268.00637 269.77878,265.09387 L 269.77878,250.16512 C 269.77878,247.21887 269.23753,247.07012 266.08378,246.76762 L 266.08378,246.40887 L 285.36878,246.40887 L 285.36878,254.43012 L 284.97628,254.43012 C 284.07753,249.11012 281.82628,246.97887 277.40878,246.97887 C 274.49503,246.97887 273.86253,247.43012 273.86253,250.40762 L 273.86253,256.74512 L 275.09753,256.74512 C 277.80003,256.74512 279.72253,255.23762 280.05253,250.91387 L 280.41378,250.91387 L 280.41378,263.14137 L 280.05253,263.14137 C 279.66128,258.39512 277.40878,257.22262 275.09753,257.22262 L 273.86253,257.22262 L 273.86253,265.12762 C 273.86253,267.22762 274.25253,268.33887 277.19753,268.33887 C 281.25253,268.33887 284.56003,265.66512 285.36878,259.90012 L 285.75878,259.90012 L 285.75878,268.88137"
         style="fill:#920a25;fill-opacity:1;fill-rule:nonzero;stroke:none"
         id="path2478" />
      <path
         d="M 314.86716,255.66212 C 314.17716,250.04462 312.10466,246.95087 308.82966,246.95087 L 307.74966,246.95087 L 307.74966,265.09462 C 307.74966,268.21962 308.52966,268.19087 311.89216,268.51837 L 311.89216,268.88087 L 299.51716,268.88087 L 299.51716,268.51837 C 302.88341,268.19087 303.66216,268.21962 303.66216,265.09462 L 303.66216,246.95087 L 302.58216,246.95087 C 299.30841,246.95087 297.23466,250.04462 296.54466,255.66212 L 296.15341,255.66212 L 296.15341,246.40962 L 315.25841,246.40962 L 315.25841,255.66212"
         style="fill:#920a25;fill-opacity:1;fill-rule:nonzero;stroke:none"
         id="path2482" />
      <path
         d="M 316.12916,268.88137 L 316.12916,268.51762 C 319.25416,268.10137 319.82666,268.00637 319.82666,265.09387 L 319.82666,250.16512 C 319.82666,247.21887 319.28541,247.07012 316.12916,246.76762 L 316.12916,246.40887 L 335.41541,246.40887 L 335.41541,254.43012 L 335.02791,254.43012 C 334.12416,249.11012 331.87291,246.97887 327.45916,246.97887 C 324.54291,246.97887 323.91041,247.43012 323.91041,250.40762 L 323.91041,256.74512 L 325.14166,256.74512 C 327.84541,256.74512 329.76666,255.23762 330.09916,250.91387 L 330.46166,250.91387 L 330.46166,263.14137 L 330.09916,263.14137 C 329.70916,258.39512 327.45916,257.22262 325.14166,257.22262 L 323.91041,257.22262 L 323.91041,265.12762 C 323.91041,267.22762 324.30041,268.33887 327.24166,268.33887 C 331.30166,268.33887 334.60666,265.66512 335.41541,259.90012 L 335.80541,259.90012 L 335.80541,268.88137"
         style="fill:#920a25;fill-opacity:1;fill-rule:nonzero;stroke:none"
         id="path2486" />
      <path
         d="M 352.98978,268.88137 L 352.98978,268.51762 C 356.11228,268.10137 356.68603,268.00637 356.68603,265.09387 L 356.68603,247.73012 L 349.65603,269.21262 L 349.04853,269.21262 L 341.66353,247.73012 L 341.66353,261.97262 C 341.66353,266.68762 342.35353,268.46137 345.80728,268.51762 L 345.80728,268.88137 L 336.85853,268.88137 L 336.85853,268.51762 C 340.31228,268.46137 341.00228,266.68762 341.00228,261.97262 L 341.00228,250.25387 C 341.00228,247.30762 340.16103,247.03762 336.85853,246.76762 L 336.85853,246.40887 L 345.44603,246.40887 L 351.00353,262.65887 L 356.38353,246.40887 L 364.46728,246.40887 L 364.46728,246.76762 C 361.31103,247.07012 360.76853,247.21887 360.76853,250.16512 L 360.76853,265.09387 C 360.76853,268.00637 361.34353,268.10137 364.46728,268.51762 L 364.46728,268.88137"
         style="fill:#920a25;fill-opacity:1;fill-rule:nonzero;stroke:none"
         id="path2490" />
      <path
         d="M 376.93566,246.9505 C 373.83691,246.9505 373.53691,247.5205 373.53691,250.5555 L 373.53691,258.158 L 376.71816,258.158 C 380.77566,258.158 382.27441,256.47425 382.27441,252.65425 C 382.27441,249.083 380.74316,246.9505 376.93566,246.9505 z M 376.93566,258.69675 L 373.53691,258.69675 L 373.53691,265.09425 C 373.53691,268.21925 374.31691,268.1905 377.68191,268.518 L 377.68191,268.88175 L 365.75441,268.88175 L 365.75441,268.518 C 368.88316,268.1005 369.44816,268.0055 369.44816,265.09425 L 369.44816,250.1655 C 369.44816,247.218 368.91316,247.06925 365.75441,246.768 L 365.75441,246.40925 L 377.23191,246.40925 C 380.29816,246.40925 386.78441,246.79925 386.78441,252.65425 C 386.78441,256.29425 384.29191,258.69675 376.93566,258.69675"
         style="fill:#920a25;fill-opacity:1;fill-rule:nonzero;stroke:none"
         id="path2494" />
      <path
         d="M 397.41641,269.33662 C 393.18016,269.33662 390.71891,267.01912 389.81766,267.01912 C 388.94641,267.01912 388.67516,267.67912 388.28391,269.12412 L 387.89516,269.12412 L 387.89516,258.84537 L 388.28391,258.84537 C 389.99516,265.76037 392.97391,268.76037 397.29641,268.76037 C 400.62766,268.76037 402.49641,266.75037 402.49641,264.07037 C 402.49641,257.40412 388.25516,261.16037 388.25516,252.56787 C 388.25516,249.26412 391.26016,245.95412 395.85766,245.95412 C 399.28141,245.95412 400.90266,247.81662 401.92641,247.81662 C 402.79641,247.81662 403.00641,247.21787 403.30391,246.16787 L 403.69516,246.16787 L 403.69516,254.67287 L 403.30391,254.67287 C 402.40516,250.85287 400.23891,246.52787 395.91391,246.52787 C 393.18016,246.52787 391.01891,248.24162 391.01891,250.52162 C 391.01891,256.29412 405.29016,252.68787 405.29016,261.85037 C 405.29016,265.93537 401.92641,269.33662 397.41641,269.33662"
         style="fill:#920a25;fill-opacity:1;fill-rule:nonzero;stroke:none"
         id="path2498" />
    </g>
  </g>
</svg>
