<svg xmlns="http://www.w3.org/2000/svg" viewBox="0 0 1000 200" height="200" width="1000" version="1.1">
  <path d="m872.53 87.89 0-5.15c-2.61 4.48-7.11 6.8-13.06 6.8-9.54 0-15.57-6.48-15.57-16.69 0-10.29 6.6-17.22 16.52-17.22 3.43 0 6.08 0.87 8.84 2.83 1.47 1.07 1.88 1.52 2.88 3.1l0-3.55 0-4.36c0-0.98-0.13-1.78-0.33-2.23-0.42-0.87-0.9-1.07-2.75-1.07l-2.62 0 0-6.46 16.91 0 0 29.88 0 4.35c0 1 0.15 1.78 0.33 2.25 0.43 0.87 0.95 1.05 2.76 1.05l2.37 0 0 6.48zm-7.78-24.67-0.62 0c-4.9 0-8.13 3.81-8.13 9.56 0 5.73 3.33 9.83 8.03 9.83 4.93 0 8.36-3.9 8.36-9.56 0-5.75-2.95-9.83-7.65-9.83m-45.55 24.66 0-6.46 2.38 0c1.8 0 2.32-0.2 2.75-1.05 0.33-0.73 0.38-1 0.38-5.35 0-4.55-0.1-5.61-0.48-7.13-0.7-2.57-3.18-4.08-6.45-4.08-1.87 0-3.61 0.45-5.08 1.58-1.1 0.78-1.62 1.52-2.61 3.36l0 5.01c0 1.85 0 3.3 0.05 4.35 0 0.98 0.08 1.78 0.33 2.25 0.42 0.85 0.93 1.05 2.7 1.05l2.42 0 0 6.46-22.17 0 0-6.46 2.37 0c1.82 0 2.28-0.2 2.76-1.05 0.18-0.47 0.33-1.27 0.33-2.25l0-4.35 0-3.36 0-4.36c0-0.98-0.15-1.78-0.33-2.23-0.43-0.87-0.9-1.07-2.76-1.07l-2.37 0 0-6.46 16.67 0 0 6.46c1.23-2.1 1.8-2.76 3.7-4.28 2.9-2.32 5.85-3.3 9.69-3.3 5.13 0 8.68 1.78 10.73 5.28 1.33 2.3 1.72 4.41 1.72 8.89l0 4.43c0 1.85 0 3.3 0.05 4.35 0 0.98 0.08 1.78 0.32 2.25 0.43 0.85 0.97 1.05 2.76 1.05l2.37 0 0 6.46-22.22 0zm-46.01 0.01 0-6.46c-1.23 2.17-1.82 2.83-3.71 4.28-2.93 2.32-5.88 3.3-9.73 3.3-5.08 0-8.64-1.72-10.69-5.28-0.52-0.92-0.98-2.05-1.28-3.23-0.37-1.65-0.47-2.57-0.47-5.66l0-4.43 0-4.28c0-1.05-0.15-1.78-0.38-2.25-0.38-0.92-0.9-1.12-2.7-1.12l-2.38 0 0-6.46 16.72 0 0 14.11c0 3.3 0.08 4.5 0.47 5.88 0.72 2.57 3.18 4.15 6.41 4.15 1.85 0 3.61-0.58 5.08-1.65 1.15-0.78 1.67-1.52 2.66-3.36l0-5.01c0-1.85-0.05-3.3-0.05-4.28-0.05-1.05-0.1-1.78-0.33-2.25-0.43-0.92-0.95-1.12-2.76-1.12l-2.37 0 0-6.46 16.67 0 0 17.47 0 0.6 0 3.76c0 0.98 0.13 1.78 0.37 2.23 0.38 0.87 0.87 1.07 2.71 1.07l2.38 0 0 6.46-16.62 0zM305.38 175.41c0 0-0.02-2.05-0.02 2.37 0 9.33-9.13 8.31-9.13 0.93 0 0-0.02-7.28-0.02-12.24 0-7.85-8.24-11.38-11.73-12.51l0-0.63c4.21-0.8 15.72-4.46 15.72-21 0-10.96-5.76-22.64-20.2-22.64l-76.27 0 0 8.29 5.61 0c3.31 0.02 7.05 2.83 7.05 7.65l0 54.52c0 2.23-0.67 3.33-1.58 4.25-0.97 0.97-2 1.43-4.68 1.45l-4.26 0 0 8.44 52.37 0 0-8.44-5.65 0c-2.66-0.02-3.98-0.52-4.93-1.53-0.93-0.98-1.63-2.15-1.63-4.51l0-23.77 13.57 0c6.91 0 9.79 4.6 9.79 11.66l0 12.51c0 10.41 10.81 15.77 22.69 15.77 15.36 0 21.89-6.45 21.89-16.22l0-4.33-8.59 0zm-48.54-30.15-10.81 0 0-27.28 10.81 0c2.62 0 10.49 0.13 10.49 13.64 0 13.64-7.94 13.64-10.49 13.64m650.95-35.58 0 32.28 11.36 0 0-7.68c0-11.63 6.68-16.27 19.64-16.31l0 62.18c0 2.23-0.58 3.33-1.52 4.26-0.95 0.95-1.98 1.42-4.66 1.43l-5.96 0 0 8.46 53.93 0 0-8.46-5.95 0c-2.68-0.02-3.73-0.48-4.68-1.43-0.92-0.93-1.52-2.03-1.52-4.26l0-62.18c12.96 0.03 19.64 4.68 19.64 16.31l0 7.68 11.38 0 0-32.28-91.66 0zm-597.58 0 0 33.95 11.36 0 0-9.34c0-11.63 6.68-16.27 19.65-16.31l0 62.18c0 2.23-0.6 3.33-1.53 4.26-0.95 0.95-1.98 1.42-4.66 1.43l-5.95 0 0 8.46 53.92 0 0-8.46-5.95 0c-2.68-0.02-3.73-0.48-4.68-1.43-0.92-0.93-1.52-2.03-1.52-4.26l0-62.18c12.96 0.03 19.64 4.68 19.64 16.31l0 9.34 11.38 0 0-33.95-91.66 0zm125.11 18.87c0-15.57 36.69-13.92 42.52 4.65l14.42 0 0-23.52-14.51 0 0 5.45c0 0-9.59-7.8-29.6-7.8-29.25 0-39.03 17.11-39.03 28.53 0 37.06 58.98 22.4 58.98 39.69 0 17.14-38.14 10.99-44.46-11.31l-14.81 0 0 30.03 14.36 0-0.02-7.08c0 0 8.73 9.53 32.95 9.53 18.7 0 39.19-5.06 39.19-29.95 0-35.61-60.01-22.1-60.01-38.23m254.94-4.85c0-2.23 0.6-3.33 1.52-4.25 0.95-0.95 2-1.43 4.68-1.45l5.95 0 0-8.31-52.23 0 0 8.31 4.26 0c2.68 0.02 3.71 0.5 4.66 1.45 0.93 0.92 1.52 2.02 1.52 4.25l0 21.6-25.43 0 0-21.6c0-2.23 0.6-3.33 1.52-4.25 0.95-0.95 2-1.43 4.66-1.45l4.26 0 0-8.31-52.23 0 0 8.31 4.26 0c2.68 0.02 5.41 0.5 6.36 1.45 0.92 0.92 1.52 2.02 1.52 4.25l0 56.46c0 2.25-0.6 3.33-1.52 4.26-0.95 0.95-3.68 1.42-6.36 1.43l-4.26 0 0 8.46 52.23 0 0-8.46-4.26 0c-2.66-0.02-3.71-0.48-4.66-1.43-0.92-0.93-1.52-2.02-1.52-4.26l0-24.12 25.43 0 0 24.12c0 2.25-0.58 3.33-1.52 4.26-0.95 0.95-1.98 1.42-4.66 1.43l-4.26 0 0 8.46 50.8 0 0-8.46-4.51 0c-2.68-0.02-3.73-0.48-4.68-1.43-0.92-0.93-1.52-2.02-1.52-4.26l0-56.46zm-190.26 29.25c0.12-26.28 17.74-45.59 41.34-45.59 17.16 0 23.14 3.43 30.85 8.91l0-6.56 14.92 0 0 28.4-15.16 0c-0.27-11.38-8.73-21.19-21.35-21.19-14.44 0-18.27 9.46-18.27 34.28 0 25.77 3.05 35.04 18.97 35.04 15.72 0 17.64-10.94 19.25-20.59l19.77-0.02c-3.15 21.44-18.57 31.03-41.52 31.03-24.32 0-48.8-13.01-48.8-43.72m-395.77-43.27 0 8.28 4.66 0c2.68 0.02 6.81 1.47 5.18 7.31l-8.69 34.29-0.93 0-11.81-49.88-29.45 0-10.46 47.19-0.9 0-8.28-32.66c-0.85-4.16 2.03-6.25 5.33-6.25l3.96 0 0-8.28-52.3 0 0 8.29 4.71-0.02c2.68 0.02 3.68 0.67 4.56 1.62 0.68 0.73 1 1.6 1.42 3.06l0 0 19.84 71.64 28.78 0 11.26-48.29 0.9 0 10.66 48.29 31.01 0 18.12-71.64c0.43-1.47 0.6-2.33 1.28-3.06 0.88-0.95 1.88-1.6 4.56-1.62l4.88 0 0-8.28-38.31 0zm704.39 76.13c-2.68-0.02-3.4-0.48-4.35-1.43-0.57-0.57-0.9-1.2-1.27-2.1l-27.65-72.6-35.61 0-25.77 71.64c-0.53 1.47-0.9 2.32-1.63 3.06-0.95 0.95-2 1.42-4.68 1.43l-3.56 0 0 8.46 38.74 0 0-8.46-4.26 0c-2.68-0.02-5.31-0.22-6.26-1.17-0.77-0.77-0.72-2.43 0.07-4.53l5.76-15.99 24.08 0 6.01 15.99c0.78 2.1 0.83 3.76 0.08 4.53-0.95 0.95-3.6 1.15-6.26 1.17l-4.26 0 0 8.46 54.72 0 0-8.46-3.9 0zm-66.61-32.45 7.41-20.59 1 0 7.76 20.59-16.17 0zm123.15-43.68-49.95-0.02 0 8.31 4.26 0c2.68 0.02 3.71 0.48 4.66 1.43 0.93 0.93 1.53 2.03 1.53 4.26l0 56.46c0 2.23-0.6 3.33-1.53 4.26-0.95 0.95-1.98 1.42-4.66 1.43l-3.83 0 0 8.46 52.3 0 0-8.46-6.01 0c-2.68-0.02-3.98-0.52-4.93-1.52-0.93-0.98-1.7-2.15-1.7-4.51l0-23.78 11.74 0c2.25 0 3.35 0.6 4.26 1.52 0.95 0.97 1.42 2 1.43 4.68l0 4.16 9.48 0 0-31.56-9.48 0 0 4.26c-0.02 2.68-0.48 3.71-1.43 4.66-0.92 0.93-2.02 1.53-4.26 1.53l-11.74 0 0-27.3 21.95 0c8.71 0 13.08 3.05 13.08 11.64l0 12.33 11.36 0 0-32.26-36.53 0zm-666.39 84.61 0-8.46-5.78 0c-2.68-0.02-3.73-0.48-4.68-1.43-0.92-0.93-1.52-2.03-1.52-4.26l0-11.71 0-42.24 0-2.52c0-2.23 0.6-3.33 1.52-4.25 0.95-0.97 2-1.43 4.68-1.45l5.78 0 0-8.31-52.23 0 0 8.31 4.43 0c2.68 0.02 3.71 0.48 4.66 1.45 0.93 0.92 1.52 2.02 1.52 4.25l0 2.52 0 42.24 0 11.71c0 2.23-0.58 3.33-1.52 4.26-0.95 0.95-1.98 1.42-4.66 1.43l-6.3 0 0 8.46 54.1 0zM585.24 3.29l0 8.29 7.05 0c2.68 0.02 4 0.52 4.95 1.53 0.92 0.97 1.68 2.13 1.68 4.51l0 35.41-0.98 0.25-27.85-50.02-46.17 0 0 8.31 4.26 0c2.68 0.02 3.71 0.48 4.66 1.45 0.93 0.92 1.53 2.02 1.53 4.25l0 56.46c0 2.23-0.6 3.33-1.53 4.26-0.95 0.95-1.98 1.42-4.66 1.43l-4.26 0 0 8.46 39.64 0 0-8.46-5.65 0c-2.68-0.02-3.98-0.52-4.93-1.52-0.93-0.98-1.7-2.15-1.7-4.51l0-36.69 1-0.25 28.37 51.43 35.19 0 0-70.62c0-2.23 0.6-3.33 1.52-4.25 0.95-0.97 2-1.43 4.68-1.45l4.46 0 0-8.29-41.26 0zM516.52 79.44c-2.66-0.02-3.4-0.48-4.35-1.43-0.55-0.57-0.88-1.2-1.27-2.1l-27.65-72.6-35.59 0-25.78 71.64c-0.52 1.47-0.9 2.32-1.63 3.06-0.95 0.95-2 1.42-4.68 1.43l-4.53 0 0 8.46 39.71 0 0-8.46-4.26 0c-2.68-0.02-5.31-0.22-6.26-1.17-0.77-0.77-0.72-2.43 0.07-4.53l5.76-15.99 24.08 0 6.01 15.99c0.8 2.1 0.85 3.76 0.08 4.53-0.95 0.95-3.58 1.15-6.26 1.17l-4.26 0 0 8.46 55.08 0 0-8.46-4.26 0zm-66.61-32.45 7.41-20.59 1.02 0 7.75 20.59-16.17 0zM212.32 3.29l-49.95-0.02 0 8.31 4.26 0c2.68 0.02 3.71 0.48 4.66 1.45 0.93 0.92 1.52 2.02 1.52 4.25l0 56.46c0 2.23-0.58 3.33-1.52 4.26-0.95 0.95-1.98 1.42-4.66 1.43l-4.26 0 0 8.46 52.73 0 0-8.46-6.01 0c-2.68-0.02-3.98-0.52-4.95-1.52-0.92-0.98-1.68-2.15-1.68-4.51l0-23.78 11.76 0c2.23 0 3.33 0.6 4.25 1.53 0.95 0.95 1.42 1.98 1.43 4.66l0 4.16 9.48 0 0-31.56-9.48 0 0 4.26c-0.02 2.68-0.48 3.71-1.43 4.66-0.92 0.93-2.02 1.53-4.25 1.53l-11.76 0 0-27.3 22.47 0c8.71 0 13.06 3.05 13.06 11.64l0 11.48 11.38 0 0-31.41-37.04 0zM712.68 67.1c0 6.4-3.18 11.16-11.46 11.16l-25.33 0 47.44-73.87-0.63-1.08-89.49 0 0 31.4 11.38 0 0-11.48c0-8.59 4.35-11.64 13.06-11.64l22.94 0-47.57 74.6 1 1.72 90.78 0 0-31.86-12.09 0 0 11.06zm-405.41 20.8 0-8.46-5.28 0c-2.68-0.02-3.71-0.48-4.66-1.43-0.93-0.93-1.52-2.03-1.52-4.26l0-11.71 0-42.24 0-2.52c0-2.23 0.58-3.33 1.52-4.25 0.95-0.97 1.98-1.43 4.66-1.45l4.78 0 0-8.31-51.57 0 0 8.31 4.76 0c2.68 0.02 3.73 0.48 4.68 1.45 0.92 0.92 1.52 2.02 1.52 4.25l0 2.52 0 42.24 0 11.71c0 2.23-0.6 3.33-1.52 4.26-0.95 0.95-2 1.42-4.68 1.43l-5.78 0 0 8.46 53.08 0zm68.85-84.61 0 8.29 7.05 0c2.68 0.02 4 0.52 4.95 1.53 0.92 0.97 1.68 2.13 1.68 4.51l0 35.41-0.98 0.25-27.85-50.02-46.17 0 0 8.31 4.26 0c2.68 0.02 3.71 0.48 4.66 1.45 0.93 0.92 1.53 2.02 1.53 4.25l0 56.46c0 2.23-0.6 3.33-1.53 4.26-0.95 0.95-1.98 1.42-4.66 1.43l-4.26 0 0 8.46 39.64 0 0-8.46-5.65 0c-2.68-0.02-3.98-0.52-4.93-1.52-0.93-0.98-1.7-2.15-1.7-4.51l0-36.69 1-0.25 28.37 51.43 35.19 0 0-70.62c0-2.23 0.6-3.33 1.52-4.25 0.95-0.97 2-1.43 4.68-1.45l5.13 0 0-8.29-41.92 0z" fill="#033885"/>
</svg>
