<?xml version="1.0" standalone="no"?>
<!DOCTYPE svg PUBLIC "-//W3C//DTD SVG 1.1//EN" "http://www.w3.org/Graphics/SVG/1.1/DTD/svg11.dtd" >
<svg xmlns="http://www.w3.org/2000/svg" xmlns:xlink="http://www.w3.org/1999/xlink" version="1.1">
<metadata></metadata>
<defs>
<font id="vontobel_serifregular" horiz-adv-x="1228" >
<font-face units-per-em="2048" ascent="1638" descent="-410" />
<missing-glyph horiz-adv-x="471" />
<glyph unicode="&#xfb01;" horiz-adv-x="1427" d="M41 942v78l231 63v62q0 115 33.5 206.5t92.5 150t139 89.5t174 31q175 0 358 -98l-104 -242h-82q2 14 2 39q0 91 -61.5 147t-143.5 56q-94 0 -161.5 -75.5t-67.5 -223.5v-176h737v-938l178 -27v-84h-535v76l179 59v797h-559v-821l178 -27v-84h-535v76l178 59v807h-231z " />
<glyph unicode="&#xfb02;" horiz-adv-x="1386" d="M41 942v78l231 63v62q0 122 37 216t100.5 150t143 84.5t170.5 28.5q167 0 319 -98l125 35v-1450l179 -27v-84h-535v76l178 59v1102q0 92 -40 159t-100 97.5t-130 30.5q-109 0 -188.5 -76t-79.5 -211v-188h317v-117h-317v-821l178 -27v-84h-535v76l178 59v807h-231z" />
<glyph horiz-adv-x="0" />
<glyph horiz-adv-x="682" />
<glyph unicode="&#xd;" horiz-adv-x="1024" />
<glyph unicode=" "  horiz-adv-x="471" />
<glyph unicode="&#x09;" horiz-adv-x="471" />
<glyph unicode="&#xa0;" horiz-adv-x="471" />
<glyph unicode="!" horiz-adv-x="540" d="M143 119q0 58 34.5 93.5t90.5 35.5q58 0 93.5 -35t35.5 -94t-35.5 -94t-93.5 -35q-56 0 -90.5 35.5t-34.5 93.5zM147 1536h242l-74 -1102h-94z" />
<glyph unicode="&#x22;" horiz-adv-x="757" d="M102 1614h226l-52 -633l-122 35zM430 1614h225l-51 -633l-123 35z" />
<glyph unicode="#" horiz-adv-x="1300" d="M61 522v109h291l49 309h-307v109h324l71 467h127l-71 -467h270l72 467h127l-72 -467h297v-109h-313l-47 -309h327v-109h-344l-80 -522h-129l80 522h-268l-80 -522h-129l80 522h-275zM481 631h269l49 309h-271z" />
<glyph unicode="$" horiz-adv-x="1310" d="M170 152l37 323h86q0 -135 71 -223t183 -119l39 572q-52 26 -81.5 41.5t-76 43.5t-74 51t-60.5 58t-50.5 70t-30 81t-12.5 97q0 124 60.5 212.5t158 130.5t223.5 46l16 223h91l-17 -225q227 -19 400 -135l-111 -285h-82q4 36 4 49q0 103 -61 168.5t-158 83.5l-37 -528 l39 -19q162 -79 224 -122q157 -108 184 -262q6 -36 6 -74q0 -134 -64.5 -228t-170.5 -138t-242 -44h-37l-19 -279h-90l21 287q-207 31 -369 144zM389 1188q0 -85 56 -145t157 -113l35 491q-108 -6 -178 -67t-70 -166zM635 117h27q125 0 206.5 63.5t81.5 177.5 q0 44 -16.5 83.5t-40 68t-63.5 57.5t-73 48t-83 44z" />
<glyph unicode="%" horiz-adv-x="1900" d="M82 1198q0 165 106 269t263 104q163 0 270.5 -104t107.5 -269q0 -163 -108 -269t-270 -106q-156 0 -262.5 106.5t-106.5 268.5zM246 1200q0 -102 57.5 -167.5t151.5 -65.5q92 0 151.5 66t59.5 167q0 100 -59.5 165t-151.5 65q-94 0 -151.5 -64.5t-57.5 -165.5zM383 0 l977 1536h135l-977 -1536h-135zM1071 332q0 165 106 269t263 104q163 0 271 -104t108 -269q0 -163 -108.5 -269t-270.5 -106q-156 0 -262.5 106.5t-106.5 268.5zM1235 334q0 -103 57.5 -168.5t151.5 -65.5q92 0 151.5 66.5t59.5 167.5q0 100 -59.5 164.5t-151.5 64.5 q-94 0 -151.5 -64t-57.5 -165z" />
<glyph unicode="&#x26;" horiz-adv-x="1558" d="M102 369q0 89 37 170.5t120 153t204 112.5l-53 53q-76 76 -116 165.5t-40 174.5q0 144 106 241t287 97q175 0 278 -90t103 -219q0 -114 -86 -221t-250 -175l375 -385q59 130 68 326l-123 33v82h442v-74l-217 -72q-30 -240 -100 -366l293 -301v-74h-193l-199 205 q-81 -112 -206.5 -171t-262.5 -59q-211 0 -337.5 116.5t-129.5 277.5zM305 446q0 -130 88 -224.5t240 -94.5q93 0 179.5 40.5t148.5 119.5l-443 458q-104 -39 -158.5 -121t-54.5 -178zM432 1217q0 -123 107 -230l94 -96q110 51 166.5 137.5t56.5 177.5q0 93 -58.5 158.5 t-156.5 65.5q-93 0 -151 -61t-58 -152z" />
<glyph unicode="'" horiz-adv-x="430" d="M102 1614h226l-52 -633l-122 35z" />
<glyph unicode="(" horiz-adv-x="733" d="M72 698q0 351 154 634.5t407 439.5l80 -86q-236 -169 -371 -424.5t-135 -563.5q0 -310 135 -565.5t371 -423.5l-80 -86q-253 156 -407 439.5t-154 635.5z" />
<glyph unicode=")" horiz-adv-x="733" d="M20 -291q236 168 371 423.5t135 565.5q0 308 -135 563.5t-371 424.5l80 86q253 -156 407.5 -440t154.5 -634q0 -352 -154.5 -635.5t-407.5 -439.5z" />
<glyph unicode="*" horiz-adv-x="788" d="M61 1317l50 160l237 -121l-37 264h168l-41 -264l236 119l53 -158l-260 -49l186 -181l-137 -100l-121 230l-121 -230l-139 100l184 181z" />
<glyph unicode="+" horiz-adv-x="1024" d="M82 537v120h369v392h124v-392h367v-120h-367v-387h-124v387h-369z" />
<glyph unicode="," horiz-adv-x="514" d="M82 -246q123 21 190.5 121.5t28.5 220.5q-11 -12 -34 -22.5t-50 -10.5q-44 0 -78.5 28.5t-34.5 80.5q0 51 34 89t98 38q89 0 142.5 -76.5t53.5 -189.5q0 -80 -29 -148.5t-76.5 -113.5t-100.5 -73t-107 -40z" />
<glyph unicode="-" horiz-adv-x="835" d="M102 567v170h631v-170h-631z" />
<glyph unicode="." horiz-adv-x="458" d="M102 119q0 58 34.5 93.5t90.5 35.5q59 0 94 -35t35 -94t-35 -94t-94 -35q-56 0 -90.5 35.5t-34.5 93.5z" />
<glyph unicode="/" horiz-adv-x="917" d="M41 -188l678 1888h158l-678 -1888h-158z" />
<glyph unicode="0" d="M102 756q0 233 58.5 407.5t175 273.5t278.5 99q241 0 376.5 -210.5t135.5 -571.5q0 -362 -137 -570.5t-375 -208.5q-162 0 -278.5 99t-175 274t-58.5 408zM311 809q0 -215 35 -378t109 -260t180 -97q74 0 128 46t86.5 131.5t48 197.5t15.5 253q0 214 -34 376t-108 260 t-181 98q-97 0 -160.5 -82t-91 -218.5t-27.5 -326.5z" />
<glyph unicode="1" d="M172 1266v86q282 26 553 184v-1407l352 -39v-90h-899v74l352 84v1108h-358z" />
<glyph unicode="2" d="M102 127l306 313q106 108 171.5 183t121 155t80 151.5t24.5 145.5q0 133 -75 205t-185 72q-119 0 -224 -85t-137 -235l-71 60q8 85 41 157.5t82 124.5t110.5 89t129 55t136.5 18q80 0 151.5 -24.5t128.5 -71t90.5 -121t33.5 -168.5q0 -50 -11 -99.5t-26.5 -92t-48.5 -94 t-61.5 -90.5t-80.5 -98t-90.5 -100t-107.5 -112l-283 -293h611l100 158h67l-41 -330h-925z" />
<glyph unicode="3" d="M82 104l70 250h86q-2 -12 -2 -30q0 -109 92.5 -178.5t212.5 -69.5q90 0 169.5 35t132 107t52.5 165q0 148 -126.5 253t-348.5 105v109q180 38 279.5 121.5t99.5 197.5q0 101 -75 156t-183 55q-113 0 -213 -60.5t-144 -170.5l-71 59q39 108 118 183.5t174 110t201 34.5 q108 0 199 -34.5t149 -105.5t58 -165q0 -114 -85 -208.5t-243 -150.5q198 -33 307 -152.5t109 -289.5q0 -111 -47.5 -199.5t-128 -143t-181 -83.5t-211.5 -29q-123 0 -243.5 33.5t-206.5 95.5z" />
<glyph unicode="4" d="M20 496l689 1020h174v-988h260v-149h-260v-379h-189v383h-663zM182 528h512v777z" />
<glyph unicode="5" d="M123 119l51 327h90v-32q0 -161 89.5 -249.5t217.5 -88.5q81 0 148.5 30t111 80.5t67.5 114t24 131.5q0 184 -116.5 283.5t-307.5 99.5q-131 0 -267 -45l119 746h686v-191h-594l-57 -375q116 37 213 37q104 0 195 -31.5t160.5 -91.5t110 -155t40.5 -213q0 -99 -35 -191 t-100 -166t-169 -119t-231 -45q-243 0 -446 144z" />
<glyph unicode="6" d="M96 614q0 135 33 263.5t102 244t166.5 202.5t237 138t303.5 51h63v-100q-130 0 -242.5 -36t-207.5 -111t-159 -203t-85 -299q67 93 166.5 141.5t208.5 48.5q86 0 166 -31.5t144 -89.5t102.5 -150.5t38.5 -205.5q0 -119 -42 -216t-112.5 -158.5t-158.5 -94.5t-183 -33 q-82 0 -160 24t-147.5 75.5t-121 125.5t-82 180.5t-30.5 233.5zM305 610q-8 -126 19.5 -230.5t79 -169.5t117.5 -100.5t136 -35.5q115 0 197 91.5t82 258.5q0 175 -90.5 271t-222.5 96q-90 0 -175.5 -46.5t-142.5 -134.5z" />
<glyph unicode="7" d="M74 1331v185h1071l10 -84l-651 -1432h-148l611 1331h-893z" />
<glyph unicode="8" d="M80 367q0 139 99 240.5t284 150.5q-305 143 -305 395q0 92 40 167t107 121t148.5 70.5t169.5 24.5q115 0 214 -38.5t164.5 -120t65.5 -191.5q0 -81 -35.5 -153t-112 -130.5t-186.5 -89.5l152 -72q264 -124 264 -354q0 -126 -74 -221t-194 -143t-265 -48 q-82 0 -159.5 15.5t-146 48t-119.5 78.5t-81 110.5t-30 139.5zM279 385q0 -126 94.5 -218.5t251.5 -92.5q140 0 230.5 77t90.5 199q0 103 -88.5 188.5t-300.5 168.5q-94 -25 -158.5 -78.5t-92 -115t-27.5 -128.5zM342 1178q0 -90 62 -169.5t186 -131.5l53 -23 q117 41 180.5 130t63.5 190q0 107 -71.5 183.5t-194.5 76.5q-124 0 -201.5 -75.5t-77.5 -180.5z" />
<glyph unicode="9" d="M57 1034q0 119 42 216t112.5 158.5t158.5 94.5t183 33q82 0 160 -24t147.5 -75.5t121 -125.5t82 -180.5t30.5 -233.5q0 -135 -33 -263.5t-102 -244t-166.5 -202.5t-237 -138t-303.5 -51h-64v100q103 0 195.5 22t177 71.5t149.5 124t110.5 184.5t62.5 248 q-67 -93 -166.5 -142t-208.5 -49q-86 0 -166 31.5t-144 89.5t-102.5 150.5t-38.5 205.5zM254 1087q0 -175 90.5 -270.5t222.5 -95.5q90 0 176 46t142 134q8 126 -19.5 230.5t-79.5 170t-118 101t-136 35.5q-114 0 -196 -92t-82 -259z" />
<glyph unicode=":" horiz-adv-x="550" d="M102 119q0 58 34.5 93.5t90.5 35.5q59 0 94 -35t35 -94t-35 -94t-94 -35q-56 0 -90.5 35.5t-34.5 93.5zM102 920q0 58 34.5 93.5t90.5 35.5q59 0 94 -35.5t35 -93.5t-35 -93.5t-94 -35.5q-56 0 -90.5 35.5t-34.5 93.5z" />
<glyph unicode=";" horiz-adv-x="647" d="M102 -246q123 21 191 121.5t29 220.5q-10 -12 -33.5 -22.5t-50.5 -10.5q-44 0 -78.5 28.5t-34.5 80.5q0 51 33.5 89t97.5 38q90 0 143.5 -76.5t53.5 -189.5q0 -80 -29.5 -148.5t-77 -113.5t-100 -73t-107.5 -40zM141 920q0 58 34.5 93.5t90.5 35.5q58 0 93.5 -35.5 t35.5 -93.5t-35.5 -93.5t-93.5 -35.5q-56 0 -90.5 35.5t-34.5 93.5z" />
<glyph unicode="&#x3c;" horiz-adv-x="1024" d="M111 520v113l745 446l55 -106l-665 -395l665 -396l-55 -106z" />
<glyph unicode="=" horiz-adv-x="1024" d="M82 375v121h860v-121h-860zM82 698v121h860v-121h-860z" />
<glyph unicode="&#x3e;" horiz-adv-x="1024" d="M102 182l666 396l-666 395l56 106l745 -446v-113l-745 -444z" />
<glyph unicode="?" horiz-adv-x="1028" d="M102 1444q89 55 199 86t221 31q83 0 153.5 -18.5t128 -56.5t90 -103t32.5 -150q0 -34 -6.5 -66t-13.5 -55.5t-25.5 -51.5t-28.5 -43t-37.5 -42t-37.5 -36t-43.5 -37.5t-41.5 -35.5q-62 -54 -94.5 -93.5t-56.5 -100t-37 -152.5l-12 -86h-78l-29 139q-8 41 -8 84 q0 52 14 96t46.5 85.5t58.5 67t75 69.5q47 41 68 61t49.5 55.5t39.5 71.5t11 80q0 106 -64 161.5t-155 55.5q-99 0 -173.5 -63t-74.5 -176q0 -36 13 -86h-82zM336 117q0 60 35 95.5t92 35.5t92 -35t35 -92q0 -59 -36.5 -95t-94.5 -36q-57 0 -90 35t-33 92z" />
<glyph unicode="@" horiz-adv-x="1726" d="M61 465q0 187 73 353t195.5 282.5t288 184t345.5 67.5q105 0 205 -22.5t195 -74t166 -128t114 -193t43 -260.5q0 -152 -44 -282.5t-131.5 -213t-199.5 -82.5q-98 0 -172 61.5t-80 188.5l-221 -229q-53 -17 -99 -17q-158 0 -241.5 105t-83.5 270q0 109 38.5 206t101 164.5 t145 106.5t169.5 39q136 0 254 -92l17 76h174l-109 -488q-32 -143 5.5 -215.5t117.5 -72.5q61 0 110.5 43t79.5 112t46 149.5t16 160.5q0 115 -33.5 212.5t-92.5 167.5t-139 119t-172 73t-192 24q-113 0 -218.5 -31.5t-190.5 -87t-155 -131t-117 -163.5t-73 -186t-26 -196 q0 -139 50.5 -257.5t138 -200t207 -127.5t255.5 -46q135 0 252 43l-24 -94q-109 -47 -252 -47q-210 0 -377 89t-263 256t-96 384zM600 510q0 -122 49 -181t127 -59q119 0 219 111l86 405q-66 115 -184 115q-115 0 -206 -110t-91 -281z" />
<glyph unicode="A" horiz-adv-x="1662" d="M10 0v74l209 69l504 1246l-31 73v74h180l592 -1425l189 -29v-82h-637v74l209 69l-135 336h-601l-143 -364l209 -33v-82h-545zM532 590h512l-258 647z" />
<glyph unicode="B" horiz-adv-x="1398" d="M61 0v74l209 69v1278l-209 33v82h719q106 0 191 -28t138 -76t81.5 -109t28.5 -129q0 -116 -80.5 -218t-229.5 -151q184 -27 285.5 -135.5t101.5 -249.5q0 -66 -22.5 -128.5t-71 -119t-116.5 -99.5t-166 -68t-213 -25h-646zM477 115h195q96 0 173 27.5t125 73.5 t73.5 103.5t25.5 120.5q0 61 -24 117.5t-69.5 101.5t-119 72t-164.5 27h-215v-643zM477 868h180q79 0 145.5 26.5t109 70t66 97t23.5 109.5q0 109 -81 185t-234 76h-209v-564z" />
<glyph unicode="C" horiz-adv-x="1503" d="M72 752q0 186 60 342t162.5 260t238 161.5t286.5 57.5q281 0 533 -187l-152 -380h-86q8 58 8 81q0 163 -102.5 256t-249.5 93q-72 0 -143 -22.5t-136.5 -70.5t-115 -117t-79.5 -169t-30 -219q0 -104 22 -202t67 -184t108.5 -150t152.5 -101t193 -37q166 0 305.5 93.5 t226.5 274.5l60 -73q-35 -125 -99.5 -221.5t-147 -156t-176.5 -90t-196 -30.5q-106 0 -208 31.5t-193 97.5t-160 158.5t-109 222.5t-40 281z" />
<glyph unicode="D" horiz-adv-x="1568" d="M61 0v74l209 69v1278l-209 33v82h631q158 0 291 -40.5t226.5 -110t159.5 -163t97 -200t31 -219.5q0 -120 -34.5 -235.5t-105 -218t-169 -180.5t-237.5 -123.5t-300 -45.5h-590zM481 115h189q118 0 218 34.5t170 93.5t119 138.5t72 169.5t23 186q0 103 -26.5 202.5 t-81 189t-131 157t-184 107t-231.5 39.5h-137v-1317z" />
<glyph unicode="E" horiz-adv-x="1429" d="M61 0v74l209 69v1278l-209 33v82h1143l23 -387h-68l-190 283h-488v-590h555v-127h-555v-600h557l211 315h68l-51 -430h-1205z" />
<glyph unicode="F" horiz-adv-x="1267" d="M61 0v74l209 69v1278l-209 33v82h1143l23 -387h-68l-190 283h-488v-590h555v-127h-555v-600l209 -33v-82h-629z" />
<glyph unicode="G" horiz-adv-x="1548" d="M72 745q0 188 62 346t167 262.5t243.5 162t291.5 57.5q288 0 534 -187l-129 -331h-86q2 20 2 47q0 105 -54 182.5t-139 114.5t-188 37q-74 0 -146 -23t-138 -72.5t-116 -120t-80 -174t-30 -225.5q0 -140 33 -258t90.5 -200.5t136 -140t168.5 -84.5t189 -27q123 0 264 69 v430h-285v127h604v-80l-108 -18v-469q-278 -209 -559 -209q-120 0 -229.5 34t-200 101t-157 160t-103.5 218.5t-37 270.5z" />
<glyph unicode="H" horiz-adv-x="1740" d="M61 0v74l209 69v1278l-209 33v82h629v-74l-209 -69v-564h779v592l-209 33v82h628v-74l-209 -69v-1278l209 -33v-82h-628v74l209 69v576h-779v-604l209 -33v-82h-629z" />
<glyph unicode="I" horiz-adv-x="792" d="M82 0v74l209 69v1278l-209 33v82h629v-74l-209 -69v-1278l209 -33v-82h-629z" />
<glyph unicode="J" horiz-adv-x="1153" d="M31 109l39 350h96q-2 -16 -2 -35q0 -160 88 -251t205 -91q106 0 181 77.5t75 217.5v1044l-250 39v76h670v-74l-209 -69v-983q0 -113 -38 -201.5t-103.5 -141t-147 -79.5t-174.5 -27q-114 0 -227.5 39t-202.5 109z" />
<glyph unicode="K" horiz-adv-x="1511" d="M61 0v74l209 69v1278l-209 33v82h609v-80l-189 -63v-1278l209 -33v-82h-629zM481 780l625 633l-191 49v74h537v-82l-176 -31l-574 -581l768 -768v-74h-239z" />
<glyph unicode="L" horiz-adv-x="1380" d="M61 0v74l209 69v1278l-209 33v82h629v-74l-209 -69v-1278h533l217 385h67l-59 -500h-1178z" />
<glyph unicode="M" horiz-adv-x="2037" d="M61 0v74l209 69v1278l-209 33v82h502l461 -1233l469 1233h483v-74l-209 -69v-1278l209 -33v-82h-624v74l209 69v1194l-519 -1323l-110 -30l-531 1386v-1255l209 -33v-82h-549z" />
<glyph unicode="N" horiz-adv-x="1638" d="M61 0v74l209 69v1278l-209 33v82h431l768 -1174v1059l-209 33v82h546v-74l-206 -69v-1377l-119 -32l-871 1341v-1210l209 -33v-82h-549z" />
<glyph unicode="O" horiz-adv-x="1673" d="M72 774q0 226 97 408.5t270.5 286.5t391.5 104q165 0 309 -63t245 -171.5t159 -259t58 -319.5q0 -226 -98 -408.5t-272.5 -286.5t-391.5 -104q-166 0 -310 63t-244 172t-157 258.5t-57 319.5zM303 803q0 -206 70 -370t199 -256.5t294 -92.5q233 0 368.5 180t135.5 467 q0 206 -69.5 370t-198 257.5t-293.5 93.5q-155 0 -271 -84t-175.5 -230t-59.5 -335z" />
<glyph unicode="P" horiz-adv-x="1312" d="M61 0v74l209 69v1278l-209 33v82h717q148 0 257.5 -63t162.5 -162t53 -217q0 -91 -33 -175t-97 -154t-170 -111.5t-240 -41.5q-51 0 -107 6v84q67 0 124 8.5t114 33t97.5 62.5t65.5 102.5t25 148.5q0 164 -89 269.5t-255 105.5h-205v-1317l209 -33v-82h-629z" />
<glyph unicode="Q" horiz-adv-x="1673" d="M72 774q0 226 97 408.5t270.5 286.5t391.5 104q165 0 309 -63t245 -171.5t159 -259t58 -319.5q0 -207 -91.5 -381t-246.5 -283l202 -293v-75h-168l-192 284q-130 -51 -266 -51q-166 0 -310 63t-244 172t-157 258.5t-57 319.5zM303 803q0 -206 70 -370t199 -256.5 t294 -92.5q94 0 174 27l-274 405v70h160l266 -387q178 164 178 532q0 206 -69.5 370t-198 257.5t-293.5 93.5q-155 0 -271 -84t-175.5 -230t-59.5 -335z" />
<glyph unicode="R" horiz-adv-x="1431" d="M61 0v74l209 69v1278l-209 33v82h693q217 0 333.5 -107.5t116.5 -265.5q0 -140 -93.5 -260.5t-262.5 -165.5l543 -663v-74h-213l-553 715h-148v-600l209 -33v-82h-625zM477 825h148q170 0 265 93.5t95 222.5q0 122 -86 206.5t-242 84.5h-180v-607z" />
<glyph unicode="S" horiz-adv-x="1142" d="M82 121l39 340h90q0 -91 32.5 -165t86 -119t117.5 -69t131 -24q117 0 199.5 67.5t82.5 186.5q0 43 -11 80t-35.5 68.5t-49 56t-66.5 50.5t-72 42.5t-81 42.5q-165 84 -226 126q-160 110 -194 263q-10 46 -10 98q0 102 38.5 181.5t104.5 128t149.5 73.5t178.5 25 q118 0 242 -36.5t223 -104.5l-115 -299h-86q4 36 4 51q0 126 -84 197t-197 71q-106 0 -183 -64t-77 -178q0 -37 10.5 -70.5t24.5 -58.5t43.5 -52t51 -43.5t64.5 -41t66.5 -36.5t73.5 -36q46 -22 70.5 -34.5t66 -35t65 -39t57 -42t53 -49t41.5 -55.5t33.5 -65t19.5 -74t8 -87 q0 -106 -38.5 -189.5t-105.5 -135t-152.5 -78.5t-184.5 -27q-126 0 -257 42t-241 118z" />
<glyph unicode="T" horiz-adv-x="1460" d="M31 1149l22 387h1354l23 -387h-68l-191 283h-335v-1317l208 -33v-82h-628v74l209 69v1289h-336l-191 -283h-67z" />
<glyph unicode="U" horiz-adv-x="1667" d="M31 1454v82h628v-74l-208 -69v-822q0 -116 36.5 -208t98 -148t136.5 -84.5t157 -28.5q80 0 154.5 27t134 77.5t95 129t35.5 174.5v911l-208 33v82h546v-74l-206 -69v-883q0 -128 -50.5 -234t-134.5 -173.5t-189 -104t-218 -37.5h-8q-87 0 -169 22q-86 23 -162.5 72 t-134 119.5t-91 172.5t-33.5 224v850z" />
<glyph unicode="V" horiz-adv-x="1482" d="M0 1462v74h639v-82l-229 -33l370 -1136l375 1108l-229 69v74h557v-82l-189 -33l-489 -1405l-117 -32l-500 1409z" />
<glyph unicode="W" horiz-adv-x="2199" d="M0 1462v74h627v-82l-209 -33l252 -1085l352 1200h182l381 -1223l252 1080l-209 69v74h572v-82l-209 -33l-365 -1398l-135 -43l-399 1337l-379 -1294l-135 -43l-369 1413z" />
<glyph unicode="X" horiz-adv-x="1556" d="M10 0v82l213 33l445 633l-445 645l-213 71v72h652v-82l-205 -33l368 -534l338 506l-209 69v74h590v-82l-209 -33l-436 -641l438 -637l209 -69v-74h-653v82l209 33l-363 526l-338 -498l209 -69v-74h-600z" />
<glyph unicode="Y" horiz-adv-x="1511" d="M20 1462v74h639v-82l-229 -33l371 -716l356 688l-229 69v74h563v-82l-188 -33l-429 -821v-485l209 -33v-82h-628v74l209 69v451l-455 799z" />
<glyph unicode="Z" horiz-adv-x="1314" d="M61 84l871 1348h-590l-190 -283h-68l22 387h1065l11 -84l-856 -1337h649l211 315h67l-51 -430h-1130z" />
<glyph unicode="[" horiz-adv-x="677" d="M164 -332v2058h432v-102h-293v-1853h293v-103h-432z" />
<glyph unicode="\" horiz-adv-x="917" d="M41 1700h158l678 -1888h-158z" />
<glyph unicode="]" horiz-adv-x="677" d="M82 -229h293v1853h-293v102h432v-2058h-432v103z" />
<glyph unicode="^" horiz-adv-x="997" d="M82 956l375 605h84l374 -605h-88l-329 310l-328 -310h-88z" />
<glyph unicode="_" d="M102 -43h1024v-121h-1024v121z" />
<glyph unicode="`" horiz-adv-x="421" d="M0 1479l190 110l232 -381h-88z" />
<glyph unicode="a" horiz-adv-x="1077" d="M72 266q0 100 69.5 180t210.5 109l338 70v98q0 135 -55.5 194.5t-140.5 59.5q-98 0 -152.5 -71t-54.5 -175q0 -21 2 -41h-82l-98 221q86 75 195.5 116.5t215.5 41.5q96 0 172 -31.5t124 -101t48 -168.5v-547q0 -59 16.5 -91t57.5 -32q58 0 106 64l23 -64 q-17 -50 -62 -86.5t-110 -36.5q-72 0 -120 52t-48 174l-209 -195q-70 -31 -156 -31q-127 0 -208.5 87.5t-81.5 203.5zM252 281q0 -64 43 -110t113 -46q122 0 282 147v258l-239 -53q-101 -23 -150 -77.5t-49 -118.5z" />
<glyph unicode="b" horiz-adv-x="1175" d="M0 1421v47l346 93v-678l225 174q50 12 91 12q136 0 238 -73.5t153 -192.5t51 -264q0 -134 -47 -242.5t-127 -178t-183 -106.5t-219 -37q-180 0 -360 91v1277zM346 186q112 -98 246 -98q134 2 225.5 104.5t91.5 292.5q0 189 -88.5 303.5t-212.5 114.5q-70 0 -138.5 -38 t-123.5 -99v-580z" />
<glyph unicode="c" horiz-adv-x="1032" d="M72 512q0 106 33 204t95.5 177.5t165 127.5t230.5 48q186 0 358 -100l-96 -293h-82q2 16 2 35q0 121 -67 188.5t-162 67.5q-56 0 -109 -24.5t-97 -71t-70.5 -122t-26.5 -169.5q0 -198 108.5 -317.5t257.5 -119.5q94 0 180.5 54t147.5 159l41 -63q-62 -154 -178 -236 t-264 -82q-89 0 -165.5 30t-131 81.5t-93.5 120t-58 146t-19 159.5z" />
<glyph unicode="d" horiz-adv-x="1198" d="M72 469q0 166 65.5 301.5t191 217t289.5 81.5q91 0 193 -27v301l-168 78v47l346 93v-1391l168 -27v-77l-328 -91v201l-245 -188q-54 -13 -97 -13q-81 0 -155 32.5t-132.5 92.5t-93 155.5t-34.5 213.5zM240 543q0 -101 33 -188t101 -144t158 -57q77 0 154 38.5t125 98.5 v563q-96 96 -246 96q-80 0 -143.5 -35.5t-102.5 -94.5t-59 -130t-20 -147z" />
<glyph unicode="e" horiz-adv-x="1071" d="M72 512q0 127 42 234t112.5 176.5t162 108t191.5 38.5q184 0 290.5 -122.5t106.5 -344.5q0 -37 -2 -57h-733q7 -188 112 -295t252 -107q101 0 191 54t151 159l41 -63q-62 -155 -181.5 -236.5t-258.5 -81.5q-91 0 -176 36t-152.5 102t-108 170t-40.5 229zM248 651h543v17 q1 142 -65 216q-70 78 -177 79q-116 0 -197 -90t-104 -222z" />
<glyph unicode="f" horiz-adv-x="823" d="M41 942v78l231 63v62q0 115 33.5 206.5t92.5 150t139 89.5t174 31q175 0 358 -98l-104 -242h-82q2 14 2 39q0 91 -61.5 147t-143.5 56q-94 0 -161.5 -75.5t-67.5 -223.5v-176h317v-117h-317v-821l178 -27v-84h-535v76l178 59v807h-231z" />
<glyph unicode="g" horiz-adv-x="1144" d="M61 -252q0 41 17 72l221 137q-76 34 -117 95.5t-41 129.5q0 70 42.5 126.5t119.5 82.5q-69 52 -110 132t-41 173q0 158 115 265.5t296 107.5q58 0 144 -20h438v-138l-307 21q29 -24 47.5 -42t45 -52t40.5 -78t14 -96q0 -83 -38 -152t-99 -111.5t-134.5 -66t-148.5 -23.5 q-91 0 -194 39q-40 -17 -63 -51.5t-23 -73.5q0 -52 40 -88.5t115 -36.5h414q130 0 210.5 -60.5t80.5 -178.5q0 -92 -53.5 -168t-141.5 -123t-195 -72.5t-220 -25.5q-126 0 -231.5 29.5t-174 94t-68.5 152.5zM254 -242q0 -87 91 -133.5t222 -46.5q187 0 295.5 71.5 t108.5 157.5q0 55 -46.5 91t-133.5 36h-379q-65 -24 -111.5 -68.5t-46.5 -107.5zM338 700q0 -122 66 -202t180 -80q108 0 163.5 72t55.5 186q0 123 -64.5 205t-177.5 82q-108 0 -165.5 -74.5t-57.5 -188.5z" />
<glyph unicode="h" horiz-adv-x="1320" d="M51 0v76l178 59v1208l-168 76v47l347 95v-699l202 187q76 20 150 20q158 0 250 -100.5t92 -280.5v-577l178 -27v-84h-535v76l179 59v520q0 124 -60 186t-155 62q-75 0 -156 -39t-145 -108v-645l178 -27v-84h-535z" />
<glyph unicode="i" horiz-adv-x="657" d="M61 0v76l179 59v717l-168 78v45l346 94v-958l178 -27v-84h-535zM174 1425q0 62 35.5 99t95.5 37q61 0 97 -37t36 -99t-36 -98.5t-97 -36.5q-60 0 -95.5 36.5t-35.5 98.5z" />
<glyph unicode="j" horiz-adv-x="557" d="M0 -432q68 66 104.5 108t64 91t37 98.5t9.5 120.5v866l-168 78v45l346 94v-1051q0 -74 -13 -132.5t-33 -102t-62 -91t-82 -84.5t-111 -97l-18 -15zM147 1425q0 61 37 98.5t97 37.5t96.5 -37.5t36.5 -98.5t-36.5 -98t-96.5 -37t-97 37t-37 98z" />
<glyph unicode="k" horiz-adv-x="1210" d="M51 0v76l178 59v1208l-168 78v45l347 95v-1450l178 -27v-84h-535zM410 561l426 369l-193 47v72h526v-80l-161 -25l-396 -344l557 -524v-76h-194z" />
<glyph unicode="l" horiz-adv-x="616" d="M41 0v76l178 59v1208l-168 78v45l346 95v-1450l178 -27v-84h-534z" />
<glyph unicode="m" horiz-adv-x="1904" d="M51 0v76l178 59v717l-174 80v45l336 92v-225l217 205q68 20 129 20q103 0 182 -54t107 -165l217 199q59 20 135 20q82 0 143 -29t96.5 -81.5t52 -118t16.5 -144.5v-585l178 -27v-84h-523v80l166 55v512q0 122 -54.5 189t-139.5 67q-131 0 -266 -147v-645l167 -27v-84 h-512v80l166 55v512q0 122 -53 189t-139 67q-63 0 -133.5 -37.5t-134.5 -109.5v-645l167 -27v-84h-524z" />
<glyph unicode="n" horiz-adv-x="1300" d="M41 0v76l178 59v717l-174 80v45l336 92v-221l219 201q76 20 150 20q158 0 250 -100.5t92 -280.5v-577l178 -27v-84h-535v76l178 59v520q0 124 -60 186t-155 62q-75 0 -156 -39t-145 -108v-645l178 -27v-84h-534z" />
<glyph unicode="o" horiz-adv-x="1169" d="M72 518q0 153 64 278.5t183.5 199t272.5 73.5q114 0 210 -43t160 -116.5t100 -173t36 -212.5q0 -154 -64.5 -279t-184 -197.5t-271.5 -72.5q-115 0 -211 43t-160 116.5t-99.5 172.5t-35.5 211zM283 547q0 -127 36 -233.5t109.5 -173t171.5 -66.5q133 0 210 117.5 t77 302.5q0 127 -36.5 233.5t-110 173t-171.5 66.5q-133 0 -209.5 -117.5t-76.5 -302.5z" />
<glyph unicode="p" horiz-adv-x="1216" d="M31 -428l178 59v1221l-174 80v45l336 92v-201l243 189q46 12 91 12q136 0 237 -69t152 -183.5t51 -257.5q0 -106 -30.5 -198.5t-82.5 -159t-119.5 -114.5t-143 -71.5t-151.5 -23.5q-65 0 -129 15t-102 40v-440l219 -35v-76h-575v76zM387 250q38 -68 104.5 -108t147.5 -40 q136 0 223.5 107t87.5 297q0 189 -86 293t-211 104q-77 0 -145.5 -39t-120.5 -98v-516z" />
<glyph unicode="q" horiz-adv-x="1167" d="M72 483q0 136 45 249t120.5 185.5t173 112t205.5 39.5q100 0 224 -43l149 41v-1460l178 -27v-84h-575v62l219 73v547l-231 -176q-52 -10 -95 -10q-197 0 -305 136.5t-108 354.5zM240 555q0 -175 85 -282t212 -107q74 0 150.5 36t123.5 93v563q-111 92 -244 92 q-153 0 -240 -110t-87 -285z" />
<glyph unicode="r" horiz-adv-x="868" d="M61 0v76l179 59v717l-174 80v45l335 92v-264l242 254q132 0 205 -33l-55 -213q-73 31 -146 31q-135 0 -229 -133v-600l178 -27v-84h-535z" />
<glyph unicode="s" horiz-adv-x="890" d="M82 86l33 283h86q0 -147 75.5 -224t178.5 -77q79 0 134.5 46t55.5 126q0 41 -16 74t-48.5 58.5t-65.5 42.5t-83 38q-133 53 -174 77q-133 75 -152 199q-4 23 -4 49q0 142 102 216.5t261 74.5q162 0 319 -74l-71 -217h-82v15q0 89 -57 135.5t-134 46.5q-70 0 -121 -42.5 t-51 -115.5q0 -35 16.5 -66t31 -48.5t59 -41t58 -29t70.5 -27.5q11 -5 17 -7q56 -21 88.5 -35t78 -41.5t70.5 -56t43.5 -72.5t18.5 -98q0 -147 -114.5 -233.5t-276.5 -86.5q-184 0 -346 111z" />
<glyph unicode="t" horiz-adv-x="749" d="M-10 942v78l229 63v217l178 52v-303h308v-117h-308v-610q0 -116 47 -161.5t125 -45.5q51 0 150 22v-88q-44 -33 -106.5 -53.5t-125.5 -20.5q-54 0 -100 15.5t-85 48.5t-61 92t-22 139v672h-229z" />
<glyph unicode="u" horiz-adv-x="1247" d="M31 969v80h356v-658q0 -123 54.5 -184.5t142.5 -61.5q68 0 144 38.5t142 105.5v629l-176 51v80h355v-897l168 -41v-72l-316 -64v232l-225 -209q-71 -23 -131 -23q-172 0 -254 106.5t-82 287.5v549z" />
<glyph unicode="v" horiz-adv-x="1165" d="M-20 977v72h516v-80l-154 -23l295 -721l246 693l-176 59v72h479v-80l-176 -27l-336 -924l-121 -34l-397 934z" />
<glyph unicode="w" horiz-adv-x="1685" d="M-20 977v72h495v-80l-151 -23l225 -690l246 793h106l285 -773l200 642l-176 59v72h496v-80l-176 -27l-309 -926l-111 -32l-283 776l-233 -740l-125 -36l-313 934z" />
<glyph unicode="x" horiz-adv-x="1245" d="M10 0v80l176 26l328 410l-326 402l-178 59v72h539v-80l-156 -23l262 -321l226 290l-166 62v72h506v-80l-177 -27l-317 -405l330 -406l178 -59v-72h-539v80l152 24l-262 324l-232 -297l176 -59v-72h-520z" />
<glyph unicode="y" horiz-adv-x="1169" d="M-20 977v72h530v-80l-154 -23l256 -723l265 695l-177 59v72h490v-80l-176 -27l-557 -1419l-197 78l277 389l-381 928z" />
<glyph unicode="z" horiz-adv-x="1050" d="M72 80l624 874h-405l-137 -274h-74l20 369h815l11 -80l-625 -863h408l200 277h70l-57 -383h-840z" />
<glyph unicode="{" horiz-adv-x="759" d="M41 647v98q133 30 184 89t51 192v356q0 203 108 295t316 97l19 -105q-149 -8 -226 -69.5t-77 -213.5v-411q0 -135 -54 -196.5t-174 -82.5q120 -21 174 -82t54 -196v-412q0 -79 21 -133.5t63.5 -85.5t94.5 -45t124 -18l-19 -105q-209 5 -316.5 96.5t-107.5 294.5v357 q0 133 -51 191.5t-184 88.5z" />
<glyph unicode="|" horiz-adv-x="428" d="M143 -246v2028h142v-2028h-142z" />
<glyph unicode="}" horiz-adv-x="759" d="M41 -276q72 4 124 18t94.5 45t63.5 85.5t21 133.5v412q0 135 53.5 196t173.5 82q-120 21 -173.5 82.5t-53.5 196.5v411q0 152 -77 213.5t-226 69.5l18 105q208 -5 316 -97t108 -295v-356q0 -133 51.5 -192t184.5 -89v-98q-133 -30 -184.5 -88.5t-51.5 -191.5v-357 q0 -203 -107.5 -294.5t-316.5 -96.5z" />
<glyph unicode="~" horiz-adv-x="1112" d="M102 573q21 159 96 243.5t179 84.5q54 0 112 -24.5t100 -53.5t93.5 -53.5t93.5 -24.5q56 0 103 39.5t71 126.5l60 -37q-15 -152 -84.5 -235.5t-173.5 -83.5q-53 0 -111.5 24.5t-100.5 53.5t-91.5 53.5t-86.5 24.5q-135 0 -206 -179z" />
<glyph unicode="&#xa1;" horiz-adv-x="540" d="M143 940q0 58 34.5 93.5t90.5 35.5q58 0 93.5 -35.5t35.5 -93.5t-35.5 -93.5t-93.5 -35.5q-56 0 -90.5 35.5t-34.5 93.5zM147 -477l74 1102h94l74 -1102h-242z" />
<glyph unicode="&#xa2;" horiz-adv-x="1310" d="M176 512q0 100 29 192t86 169.5t151 129t213 62.5l17 231h90l-17 -227q197 -6 363 -100l-96 -293h-82q10 120 -43 193.5t-148 91.5l-55 -814q36 -4 57 -4q230 0 353 213l41 -63q-63 -154 -181.5 -235t-281.5 -83l-17 -254h-90l19 261q-99 15 -178.5 65t-128.5 123.5 t-75 160.5t-26 181zM350 580q0 -153 67 -259t179 -151l53 795q-127 -10 -213 -110t-86 -275z" />
<glyph unicode="&#xa3;" horiz-adv-x="1310" d="M72 164q0 86 57 143.5t137 57.5q88 0 201 -76q33 103 33 373v157h-203v103h203v198q0 105 33 186.5t90 130.5t129.5 74t156.5 25q162 0 293 -96l-74 -221h-86q0 100 -56.5 160.5t-137.5 60.5q-65 0 -117.5 -64t-52.5 -186v-268h319v-103h-319v-119q0 -303 -121 -469 q50 -29 155 -53t206 -24q84 0 161 61.5t117 157.5l43 -64q-18 -171 -110 -252.5t-220 -81.5q-81 0 -175 36.5t-224 115.5q-86 -152 -234 -152q-94 0 -149 53.5t-55 135.5zM182 166q0 -38 26.5 -63t65.5 -25q42 0 77.5 29t54.5 79q-81 62 -136 62q-40 0 -64 -23t-24 -59z" />
<glyph unicode="&#xa4;" horiz-adv-x="1310" d="M133 74l203 252q-111 124 -111 292q0 170 117 297l-209 261l96 73l209 -258q99 58 217 58t217 -58l209 258l97 -73l-209 -258q118 -124 118 -300q0 -170 -112 -292l203 -252l-97 -74l-200 248q-100 -62 -226 -62q-120 0 -225 62l-201 -248zM362 618q0 -124 85 -209 t208 -85t208 85t85 209q0 123 -85 208t-208 85t-208 -85t-85 -208z" />
<glyph unicode="&#xa5;" horiz-adv-x="1310" d="M10 1462v74h563v-82l-188 -33l320 -542l307 514l-189 69v74h477v-82l-147 -33l-383 -643v-59h336v-92h-336v-195h336v-92h-336v-225l209 -33v-82h-621v74l209 69v197h-340v92h340v195h-340v92h340v59l-389 615z" />
<glyph unicode="&#xa6;" horiz-adv-x="428" d="M143 -246v854h142v-854h-142zM143 928v854h142v-854h-142z" />
<glyph unicode="&#xa7;" horiz-adv-x="1030" d="M82 86l33 283h90q-4 -71 22.5 -127t72.5 -89.5t101 -51t113 -17.5q103 0 176.5 49t73.5 129q0 63 -57.5 100t-221.5 93q-45 15 -65.5 22t-67 26.5t-71.5 34.5t-60 42t-53.5 54.5t-32.5 66t-14 81.5q0 163 178 228q-170 73 -170 250q0 145 110 229t271 84 q97 0 195.5 -33.5t179.5 -97.5l-70 -215h-86q9 73 -24.5 126t-85.5 76t-113 23q-83 0 -144 -43.5t-61 -116.5q0 -35 16.5 -63.5t39.5 -47t66.5 -38t76.5 -30.5t92.5 -29.5t93.5 -30.5q138 -48 200 -107.5t62 -161.5q0 -103 -53.5 -163.5t-130.5 -75.5q92 -39 135 -108.5 t43 -153.5q0 -151 -123 -236.5t-311 -85.5q-109 0 -221 31.5t-205 93.5zM289 834q0 -22 6 -41.5t15 -35t26.5 -31t32.5 -26.5t41 -23t44.5 -20t51 -19t52 -16.5t55.5 -16.5t55 -17q52 18 77 47.5t25 79.5q0 28 -8.5 51t-21.5 40.5t-36.5 33.5t-46 27.5t-58 24.5t-64 22.5 t-72.5 24t-76 26.5q-45 -14 -71.5 -48t-26.5 -83z" />
<glyph unicode="&#xa8;" horiz-adv-x="598" d="M0 1323q0 54 31 85.5t82 31.5t81.5 -31.5t30.5 -85.5q0 -52 -30.5 -83.5t-81.5 -31.5t-82 31.5t-31 83.5zM373 1323q0 54 30 85.5t80 31.5q53 0 84 -31.5t31 -85.5q0 -53 -31 -84t-84 -31q-50 0 -80 31.5t-30 83.5z" />
<glyph unicode="&#xa9;" horiz-adv-x="1718" d="M72 768q0 229 104.5 411t284 282t399.5 100t399 -100t283.5 -282t104.5 -411t-104.5 -411t-283.5 -282t-399 -100t-399.5 100t-284 282t-104.5 411zM174 768q0 -153 54 -285t146 -222.5t218 -141.5t268 -51t268 51.5t218 142t145 222t53 284.5q0 152 -53 283.5 t-145 222.5t-218 142.5t-268 51.5t-268 -51.5t-218 -142t-146 -222t-54 -284.5zM412 768q0 115 41 209.5t108.5 153.5t152 90.5t175.5 31.5q200 0 334 -131l-88 -266h-74q4 36 4 51q0 120 -64.5 187t-156.5 67q-50 0 -98 -22t-87.5 -62.5t-63.5 -107t-24 -148.5 q0 -83 27.5 -152t73 -113.5t103.5 -68.5t120 -24q97 0 183 56t134 159l39 -60q-52 -154 -163 -238.5t-242 -84.5q-82 0 -159.5 32t-139 90.5t-98.5 149.5t-37 201z" />
<glyph unicode="&#xaa;" horiz-adv-x="962" d="M82 901q0 -96 67 -160.5t175 -64.5q72 0 125 24l151 142v-13q0 -75 41 -114t102 -39q53 0 88 27t50 69l-23 64q-33 -41 -76 -41q-27 0 -41 16t-17 35.5t-3 52.5v379q0 129 -75.5 193.5t-194.5 64.5q-87 0 -178 -33t-154 -92l78 -174h71q-2 8 -2 27q0 79 51 127.5 t117 48.5q58 0 96.5 -39t38.5 -117v-92l-250 -53q-122 -26 -179.5 -90t-57.5 -148zM252 913q0 105 145 140l172 41v-185q-122 -112 -207 -112q-55 0 -82.5 34t-27.5 82z" />
<glyph unicode="&#xab;" horiz-adv-x="864" d="M31 594v65l315 314l57 -64l-170 -282l170 -283l-57 -63zM420 594v65l315 314l58 -64l-170 -282l170 -283l-58 -63z" />
<glyph unicode="&#xac;" horiz-adv-x="1024" d="M82 537v120h860v-428h-125v308h-735z" />
<glyph unicode="&#xad;" horiz-adv-x="835" d="M102 567v170h631v-170h-631z" />
<glyph unicode="&#xae;" horiz-adv-x="1103" d="M82 1087q0 207 135.5 340.5t335.5 133.5t334.5 -133.5t134.5 -340.5t-134.5 -340t-334.5 -133t-335.5 133t-135.5 340zM152 1087q0 -180 115.5 -294.5t285.5 -114.5t284.5 114.5t114.5 294.5q0 179 -115 294.5t-284 115.5q-170 0 -285.5 -115.5t-115.5 -294.5zM328 858 v47l65 27v368l-65 11v51h264q81 0 127.5 -41.5t46.5 -99.5q0 -43 -28.5 -83t-80.5 -61l140 -174v-45h-99l-151 203h-49v-139l61 -13v-51h-231zM498 1124h55q45 0 72.5 27.5t27.5 62.5q0 34 -26 59t-76 25h-53v-174z" />
<glyph unicode="&#xaf;" horiz-adv-x="653" d="M0 1208v138h653v-138h-653z" />
<glyph unicode="&#xb0;" horiz-adv-x="911" d="M82 1292q0 165 106 269t263 104q163 0 270.5 -104t107.5 -269q0 -163 -108 -268.5t-270 -105.5q-156 0 -262.5 106t-106.5 268zM246 1294q0 -102 57.5 -167.5t151.5 -65.5q92 0 151.5 66t59.5 167q0 100 -59.5 165t-151.5 65q-94 0 -151.5 -64.5t-57.5 -165.5z" />
<glyph unicode="&#xb1;" horiz-adv-x="1024" d="M82 262v121h860v-121h-860zM82 932v121h369v391h124v-391h367v-121h-367v-387h-124v387h-369z" />
<glyph unicode="&#xb4;" horiz-adv-x="421" d="M0 1208l231 381l191 -110l-334 -271h-88z" />
<glyph unicode="&#xb6;" horiz-adv-x="1374" d="M61 1069q0 95 29 178.5t83 148.5t140 102.5t193 37.5h807v-82l-168 -33v-1708h-129v1719h-127v-1719h-129v1719h-160q-77 0 -139.5 -33.5t-101.5 -88.5t-59.5 -122.5t-20.5 -138.5q0 -103 24.5 -172t74 -106t110.5 -51.5t147 -14.5v-87q-46 -6 -92 -6q-209 0 -345.5 121 t-136.5 336z" />
<glyph unicode="&#xb7;" horiz-adv-x="458" d="M102 725q0 58 34.5 93.5t90.5 35.5q59 0 94 -35t35 -94t-35 -94t-94 -35q-56 0 -90.5 35.5t-34.5 93.5z" />
<glyph unicode="&#xb8;" horiz-adv-x="401" d="M0 -301l29 117q27 -51 71 -86t101 -35q41 0 65.5 17.5t24.5 43.5q0 37 -52.5 68t-140.5 31l60 170h53v-123q41 0 82 -12.5t74.5 -45.5t33.5 -80q0 -75 -57 -120t-143 -45q-74 0 -126 31.5t-75 68.5z" />
<glyph unicode="&#xba;" horiz-adv-x="970" d="M82 1102q0 185 113.5 309.5t296.5 124.5q119 0 210.5 -58t139 -155t47.5 -215q0 -186 -114 -309t-296 -123q-120 0 -211.5 58t-138.5 154.5t-47 213.5zM258 1126q0 -147 64.5 -247.5t175.5 -100.5q101 0 158 85t57 222q0 148 -64.5 249.5t-175.5 101.5 q-100 0 -157.5 -86.5t-57.5 -223.5z" />
<glyph unicode="&#xbb;" horiz-adv-x="864" d="M84 344l170 283l-170 282l57 64l316 -314v-65l-316 -313zM473 344l170 283l-170 282l57 64l316 -314v-65l-316 -313z" />
<glyph unicode="&#xbc;" horiz-adv-x="2048" d="M96 1339v74q211 11 385 121v-844l209 -24v-66h-559v57l211 50v632h-246zM492 0l976 1536h136l-977 -1536h-135zM1243 295l443 620h120v-573h158v-111h-158v-231h-129v233h-428zM1382 342h295v410z" />
<glyph unicode="&#xbd;" horiz-adv-x="2048" d="M106 1339v74q212 11 386 121v-844l208 -24v-66h-559v57l211 50v632h-246zM502 0l977 1536h135l-977 -1536h-135zM1307 90l104 111q31 32 85.5 86t82.5 83t65.5 72.5t56 73.5t32.5 67t14 72q0 67 -41 104.5t-102 37.5q-74 0 -141 -51.5t-89 -139.5l-61 53 q18 129 112.5 202t210.5 73q106 0 182 -63t76 -175q0 -51 -16.5 -97t-57.5 -100t-87.5 -104.5t-127.5 -133.5q-13 -12 -20 -19.5t-18 -19t-21 -21.5l-76 -78h336l82 121h60l-29 -244h-604z" />
<glyph unicode="&#xbe;" horiz-adv-x="2048" d="M80 668l47 161h70q6 -79 56 -119t118 -40q74 0 130 44t56 115q0 84 -80 136t-211 49v102q109 19 173.5 74t64.5 115q0 48 -38.5 84t-100.5 36q-60 0 -119 -35.5t-96 -95.5l-60 52q41 87 126 138.5t187 51.5q115 0 182.5 -61.5t67.5 -145.5q0 -72 -50 -131.5t-138 -85.5 q116 -21 174.5 -89.5t58.5 -164.5q0 -86 -47 -149t-121.5 -93t-164.5 -30q-160 0 -285 82zM522 0l977 1536h135l-977 -1536h-135zM1176 295l442 620h121v-573h157v-111h-157v-231h-129v233h-428zM1315 342h295v410z" />
<glyph unicode="&#xbf;" horiz-adv-x="956" d="M102 -174q0 34 6.5 66t13.5 55.5t25.5 51.5t28.5 43t37.5 42t37.5 36t43.5 37.5t41.5 35.5q62 54 94.5 93.5t56.5 100t37 152.5l13 86h77l29 -140q8 -41 8 -84q0 -42 -11.5 -81t-26.5 -66.5t-45 -61.5t-50.5 -53.5t-60.5 -54.5q-47 -41 -68 -61t-49.5 -55.5t-39.5 -71.5 t-11 -80q0 -106 64 -161.5t155 -55.5q99 0 173.5 63t74.5 176q0 36 -13 86h82l101 -309q-89 -55 -199 -86t-221 -31q-83 0 -153.5 18.5t-128 56.5t-90 103t-32.5 150zM438 938q0 59 36.5 95t94.5 36q57 0 90 -35t33 -92q0 -60 -35 -95.5t-92 -35.5t-92 35t-35 92z" />
<glyph unicode="&#xc0;" horiz-adv-x="1662" d="M10 0v74l209 69l504 1246l-31 73v74h180l592 -1425l189 -29v-82h-637v74l209 69l-135 336h-601l-143 -364l209 -33v-82h-545zM422 1913l160 151l303 -360h-109zM532 590h512l-258 647z" />
<glyph unicode="&#xc1;" horiz-adv-x="1662" d="M10 0v74l209 69l504 1246l-31 73v74h180l592 -1425l189 -29v-82h-637v74l209 69l-135 336h-601l-143 -364l209 -33v-82h-545zM532 590h512l-258 647zM719 1704l303 360l160 -151l-355 -209h-108z" />
<glyph unicode="&#xc2;" horiz-adv-x="1662" d="M10 0v74l209 69l504 1246l-31 73v74h180l592 -1425l189 -29v-82h-637v74l209 69l-135 336h-601l-143 -364l209 -33v-82h-545zM489 1704l252 276h125l252 -276h-129l-186 125l-185 -125h-129zM532 590h512l-258 647z" />
<glyph unicode="&#xc3;" horiz-adv-x="1662" d="M10 0v74l209 69l504 1246l-31 73v74h180l592 -1425l189 -29v-82h-637v74l209 69l-135 336h-601l-143 -364l209 -33v-82h-545zM463 1712q15 117 70.5 191.5t128.5 74.5q36 0 74.5 -19.5t66.5 -43t61 -43t58 -19.5q62 0 106 140l82 -35q-11 -111 -62 -182.5t-124 -71.5 q-37 0 -76 19.5t-66.5 43t-59.5 43t-56 19.5q-58 0 -105 -117h-98zM532 590h512l-258 647z" />
<glyph unicode="&#xc4;" horiz-adv-x="1662" d="M10 0v74l209 69l504 1246l-31 73v74h180l592 -1425l189 -29v-82h-637v74l209 69l-135 336h-601l-143 -364l209 -33v-82h-545zM479 1819q0 54 31 85t82 31t82 -31t31 -85q0 -52 -31 -83.5t-82 -31.5t-82 31.5t-31 83.5zM532 590h512l-258 647zM893 1819q0 53 30.5 84.5 t80.5 31.5q53 0 83.5 -31t30.5 -85q0 -53 -31 -84t-83 -31q-50 0 -80.5 31.5t-30.5 83.5z" />
<glyph unicode="&#xc5;" horiz-adv-x="1662" d="M10 0v74l209 69l504 1246l-31 73v74h180l592 -1425l189 -29v-82h-637v74l209 69l-135 336h-601l-143 -364l209 -33v-82h-545zM532 590h512l-258 647zM582 1911q0 91 57.5 148t144.5 57q92 0 150.5 -57t58.5 -148t-59 -149t-150 -58q-87 0 -144.5 58.5t-57.5 148.5z M686 1911q0 -46 28 -77.5t72 -31.5t73.5 31.5t29.5 77.5q0 44 -29.5 74t-73.5 30t-72 -29.5t-28 -74.5z" />
<glyph unicode="&#xc6;" horiz-adv-x="2312" d="M10 0v74l209 69l760 1393h1108l22 -387h-67l-191 283h-487v-590h555v-127h-555v-600h557l211 315h68l-52 -430h-1204v74l209 69v572h-471l-322 -600l209 -33v-82h-559zM750 842h401v571h-94z" />
<glyph unicode="&#xc7;" horiz-adv-x="1503" d="M72 752q0 186 60 342t162.5 260t238 161.5t286.5 57.5q281 0 533 -187l-152 -380h-86q8 58 8 81q0 163 -102.5 256t-249.5 93q-72 0 -143 -22.5t-136.5 -70.5t-115 -117t-79.5 -169t-30 -219q0 -104 22 -202t67 -184t108.5 -150t152.5 -101t193 -37q166 0 305.5 93.5 t226.5 274.5l60 -73q-65 -232 -219.5 -357.5t-352.5 -138.5v-53q43 0 86 -12.5t78 -47t35 -83.5q0 -78 -60 -125.5t-149 -47.5q-77 0 -132 33.5t-77 71.5l31 121q27 -52 72.5 -88.5t105.5 -36.5q43 0 68.5 18t25.5 45q0 39 -54.5 71t-145.5 32l35 100q-103 5 -200 40 t-184 101.5t-151.5 158t-102.5 218t-38 273.5z" />
<glyph unicode="&#xc8;" horiz-adv-x="1429" d="M61 0v74l209 69v1278l-209 33v82h1143l23 -387h-68l-190 283h-488v-590h555v-127h-555v-600h557l211 315h68l-51 -430h-1205zM377 1913l160 151l303 -360h-109z" />
<glyph unicode="&#xc9;" horiz-adv-x="1429" d="M61 0v74l209 69v1278l-209 33v82h1143l23 -387h-68l-190 283h-488v-590h555v-127h-555v-600h557l211 315h68l-51 -430h-1205zM584 1704l303 360l160 -151l-355 -209h-108z" />
<glyph unicode="&#xca;" horiz-adv-x="1429" d="M61 0v74l209 69v1278l-209 33v82h1143l23 -387h-68l-190 283h-488v-590h555v-127h-555v-600h557l211 315h68l-51 -430h-1205zM365 1704l251 276h125l252 -276h-129l-186 125l-184 -125h-129z" />
<glyph unicode="&#xcb;" horiz-adv-x="1429" d="M61 0v74l209 69v1278l-209 33v82h1143l23 -387h-68l-190 283h-488v-590h555v-127h-555v-600h557l211 315h68l-51 -430h-1205zM362 1819q0 54 31 85t82 31t82 -31t31 -85q0 -52 -31 -83.5t-82 -31.5t-82 31.5t-31 83.5zM776 1819q0 53 30.5 84.5t80.5 31.5q53 0 83.5 -31 t30.5 -85q0 -53 -31 -84t-83 -31q-50 0 -80.5 31.5t-30.5 83.5z" />
<glyph unicode="&#xcc;" horiz-adv-x="796" d="M84 0v74l209 69v1278l-209 33v82h629v-74l-209 -69v-1278l209 -33v-82h-629zM84 1913l160 151l303 -360h-109z" />
<glyph unicode="&#xcd;" horiz-adv-x="792" d="M82 0v74l209 69v1278l-209 33v82h629v-74l-209 -69v-1278l209 -33v-82h-629zM287 1704l303 360l160 -151l-355 -209h-108z" />
<glyph unicode="&#xce;" horiz-adv-x="796" d="M84 0v74l209 69v1278l-209 33v82h629v-74l-209 -69v-1278l209 -33v-82h-629zM84 1704l252 276h125l252 -276h-129l-187 125l-184 -125h-129z" />
<glyph unicode="&#xcf;" horiz-adv-x="796" d="M78 1819q0 54 30.5 85t81.5 31t82 -31t31 -85q0 -52 -31 -83.5t-82 -31.5t-81.5 31.5t-30.5 83.5zM84 0v74l209 69v1278l-209 33v82h629v-74l-209 -69v-1278l209 -33v-82h-629zM492 1819q0 54 30 85t80 31q53 0 84 -31t31 -85q0 -53 -31.5 -84t-83.5 -31q-50 0 -80 31.5 t-30 83.5z" />
<glyph unicode="&#xd0;" horiz-adv-x="1568" d="M61 0v74l209 69v559h-209v138h209v581l-209 33v82h631q158 0 291 -40.5t226.5 -110t159.5 -163t97 -200t31 -219.5q0 -120 -34.5 -235.5t-105 -218t-169 -180.5t-237.5 -123.5t-300 -45.5h-590zM481 115h189q118 0 218 34.5t170 93.5t119 138.5t72 169.5t23 186 q0 103 -26.5 202.5t-81 189t-131 157t-184 107t-231.5 39.5h-137v-592h357v-138h-357v-587z" />
<glyph unicode="&#xd1;" horiz-adv-x="1638" d="M61 0v74l209 69v1278l-209 33v82h431l768 -1174v1059l-209 33v82h546v-74l-206 -69v-1377l-119 -32l-871 1341v-1210l209 -33v-82h-549zM516 1712q15 117 70.5 191.5t128.5 74.5q36 0 74.5 -19.5t66.5 -43t61 -43t58 -19.5q62 0 106 140l82 -35q-11 -111 -62 -182.5 t-124 -71.5q-37 0 -76 19.5t-66.5 43t-59.5 43t-56 19.5q-58 0 -105 -117h-98z" />
<glyph unicode="&#xd2;" horiz-adv-x="1673" d="M72 774q0 226 97 408.5t270.5 286.5t391.5 104q165 0 309 -63t245 -171.5t159 -259t58 -319.5q0 -226 -98 -408.5t-272.5 -286.5t-391.5 -104q-166 0 -310 63t-244 172t-157 258.5t-57 319.5zM303 803q0 -206 70 -370t199 -256.5t294 -92.5q233 0 368.5 180t135.5 467 q0 206 -69.5 370t-198 257.5t-293.5 93.5q-155 0 -271 -84t-175.5 -230t-59.5 -335zM449 1913l159 151l303 -360h-108z" />
<glyph unicode="&#xd3;" horiz-adv-x="1673" d="M72 774q0 226 97 408.5t270.5 286.5t391.5 104q165 0 309 -63t245 -171.5t159 -259t58 -319.5q0 -226 -98 -408.5t-272.5 -286.5t-391.5 -104q-166 0 -310 63t-244 172t-157 258.5t-57 319.5zM303 803q0 -206 70 -370t199 -256.5t294 -92.5q233 0 368.5 180t135.5 467 q0 206 -69.5 370t-198 257.5t-293.5 93.5q-155 0 -271 -84t-175.5 -230t-59.5 -335zM748 1704l303 360l159 -151l-354 -209h-108z" />
<glyph unicode="&#xd4;" horiz-adv-x="1673" d="M72 774q0 226 97 408.5t270.5 286.5t391.5 104q165 0 309 -63t245 -171.5t159 -259t58 -319.5q0 -226 -98 -408.5t-272.5 -286.5t-391.5 -104q-166 0 -310 63t-244 172t-157 258.5t-57 319.5zM303 803q0 -206 70 -370t199 -256.5t294 -92.5q233 0 368.5 180t135.5 467 q0 206 -69.5 370t-198 257.5t-293.5 93.5q-155 0 -271 -84t-175.5 -230t-59.5 -335zM512 1704l252 276h125l252 -276h-129l-187 125l-184 -125h-129z" />
<glyph unicode="&#xd5;" horiz-adv-x="1673" d="M72 774q0 226 97 408.5t270.5 286.5t391.5 104q165 0 309 -63t245 -171.5t159 -259t58 -319.5q0 -226 -98 -408.5t-272.5 -286.5t-391.5 -104q-166 0 -310 63t-244 172t-157 258.5t-57 319.5zM303 803q0 -206 70 -370t199 -256.5t294 -92.5q233 0 368.5 180t135.5 467 q0 206 -69.5 370t-198 257.5t-293.5 93.5q-155 0 -271 -84t-175.5 -230t-59.5 -335zM510 1712q15 117 70.5 191.5t128.5 74.5q36 0 74.5 -19.5t66.5 -43t61 -43t58 -19.5q62 0 106 140l82 -35q-11 -111 -62 -182.5t-124 -71.5q-37 0 -76 19.5t-66.5 43t-59.5 43t-56 19.5 q-58 0 -105 -117h-98z" />
<glyph unicode="&#xd6;" horiz-adv-x="1673" d="M72 774q0 226 97 408.5t270.5 286.5t391.5 104q165 0 309 -63t245 -171.5t159 -259t58 -319.5q0 -226 -98 -408.5t-272.5 -286.5t-391.5 -104q-166 0 -310 63t-244 172t-157 258.5t-57 319.5zM303 803q0 -206 70 -370t199 -256.5t294 -92.5q233 0 368.5 180t135.5 467 q0 206 -69.5 370t-198 257.5t-293.5 93.5q-155 0 -271 -84t-175.5 -230t-59.5 -335zM514 1819q0 54 31 85t82 31t81.5 -31t30.5 -85q0 -52 -30.5 -83.5t-81.5 -31.5t-82 31.5t-31 83.5zM928 1819q0 54 30 85t80 31q53 0 84 -31t31 -85q0 -53 -31.5 -84t-83.5 -31 q-50 0 -80 31.5t-30 83.5z" />
<glyph unicode="&#xd7;" horiz-adv-x="1024" d="M102 299l324 324l-324 323l86 86l324 -323l324 323l86 -86l-324 -323l324 -324l-86 -86l-324 324l-324 -324z" />
<glyph unicode="&#xd8;" horiz-adv-x="1673" d="M72 774q0 226 97 408.5t270.5 286.5t391.5 104q113 0 222 -31l69 195h109l-84 -230q209 -93 332 -293.5t123 -453.5q0 -226 -98 -408.5t-272.5 -286.5t-391.5 -104q-130 0 -242 37l-70 -195h-108l84 232q-199 97 -315.5 294.5t-116.5 444.5zM303 803q0 -201 67.5 -362.5 t188.5 -254.5l447 1227q-95 39 -197 39q-155 0 -271 -84t-175.5 -230t-59.5 -335zM647 133q98 -49 219 -49q233 0 368.5 180t135.5 467q0 209 -72.5 375t-201.5 258z" />
<glyph unicode="&#xd9;" horiz-adv-x="1667" d="M31 1454v82h628v-74l-208 -69v-822q0 -116 36.5 -208t98 -148t136.5 -84.5t157 -28.5q80 0 154.5 27t134 77.5t95 129t35.5 174.5v911l-208 33v82h546v-74l-206 -69v-883q0 -128 -50.5 -234t-134.5 -173.5t-189 -104t-218 -37.5q-91 -1 -177 22t-162.5 72t-134 119.5 t-91 172.5t-33.5 224v850zM489 1913l160 151l303 -360h-108z" />
<glyph unicode="&#xda;" horiz-adv-x="1667" d="M31 1454v82h628v-74l-208 -69v-822q0 -116 36.5 -208t98 -148t136.5 -84.5t157 -28.5q80 0 154.5 27t134 77.5t95 129t35.5 174.5v911l-208 33v82h546v-74l-206 -69v-883q0 -128 -50.5 -234t-134.5 -173.5t-189 -104t-218 -37.5q-91 -1 -177 22t-162.5 72t-134 119.5 t-91 172.5t-33.5 224v850zM745 1704l304 360l159 -151l-354 -209h-109z" />
<glyph unicode="&#xdb;" horiz-adv-x="1667" d="M31 1454v82h628v-74l-208 -69v-822q0 -116 36.5 -208t98 -148t136.5 -84.5t157 -28.5q80 0 154.5 27t134 77.5t95 129t35.5 174.5v911l-208 33v82h546v-74l-206 -69v-883q0 -128 -50.5 -234t-134.5 -173.5t-189 -104t-218 -37.5q-91 -1 -177 22t-162.5 72t-134 119.5 t-91 172.5t-33.5 224v850zM530 1704l252 276h125l252 -276h-129l-186 125l-185 -125h-129z" />
<glyph unicode="&#xdc;" horiz-adv-x="1667" d="M31 1454v82h628v-74l-208 -69v-822q0 -116 36.5 -208t98 -148t136.5 -84.5t157 -28.5q80 0 154.5 27t134 77.5t95 129t35.5 174.5v911l-208 33v82h546v-74l-206 -69v-883q0 -128 -50.5 -234t-134.5 -173.5t-189 -104t-218 -37.5q-91 -1 -177 22t-162.5 72t-134 119.5 t-91 172.5t-33.5 224v850zM541 1819q0 54 30.5 85t81.5 31t82 -31t31 -85q0 -52 -31 -83.5t-82 -31.5t-81.5 31.5t-30.5 83.5zM954 1819q0 53 30.5 84.5t80.5 31.5q53 0 84 -31t31 -85q0 -53 -31 -84t-84 -31q-50 0 -80.5 31.5t-30.5 83.5z" />
<glyph unicode="&#xdd;" horiz-adv-x="1511" d="M20 1462v74h639v-82l-229 -33l371 -716l356 688l-229 69v74h563v-82l-188 -33l-429 -821v-485l209 -33v-82h-628v74l209 69v451l-455 799zM676 1704l303 360l160 -151l-355 -209h-108z" />
<glyph unicode="&#xde;" horiz-adv-x="1333" d="M61 0v74l209 69v1278l-209 33v82h629v-74l-209 -69v-207h318q112 0 203 -36.5t149 -98.5t89.5 -141t31.5 -167q0 -72 -20 -140.5t-64 -130.5t-106 -108.5t-152.5 -74t-198.5 -27.5q-51 0 -106 6v84q67 0 124 8.5t114 33t97.5 62.5t65.5 102.5t25 148.5q0 164 -89 269 t-255 105h-226v-966l209 -33v-82h-629z" />
<glyph unicode="&#xdf;" horiz-adv-x="1304" d="M41 0v74l174 59v1026q0 96 27.5 175t73.5 132t107.5 89t129 52.5t139.5 16.5q107 0 198.5 -34t151.5 -105.5t60 -167.5q0 -72 -32 -147t-107 -147t-181 -112q216 -66 333.5 -211t117.5 -325q0 -126 -59.5 -219t-153.5 -137t-209 -44q-145 0 -279 70v209h86 q21 -90 79 -138t130 -48q88 0 154 69.5t66 190.5q0 105 -51.5 202.5t-162 176t-262.5 106.5v88q173 51 257.5 152.5t84.5 218.5q0 111 -68 179.5t-167 68.5q-52 0 -101 -20.5t-91 -60t-67.5 -107.5t-25.5 -154v-1178h-352z" />
<glyph unicode="&#xe0;" horiz-adv-x="1077" d="M72 266q0 100 69.5 180t210.5 109l338 70v98q0 135 -55.5 194.5t-140.5 59.5q-98 0 -152.5 -71t-54.5 -175q0 -21 2 -41h-82l-98 221q86 75 195.5 116.5t215.5 41.5q96 0 172 -31.5t124 -101t48 -168.5v-547q0 -59 16.5 -91t57.5 -32q58 0 106 64l23 -64 q-17 -50 -62 -86.5t-110 -36.5q-72 0 -120 52t-48 174l-209 -195q-70 -31 -156 -31q-127 0 -208.5 87.5t-81.5 203.5zM199 1479l190 110l232 -381h-89zM252 281q0 -64 43 -110t113 -46q122 0 282 147v258l-239 -53q-101 -23 -150 -77.5t-49 -118.5z" />
<glyph unicode="&#xe1;" horiz-adv-x="1077" d="M72 266q0 100 69.5 180t210.5 109l338 70v98q0 135 -55.5 194.5t-140.5 59.5q-98 0 -152.5 -71t-54.5 -175q0 -21 2 -41h-82l-98 221q86 75 195.5 116.5t215.5 41.5q96 0 172 -31.5t124 -101t48 -168.5v-547q0 -59 16.5 -91t57.5 -32q58 0 106 64l23 -64 q-17 -50 -62 -86.5t-110 -36.5q-72 0 -120 52t-48 174l-209 -195q-70 -31 -156 -31q-127 0 -208.5 87.5t-81.5 203.5zM252 281q0 -64 43 -110t113 -46q122 0 282 147v258l-239 -53q-101 -23 -150 -77.5t-49 -118.5zM428 1208l231 381l191 -110l-334 -271h-88z" />
<glyph unicode="&#xe2;" horiz-adv-x="1077" d="M72 266q0 100 69.5 180t210.5 109l338 70v98q0 135 -55.5 194.5t-140.5 59.5q-98 0 -152.5 -71t-54.5 -175q0 -21 2 -41h-82l-98 221q86 75 195.5 116.5t215.5 41.5q96 0 172 -31.5t124 -101t48 -168.5v-547q0 -59 16.5 -91t57.5 -32q58 0 106 64l23 -64 q-17 -50 -62 -86.5t-110 -36.5q-72 0 -120 52t-48 174l-209 -195q-70 -31 -156 -31q-127 0 -208.5 87.5t-81.5 203.5zM209 1208l272 338h84l273 -338h-88l-228 146l-225 -146h-88zM252 281q0 -64 43 -110t113 -46q122 0 282 147v258l-239 -53q-101 -23 -150 -77.5 t-49 -118.5z" />
<glyph unicode="&#xe3;" horiz-adv-x="1077" d="M72 266q0 100 69.5 180t210.5 109l338 70v98q0 135 -55.5 194.5t-140.5 59.5q-98 0 -152.5 -71t-54.5 -175q0 -21 2 -41h-82l-98 221q86 75 195.5 116.5t215.5 41.5q96 0 172 -31.5t124 -101t48 -168.5v-547q0 -59 16.5 -91t57.5 -32q58 0 106 64l23 -64 q-17 -50 -62 -86.5t-110 -36.5q-72 0 -120 52t-48 174l-209 -195q-70 -31 -156 -31q-127 0 -208.5 87.5t-81.5 203.5zM188 1217q15 117 70.5 191.5t128.5 74.5q36 0 74.5 -19.5t66.5 -43t61 -43t58 -19.5q63 0 107 139l82 -35q-11 -111 -62.5 -182.5t-124.5 -71.5 q-37 0 -76 19.5t-66.5 43t-59.5 43t-56 19.5q-58 0 -104 -116h-99zM252 281q0 -64 43 -110t113 -46q122 0 282 147v258l-239 -53q-101 -23 -150 -77.5t-49 -118.5z" />
<glyph unicode="&#xe4;" horiz-adv-x="1077" d="M72 266q0 100 69.5 180t210.5 109l338 70v98q0 135 -55.5 194.5t-140.5 59.5q-98 0 -152.5 -71t-54.5 -175q0 -21 2 -41h-82l-98 221q86 75 195.5 116.5t215.5 41.5q96 0 172 -31.5t124 -101t48 -168.5v-547q0 -59 16.5 -91t57.5 -32q58 0 106 64l23 -64 q-17 -50 -62 -86.5t-110 -36.5q-72 0 -120 52t-48 174l-209 -195q-70 -31 -156 -31q-127 0 -208.5 87.5t-81.5 203.5zM211 1323q0 54 31 85.5t82 31.5t81.5 -31.5t30.5 -85.5q0 -52 -30.5 -83.5t-81.5 -31.5t-82 31.5t-31 83.5zM252 281q0 -64 43 -110t113 -46 q122 0 282 147v258l-239 -53q-101 -23 -150 -77.5t-49 -118.5zM584 1323q0 54 30 85.5t80 31.5q53 0 84 -31.5t31 -85.5q0 -53 -31.5 -84t-83.5 -31q-50 0 -80 31.5t-30 83.5z" />
<glyph unicode="&#xe5;" horiz-adv-x="1077" d="M72 266q0 100 69.5 180t210.5 109l338 70v98q0 135 -55.5 194.5t-140.5 59.5q-98 0 -152.5 -71t-54.5 -175q0 -21 2 -41h-82l-98 221q86 75 195.5 116.5t215.5 41.5q96 0 172 -31.5t124 -101t48 -168.5v-547q0 -59 16.5 -91t57.5 -32q58 0 106 64l23 -64 q-17 -50 -62 -86.5t-110 -36.5q-72 0 -120 52t-48 174l-209 -195q-70 -31 -156 -31q-127 0 -208.5 87.5t-81.5 203.5zM252 281q0 -64 43 -110t113 -46q122 0 282 147v258l-239 -53q-101 -23 -150 -77.5t-49 -118.5zM328 1415q0 91 57.5 148t144.5 57q92 0 150.5 -57 t58.5 -148t-59 -149t-150 -58q-87 0 -144.5 58.5t-57.5 148.5zM432 1415q0 -46 28 -77t72 -31t73.5 31t29.5 77q0 44 -29.5 74.5t-73.5 30.5t-72 -30t-28 -75z" />
<glyph unicode="&#xe6;" horiz-adv-x="1689" d="M72 266q0 100 69.5 180t210.5 109l338 70v98q0 135 -55.5 194.5t-140.5 59.5q-98 0 -152.5 -71t-54.5 -175q0 -21 2 -41h-82l-98 221q86 75 195.5 116.5t215.5 41.5q107 0 190.5 -40.5t123.5 -119.5q70 78 164.5 119t199.5 41q184 0 290.5 -122.5t106.5 -344.5 q0 -37 -2 -57h-733q7 -188 112.5 -295t252.5 -107q101 0 191 54t151 159l41 -63q-62 -155 -182 -236.5t-259 -81.5q-125 0 -236 66t-175 186l-238 -221q-70 -31 -156 -31q-127 0 -208.5 87.5t-81.5 203.5zM252 281q0 -64 43 -110t113 -46q122 0 313 186q-31 91 -31 201v18 l-239 -53q-101 -23 -150 -77.5t-49 -118.5zM866 651h543q4 155 -65.5 233.5t-176.5 78.5q-116 0 -197 -90t-104 -222z" />
<glyph unicode="&#xe7;" horiz-adv-x="1032" d="M72 512q0 106 33 204t95.5 177.5t165 127.5t230.5 48q186 0 358 -100l-96 -293h-82q2 16 2 35q0 121 -67 188.5t-162 67.5q-56 0 -109 -24.5t-97 -71t-70.5 -122t-26.5 -169.5q0 -198 108.5 -317.5t257.5 -119.5q94 0 180.5 54t147.5 159l41 -63q-59 -147 -168.5 -228.5 t-249.5 -89.5v-73q29 0 60.5 -7.5t61.5 -23t49.5 -43.5t19.5 -64q0 -75 -57.5 -120t-143.5 -45q-74 0 -126 31.5t-75 68.5l29 117q27 -51 71 -86t101 -35q41 0 65.5 17.5t24.5 43.5q0 37 -52 68t-140 31l43 122q-100 9 -181.5 58t-133.5 123.5t-79.5 165.5t-27.5 188z" />
<glyph unicode="&#xe8;" horiz-adv-x="1071" d="M72 512q0 127 42 234t112.5 176.5t162 108t191.5 38.5q184 0 290.5 -122.5t106.5 -344.5q0 -37 -2 -57h-733q7 -188 112 -295t252 -107q101 0 191 54t151 159l41 -63q-62 -155 -181.5 -236.5t-258.5 -81.5q-91 0 -176 36t-152.5 102t-108 170t-40.5 229zM248 651h543 q4 155 -65.5 233.5t-176.5 78.5q-116 0 -197 -90t-104 -222zM252 1479l190 110l232 -381h-88z" />
<glyph unicode="&#xe9;" horiz-adv-x="1071" d="M72 512q0 127 42 234t112.5 176.5t162 108t191.5 38.5q184 0 290.5 -122.5t106.5 -344.5q0 -37 -2 -57h-733q7 -188 112 -295t252 -107q101 0 191 54t151 159l41 -63q-62 -155 -181.5 -236.5t-258.5 -81.5q-91 0 -176 36t-152.5 102t-108 170t-40.5 229zM248 651h543 q4 155 -65.5 233.5t-176.5 78.5q-116 0 -197 -90t-104 -222zM524 1208l232 381l190 -110l-334 -271h-88z" />
<glyph unicode="&#xea;" horiz-adv-x="1071" d="M72 512q0 127 42 234t112.5 176.5t162 108t191.5 38.5q184 0 290.5 -122.5t106.5 -344.5q0 -37 -2 -57h-733q7 -188 112 -295t252 -107q101 0 191 54t151 159l41 -63q-62 -155 -181.5 -236.5t-258.5 -81.5q-91 0 -176 36t-152.5 102t-108 170t-40.5 229zM248 651h543 q4 155 -65.5 233.5t-176.5 78.5q-116 0 -197 -90t-104 -222zM262 1208l273 338h83l273 -338h-88l-228 146l-225 -146h-88z" />
<glyph unicode="&#xeb;" horiz-adv-x="1071" d="M72 512q0 127 42 234t112.5 176.5t162 108t191.5 38.5q184 0 290.5 -122.5t106.5 -344.5q0 -37 -2 -57h-733q7 -188 112 -295t252 -107q101 0 191 54t151 159l41 -63q-62 -155 -181.5 -236.5t-258.5 -81.5q-91 0 -176 36t-152.5 102t-108 170t-40.5 229zM248 651h543 q4 155 -65.5 233.5t-176.5 78.5q-116 0 -197 -90t-104 -222zM276 1323q0 54 31 85.5t82 31.5t82 -31.5t31 -85.5q0 -52 -31 -83.5t-82 -31.5t-82 31.5t-31 83.5zM649 1323q0 54 30.5 85.5t80.5 31.5q53 0 83.5 -31.5t30.5 -85.5q0 -53 -31 -84t-83 -31q-50 0 -80.5 31.5 t-30.5 83.5z" />
<glyph unicode="&#xec;" horiz-adv-x="657" d="M0 1479l190 110l232 -381h-88zM61 0v76l179 59v717l-168 78v45l346 94v-958l178 -27v-84h-535z" />
<glyph unicode="&#xed;" horiz-adv-x="657" d="M61 0v76l179 59v717l-168 78v45l346 94v-958l178 -27v-84h-535zM184 1208l232 381l190 -110l-334 -271h-88z" />
<glyph unicode="&#xee;" horiz-adv-x="657" d="M-16 1208l272 338h84l272 -338h-88l-227 146l-225 -146h-88zM61 0v76l179 59v717l-168 78v45l346 94v-958l178 -27v-84h-535z" />
<glyph unicode="&#xef;" horiz-adv-x="657" d="M-6 1323q0 54 30.5 85.5t81.5 31.5t82 -31.5t31 -85.5q0 -52 -31 -83.5t-82 -31.5t-81.5 31.5t-30.5 83.5zM61 0v76l179 59v717l-168 78v45l346 94v-958l178 -27v-84h-535zM367 1323q0 54 30 85.5t80 31.5q53 0 84 -31.5t31 -85.5q0 -53 -31 -84t-84 -31q-50 0 -80 31.5 t-30 83.5z" />
<glyph unicode="&#xf0;" horiz-adv-x="1196" d="M72 465q0 112 38.5 206t103.5 155t149 94.5t176 33.5q112 0 218.5 -50t174.5 -142q-41 324 -244 493l-170 -141l-80 94l144 119q-162 86 -369 86l10 100h53q227 0 412 -98l205 170v-158l-96 -81q163 -126 250.5 -322.5t87.5 -411.5q0 -126 -31.5 -232.5t-84.5 -180 t-124 -125t-150 -75.5t-163 -24q-98 0 -188 31.5t-162.5 91t-116 155t-43.5 212.5zM246 426q0 -86 28.5 -155t74.5 -111t100.5 -64t111.5 -22q72 0 141.5 35t125 99.5t86 169t22.5 230.5q-59 91 -157 147t-189 56q-160 0 -252 -102t-92 -283z" />
<glyph unicode="&#xf1;" horiz-adv-x="1300" d="M41 0v76l178 59v717l-174 80v45l336 92v-221l219 201q76 20 150 20q158 0 250 -100.5t92 -280.5v-577l178 -27v-84h-535v76l178 59v520q0 124 -60 186t-155 62q-75 0 -156 -39t-145 -108v-645l178 -27v-84h-534zM356 1217q15 117 70.5 191.5t128.5 74.5q36 0 74.5 -19.5 t66.5 -43t61 -43t58 -19.5q63 0 107 139l82 -35q-11 -111 -62.5 -182.5t-124.5 -71.5q-37 0 -76 19.5t-66.5 43t-59.5 43t-56 19.5q-58 0 -104 -116h-99z" />
<glyph unicode="&#xf2;" horiz-adv-x="1169" d="M72 518q0 153 64 278.5t183.5 199t272.5 73.5q114 0 210 -43t160 -116.5t100 -173t36 -212.5q0 -154 -64.5 -279t-184 -197.5t-271.5 -72.5q-115 0 -211 43t-160 116.5t-99.5 172.5t-35.5 211zM248 1479l190 110l232 -381h-88zM283 547q0 -127 36 -233.5t109.5 -173 t171.5 -66.5q133 0 210 117.5t77 302.5q0 127 -36.5 233.5t-110 173t-171.5 66.5q-133 0 -209.5 -117.5t-76.5 -302.5z" />
<glyph unicode="&#xf3;" horiz-adv-x="1169" d="M72 518q0 153 64 278.5t183.5 199t272.5 73.5q114 0 210 -43t160 -116.5t100 -173t36 -212.5q0 -154 -64.5 -279t-184 -197.5t-271.5 -72.5q-115 0 -211 43t-160 116.5t-99.5 172.5t-35.5 211zM283 547q0 -127 36 -233.5t109.5 -173t171.5 -66.5q133 0 210 117.5 t77 302.5q0 127 -36.5 233.5t-110 173t-171.5 66.5q-133 0 -209.5 -117.5t-76.5 -302.5zM510 1208l231 381l191 -110l-334 -271h-88z" />
<glyph unicode="&#xf4;" horiz-adv-x="1169" d="M72 518q0 153 64 278.5t183.5 199t272.5 73.5q114 0 210 -43t160 -116.5t100 -173t36 -212.5q0 -154 -64.5 -279t-184 -197.5t-271.5 -72.5q-115 0 -211 43t-160 116.5t-99.5 172.5t-35.5 211zM266 1208l273 338h84l272 -338h-88l-227 146l-226 -146h-88zM283 547 q0 -127 36 -233.5t109.5 -173t171.5 -66.5q133 0 210 117.5t77 302.5q0 127 -36.5 233.5t-110 173t-171.5 66.5q-133 0 -209.5 -117.5t-76.5 -302.5z" />
<glyph unicode="&#xf5;" horiz-adv-x="1169" d="M72 518q0 153 64 278.5t183.5 199t272.5 73.5q114 0 210 -43t160 -116.5t100 -173t36 -212.5q0 -154 -64.5 -279t-184 -197.5t-271.5 -72.5q-115 0 -211 43t-160 116.5t-99.5 172.5t-35.5 211zM262 1217q15 117 70.5 191.5t128.5 74.5q36 0 74.5 -19.5t66.5 -43t61 -43 t58 -19.5q62 0 106 139l82 -35q-11 -111 -62 -182.5t-124 -71.5q-37 0 -76 19.5t-66.5 43t-59.5 43t-56 19.5q-59 0 -105 -116h-98zM283 547q0 -127 36 -233.5t109.5 -173t171.5 -66.5q133 0 210 117.5t77 302.5q0 127 -36.5 233.5t-110 173t-171.5 66.5 q-133 0 -209.5 -117.5t-76.5 -302.5z" />
<glyph unicode="&#xf6;" horiz-adv-x="1169" d="M72 518q0 153 64 278.5t183.5 199t272.5 73.5q114 0 210 -43t160 -116.5t100 -173t36 -212.5q0 -154 -64.5 -279t-184 -197.5t-271.5 -72.5q-115 0 -211 43t-160 116.5t-99.5 172.5t-35.5 211zM283 547q0 -127 36 -233.5t109.5 -173t171.5 -66.5q133 0 210 117.5 t77 302.5q0 127 -36.5 233.5t-110 173t-171.5 66.5q-133 0 -209.5 -117.5t-76.5 -302.5zM287 1323q0 54 30.5 85.5t81.5 31.5t82 -31.5t31 -85.5q0 -52 -31 -83.5t-82 -31.5t-81.5 31.5t-30.5 83.5zM659 1323q0 54 30.5 85.5t80.5 31.5q53 0 84 -31.5t31 -85.5 q0 -53 -31.5 -84t-83.5 -31q-50 0 -80.5 31.5t-30.5 83.5z" />
<glyph unicode="&#xf7;" horiz-adv-x="1024" d="M82 537v120h860v-120h-860zM397 266q0 53 31 85t82 32q52 0 84.5 -32.5t32.5 -84.5t-32 -83t-85 -31q-51 0 -82 31t-31 83zM397 907q0 53 31 85t82 32q52 0 84.5 -32t32.5 -85q0 -52 -32 -83t-85 -31q-51 0 -82 31t-31 83z" />
<glyph unicode="&#xf8;" horiz-adv-x="1169" d="M72 518q0 153 64 278.5t183.5 199t272.5 73.5q60 0 115 -12l79 219h109l-90 -250q137 -63 215 -197.5t78 -304.5q0 -154 -64.5 -279t-184 -197.5t-271.5 -72.5q-80 0 -148 21l-70 -193h-108l84 230q-125 67 -194.5 196t-69.5 289zM283 547q0 -232 106 -365l279 766 q-49 19 -99 19q-133 0 -209.5 -117.5t-76.5 -302.5zM471 109q59 -35 129 -35q133 0 210 117.5t77 302.5q0 122 -34.5 225.5t-98.5 167.5z" />
<glyph unicode="&#xf9;" horiz-adv-x="1247" d="M31 969v80h356v-658q0 -123 54.5 -184.5t142.5 -61.5q68 0 144 38.5t142 105.5v629l-176 51v80h355v-897l168 -41v-72l-316 -64v232l-225 -209q-71 -23 -131 -23q-172 0 -254 106.5t-82 287.5v549zM231 1479l191 110l231 -381h-88z" />
<glyph unicode="&#xfa;" horiz-adv-x="1247" d="M31 969v80h356v-658q0 -123 54.5 -184.5t142.5 -61.5q68 0 144 38.5t142 105.5v629l-176 51v80h355v-897l168 -41v-72l-316 -64v232l-225 -209q-71 -23 -131 -23q-172 0 -254 106.5t-82 287.5v549zM504 1208l231 381l191 -110l-334 -271h-88z" />
<glyph unicode="&#xfb;" horiz-adv-x="1247" d="M31 969v80h356v-658q0 -123 54.5 -184.5t142.5 -61.5q68 0 144 38.5t142 105.5v629l-176 51v80h355v-897l168 -41v-72l-316 -64v232l-225 -209q-71 -23 -131 -23q-172 0 -254 106.5t-82 287.5v549zM281 1208l272 338h84l272 -338h-88l-227 146l-225 -146h-88z" />
<glyph unicode="&#xfc;" horiz-adv-x="1247" d="M31 969v80h356v-658q0 -123 54.5 -184.5t142.5 -61.5q68 0 144 38.5t142 105.5v629l-176 51v80h355v-897l168 -41v-72l-316 -64v232l-225 -209q-71 -23 -131 -23q-172 0 -254 106.5t-82 287.5v549zM283 1323q0 54 30.5 85.5t81.5 31.5t82 -31.5t31 -85.5q0 -52 -31 -83.5 t-82 -31.5t-81.5 31.5t-30.5 83.5zM655 1323q0 54 30.5 85.5t80.5 31.5q53 0 84 -31.5t31 -85.5q0 -53 -31.5 -84t-83.5 -31q-50 0 -80.5 31.5t-30.5 83.5z" />
<glyph unicode="&#xfd;" horiz-adv-x="1169" d="M-20 977v72h530v-80l-154 -23l256 -723l265 695l-177 59v72h490v-80l-176 -27l-557 -1419l-197 78l277 389l-381 928zM492 1208l231 381l190 -110l-333 -271h-88z" />
<glyph unicode="&#xfe;" horiz-adv-x="1216" d="M31 -428l178 59v1712l-168 78v45l346 95v-680l227 176q46 12 91 12q136 0 237 -69t152 -183.5t51 -257.5q0 -106 -30.5 -198.5t-82.5 -159t-119.5 -114.5t-143 -71.5t-151.5 -23.5q-65 0 -129 15t-102 40v-440l219 -35v-76h-575v76zM387 250q38 -68 104.5 -108t147.5 -40 q136 0 223.5 107t87.5 297q0 189 -86 293t-211 104q-77 0 -145.5 -39t-120.5 -98v-516z" />
<glyph unicode="&#xff;" horiz-adv-x="1169" d="M-20 977v72h530v-80l-154 -23l256 -723l265 695l-177 59v72h490v-80l-176 -27l-557 -1419l-197 78l277 389l-381 928zM305 1323q0 54 31 85.5t82 31.5t81.5 -31.5t30.5 -85.5q0 -52 -30.5 -83.5t-81.5 -31.5t-82 31.5t-31 83.5zM678 1323q0 54 30 85.5t80 31.5 q53 0 84 -31.5t31 -85.5q0 -53 -31.5 -84t-83.5 -31q-50 0 -80 31.5t-30 83.5z" />
<glyph unicode="&#x152;" horiz-adv-x="2371" d="M72 774q0 170 54 317.5t149.5 253.5t234 167t301.5 61q130 0 240 -37h1095l23 -387h-68l-190 283h-660q132 -99 212 -252.5t93 -337.5h422v-127h-417q-9 -187 -83.5 -342.5t-201.5 -257.5h704l211 315h68l-51 -430h-1143q-119 -39 -246 -39q-166 0 -306.5 63t-236.5 172 t-150 258.5t-54 319.5zM303 803q0 -208 65 -370.5t189 -255.5t289 -93q116 0 208.5 48t152 135t91 205t31.5 259q0 207 -64.5 370t-188.5 257t-288 94q-155 0 -265.5 -84.5t-165 -229t-54.5 -335.5z" />
<glyph unicode="&#x153;" horiz-adv-x="1886" d="M72 518q0 153 64 278.5t183.5 199t272.5 73.5q130 0 232.5 -53t170.5 -148q71 96 176.5 148.5t223.5 52.5q184 0 290.5 -122.5t106.5 -344.5q0 -37 -2 -57h-733q7 -188 112 -295t252 -107q101 0 191 54t151 159l41 -63q-62 -155 -181.5 -236.5t-258.5 -81.5 q-110 0 -210.5 51t-166.5 146q-71 -93 -176 -145t-233 -52q-115 0 -211 43t-160 116.5t-99.5 172.5t-35.5 211zM283 547q0 -127 36 -233.5t109.5 -173t171.5 -66.5q133 0 210 117.5t77 302.5q0 127 -36.5 233.5t-110 173t-171.5 66.5q-133 0 -209.5 -117.5t-76.5 -302.5z M1063 651h543q4 155 -65.5 233.5t-176.5 78.5q-116 0 -197 -90t-104 -222z" />
<glyph unicode="&#x178;" horiz-adv-x="1511" d="M20 1462v74h639v-82l-229 -33l371 -716l356 688l-229 69v74h563v-82l-188 -33l-429 -821v-485l209 -33v-82h-628v74l209 69v451l-455 799zM457 1819q0 54 30.5 85t81.5 31t82 -31t31 -85q0 -52 -31 -83.5t-82 -31.5t-81.5 31.5t-30.5 83.5zM870 1819q0 53 30.5 84.5 t80.5 31.5q53 0 84 -31t31 -85q0 -53 -31 -84t-84 -31q-50 0 -80.5 31.5t-30.5 83.5z" />
<glyph unicode="&#x2c6;" horiz-adv-x="628" d="M0 1208l272 338h84l273 -338h-88l-228 146l-225 -146h-88z" />
<glyph unicode="&#x2dc;" horiz-adv-x="647" d="M0 1217q15 117 70.5 191.5t128.5 74.5q36 0 74.5 -19.5t66.5 -43t61 -43t58 -19.5q62 0 106 139l82 -35q-11 -111 -62 -182.5t-124 -71.5q-37 0 -76 19.5t-66.5 43t-59.5 43t-56 19.5q-59 0 -105 -116h-98z" />
<glyph unicode="&#x2000;" horiz-adv-x="1058" />
<glyph unicode="&#x2001;" horiz-adv-x="2116" />
<glyph unicode="&#x2002;" horiz-adv-x="1058" />
<glyph unicode="&#x2003;" horiz-adv-x="2116" />
<glyph unicode="&#x2004;" horiz-adv-x="705" />
<glyph unicode="&#x2005;" horiz-adv-x="529" />
<glyph unicode="&#x2006;" horiz-adv-x="352" />
<glyph unicode="&#x2007;" horiz-adv-x="352" />
<glyph unicode="&#x2008;" horiz-adv-x="264" />
<glyph unicode="&#x2009;" horiz-adv-x="423" />
<glyph unicode="&#x200a;" horiz-adv-x="117" />
<glyph unicode="&#x2010;" horiz-adv-x="835" d="M102 567v170h631v-170h-631z" />
<glyph unicode="&#x2011;" horiz-adv-x="835" d="M102 567v170h631v-170h-631z" />
<glyph unicode="&#x2012;" horiz-adv-x="835" d="M102 567v170h631v-170h-631z" />
<glyph unicode="&#x2013;" d="M102 545v121h1024v-121h-1024z" />
<glyph unicode="&#x2014;" horiz-adv-x="2252" d="M102 545v121h2048v-121h-2048z" />
<glyph unicode="&#x2018;" horiz-adv-x="514" d="M102 1237q0 80 29.5 148.5t77 113.5t100 73t107.5 40l37 -96q-123 -21 -191 -121.5t-29 -220.5q10 12 33.5 22t50.5 10q44 0 78.5 -28t34.5 -80q0 -51 -33.5 -89t-97.5 -38q-90 0 -143.5 76.5t-53.5 189.5z" />
<glyph unicode="&#x2019;" horiz-adv-x="514" d="M61 1085q123 21 191 121.5t29 220.5q-10 -12 -33.5 -22t-50.5 -10q-44 0 -78.5 28t-34.5 80q0 51 33.5 89t97.5 38q90 0 143.5 -76.5t53.5 -189.5q0 -80 -29.5 -148.5t-77 -113.5t-100 -73t-107.5 -40z" />
<glyph unicode="&#x201a;" horiz-adv-x="514" d="M82 -246q123 21 190.5 121.5t28.5 220.5q-11 -12 -34 -22.5t-50 -10.5q-44 0 -78.5 28.5t-34.5 80.5q0 51 34 89t98 38q89 0 142.5 -76.5t53.5 -189.5q0 -80 -29 -148.5t-76.5 -113.5t-100.5 -73t-107 -40z" />
<glyph unicode="&#x201c;" horiz-adv-x="903" d="M61 1237q0 80 29.5 148.5t77 113.5t100 73t107.5 40l37 -96q-123 -21 -190.5 -121.5t-28.5 -220.5q10 12 33 22t50 10q44 0 78.5 -28t34.5 -80q0 -51 -33.5 -89t-97.5 -38q-90 0 -143.5 76.5t-53.5 189.5zM492 1237q0 80 29 148.5t76.5 113.5t100.5 73t107 40l37 -96 q-123 -21 -190.5 -121.5t-28.5 -220.5q10 12 33.5 22t50.5 10q44 0 78 -28t34 -80q0 -51 -33.5 -89t-97.5 -38q-89 0 -142.5 76.5t-53.5 189.5z" />
<glyph unicode="&#x201d;" horiz-adv-x="903" d="M61 1085q123 21 191 121.5t29 220.5q-10 -12 -33.5 -22t-50.5 -10q-44 0 -78.5 28t-34.5 80q0 51 33.5 89t97.5 38q90 0 143.5 -76.5t53.5 -189.5q0 -80 -29.5 -148.5t-77 -113.5t-100 -73t-107.5 -40zM492 1085q123 21 190.5 121.5t28.5 220.5q-10 -12 -33.5 -22 t-50.5 -10q-44 0 -78.5 28t-34.5 80q0 51 33.5 89t97.5 38q90 0 143.5 -76.5t53.5 -189.5q0 -80 -29.5 -148.5t-77 -113.5t-100 -73t-107.5 -40z" />
<glyph unicode="&#x201e;" horiz-adv-x="923" d="M61 -246q123 21 191 121.5t29 220.5q-11 -12 -34 -22.5t-50 -10.5q-44 0 -78.5 28.5t-34.5 80.5q0 51 33.5 89t97.5 38q90 0 143.5 -76.5t53.5 -189.5q0 -80 -29.5 -148.5t-77 -113.5t-100 -73t-107.5 -40zM492 -246q123 21 190.5 121.5t28.5 220.5q-11 -12 -34 -22.5 t-50 -10.5q-44 0 -78.5 28.5t-34.5 80.5q0 51 33.5 89t97.5 38q90 0 143.5 -76.5t53.5 -189.5q0 -80 -29.5 -148.5t-77 -113.5t-100 -73t-107.5 -40z" />
<glyph unicode="&#x2022;" horiz-adv-x="507" d="M88 612q0 76 46 123t118 47q75 0 121.5 -47t46.5 -123t-46.5 -123t-121.5 -47q-72 0 -118 47t-46 123z" />
<glyph unicode="&#x2026;" horiz-adv-x="2027" d="M211 119q0 58 34.5 93.5t90.5 35.5q58 0 93.5 -35t35.5 -94t-35.5 -94t-93.5 -35q-56 0 -90.5 35.5t-34.5 93.5zM887 119q0 58 34.5 93.5t90.5 35.5q58 0 93.5 -35t35.5 -94t-35.5 -94t-93.5 -35q-56 0 -90.5 35.5t-34.5 93.5zM1563 119q0 58 34.5 93.5t90.5 35.5 q58 0 93.5 -35t35.5 -94t-35.5 -94t-93.5 -35q-56 0 -90.5 35.5t-34.5 93.5z" />
<glyph unicode="&#x202f;" horiz-adv-x="423" />
<glyph unicode="&#x2039;" horiz-adv-x="473" d="M29 594v65l315 314l57 -64l-170 -282l170 -283l-57 -63z" />
<glyph unicode="&#x203a;" horiz-adv-x="475" d="M84 344l170 283l-170 282l57 64l316 -314v-65l-316 -313z" />
<glyph unicode="&#x205f;" horiz-adv-x="529" />
<glyph unicode="&#x20ac;" horiz-adv-x="1310" d="M14 565v92h136q-5 77 -5 93q0 52 7 120h-138v93h150q26 141 87.5 252t146 180t183.5 105t207 36q123 0 242.5 -47t218.5 -137l-110 -289h-86q2 12 2 37q0 135 -90 220t-228 85q-139 0 -245 -107.5t-138 -334.5h547v-93h-555q-2 -25 -2 -79q0 -79 8 -134h549v-92h-532 q32 -130 101 -221t155 -132.5t184 -41.5q133 0 248.5 80t173.5 225l63 -74q-65 -209 -207 -317.5t-315 -108.5q-102 0 -199.5 39t-181 111.5t-144.5 186.5t-85 253h-148z" />
<glyph unicode="&#x2122;" horiz-adv-x="1626" d="M82 1245l12 193h590v-82h-235v-498l79 -14v-45h-280v39l84 34v484h-125l-78 -111h-47zM662 799v39l83 34v566h177l184 -486l188 486h250v-52l-84 -30v-498l80 -14v-45h-291v39l84 34v433l-198 -492l-86 -20l-215 524v-459l77 -14v-45h-249z" />
<glyph unicode="&#x25fc;" horiz-adv-x="1044" d="M0 0v1044h1044v-1044h-1044z" />
<glyph unicode="&#xfb03;" horiz-adv-x="2164" d="M41 942v78l231 63v62q0 119 32.5 212.5t90 150.5t131 86.5t158.5 29.5q166 0 324 -100l-84 -242h-80q0 117 -51 179.5t-131 62.5q-92 0 -151.5 -77.5t-59.5 -221.5v-176h559v96q0 228 122 352.5t316 124.5q175 0 358 -98l-104 -242h-82q2 14 2 39q0 91 -61.5 147 t-143.5 56q-94 0 -161.5 -75.5t-67.5 -223.5v-176h737v-938l178 -27v-84h-534v76l178 59v797h-559v-821l178 -27v-84h-535v76l179 59v797h-559v-821l178 -27v-84h-535v76l178 59v807h-231z" />
<glyph unicode="&#xfb04;" horiz-adv-x="2123" d="M41 942v78l231 63v62q0 119 32.5 212.5t90 150.5t131 86.5t158.5 29.5q166 0 324 -100l-84 -242h-80q0 117 -51 179.5t-131 62.5q-92 0 -151.5 -77.5t-59.5 -221.5v-176h559v96q0 122 36.5 216t100 150t143 84.5t170.5 28.5q168 0 320 -98l125 35v-1450l178 -27v-84h-535 v76l178 59v1102q0 92 -40 159t-100 97.5t-130 30.5q-109 0 -188.5 -76t-79.5 -211v-188h317v-117h-317v-821l178 -27v-84h-535v76l179 59v797h-559v-821l178 -27v-84h-535v76l178 59v807h-231z" />
</font>
</defs>
</svg>
