<?xml version="1.0" encoding="utf-8"?>
<!-- Generator: Adobe Illustrator 22.1.0, SVG Export Plug-In . SVG Version: 6.00 Build 0)  -->
<svg version="1.1" id="Ebene_1" xmlns="http://www.w3.org/2000/svg" xmlns:xlink="http://www.w3.org/1999/xlink" x="0px" y="0px"
	 viewBox="0 0 51.6 41.5" style="enable-background:new 0 0 51.6 41.5;" xml:space="preserve">
<style type="text/css">
	.st0{enable-background:new    ;}
	.st1{fill:#702082;}
</style>
<title>AAA BBB-</title>
<desc>Created with Sketch.</desc>
<g id="Landingpage_v2_final" transform="translate(-1097.000000, -6348.000000)">
	<g id="PARTNER" transform="translate(-86.000000, 5885.000000)">
		<g class="st0">
			<path class="st1" d="M1183,479.5l6.4-16.5h3.4l6.6,16.5h-3.4l-1.4-3.7h-7l-1.3,3.7H1183z M1188.7,473h4.8l-2.4-6.5L1188.7,473z"
				/>
			<path class="st1" d="M1200.2,479.5l6.4-16.5h3.4l6.6,16.5h-3.4l-1.4-3.7h-7l-1.3,3.7H1200.2z M1205.8,473h4.8l-2.4-6.5
				L1205.8,473z"/>
			<path class="st1" d="M1217.4,479.5l6.4-16.5h3.4l6.6,16.5h-3.4l-1.4-3.7h-7l-1.3,3.7H1217.4z M1223,473h4.8l-2.4-6.5L1223,473z"
				/>
		</g>
		<g class="st0">
			<path class="st1" d="M1184.2,504.5V488h7c0.7,0,1.4,0.1,2,0.3s1.1,0.5,1.4,0.9c0.4,0.4,0.6,0.8,0.8,1.3c0.2,0.5,0.3,1,0.3,1.5
				c0,0.7-0.2,1.4-0.6,2.1c-0.4,0.6-1,1.2-1.8,1.5c1,0.4,1.8,1,2.3,1.7c0.5,0.7,0.8,1.5,0.8,2.4c0,0.6-0.1,1.2-0.4,1.8
				c-0.2,0.6-0.6,1.1-1.1,1.5c-0.5,0.4-1,0.8-1.8,1.1c-0.7,0.3-1.5,0.4-2.4,0.4H1184.2z M1187.2,494.6h3.2c0.7,0,1.3-0.2,1.7-0.6
				c0.4-0.4,0.6-0.9,0.6-1.4c0-0.5-0.2-0.9-0.6-1.3c-0.4-0.4-0.9-0.5-1.6-0.5h-3.3V494.6z M1187.2,501.6h3.4c0.9,0,1.5-0.2,2-0.7
				c0.5-0.4,0.7-1,0.7-1.6s-0.2-1.1-0.7-1.5c-0.4-0.4-1.1-0.6-1.9-0.6h-3.6V501.6z"/>
			<path class="st1" d="M1199,504.5V488h7c0.7,0,1.4,0.1,2,0.3s1.1,0.5,1.4,0.9c0.4,0.4,0.6,0.8,0.8,1.3c0.2,0.5,0.3,1,0.3,1.5
				c0,0.7-0.2,1.4-0.6,2.1s-1,1.2-1.8,1.5c1,0.4,1.8,1,2.3,1.7c0.5,0.7,0.8,1.5,0.8,2.4c0,0.6-0.1,1.2-0.4,1.8
				c-0.2,0.6-0.6,1.1-1.1,1.5c-0.5,0.4-1,0.8-1.8,1.1c-0.7,0.3-1.5,0.4-2.4,0.4H1199z M1202,494.6h3.2c0.7,0,1.3-0.2,1.7-0.6
				c0.4-0.4,0.6-0.9,0.6-1.4c0-0.5-0.2-0.9-0.6-1.3c-0.4-0.4-0.9-0.5-1.6-0.5h-3.3V494.6z M1202,501.6h3.4c0.9,0,1.5-0.2,2-0.7
				c0.5-0.4,0.7-1,0.7-1.6s-0.2-1.1-0.7-1.5c-0.4-0.4-1.1-0.6-1.9-0.6h-3.6V501.6z"/>
			<path class="st1" d="M1213.7,504.5V488h7c0.7,0,1.4,0.1,2,0.3s1.1,0.5,1.4,0.9c0.4,0.4,0.6,0.8,0.8,1.3c0.2,0.5,0.3,1,0.3,1.5
				c0,0.7-0.2,1.4-0.6,2.1s-1,1.2-1.8,1.5c1,0.4,1.8,1,2.3,1.7c0.5,0.7,0.8,1.5,0.8,2.4c0,0.6-0.1,1.2-0.4,1.8
				c-0.2,0.6-0.6,1.1-1.1,1.5c-0.5,0.4-1,0.8-1.8,1.1c-0.7,0.3-1.5,0.4-2.4,0.4H1213.7z M1216.7,494.6h3.2c0.7,0,1.3-0.2,1.7-0.6
				c0.4-0.4,0.6-0.9,0.6-1.4c0-0.5-0.2-0.9-0.6-1.3c-0.4-0.4-0.9-0.5-1.6-0.5h-3.3V494.6z M1216.7,501.6h3.4c0.9,0,1.5-0.2,2-0.7
				c0.5-0.4,0.7-1,0.7-1.6s-0.2-1.1-0.7-1.5c-0.4-0.4-1.1-0.6-1.9-0.6h-3.6V501.6z"/>
			<path class="st1" d="M1227.9,496.2h6.8v2.6h-6.8V496.2z"/>
		</g>
	</g>
</g>
</svg>
