<?xml version="1.0" encoding="UTF-8"?>
<svg width="58px" height="50px" viewBox="0 0 58 50" version="1.1" xmlns="http://www.w3.org/2000/svg" xmlns:xlink="http://www.w3.org/1999/xlink">
    <!-- Generator: Sketch 51.2 (57519) - http://www.bohemiancoding.com/sketch -->
    <title>bank</title>
    <desc>Created with Sketch.</desc>
    <defs></defs>
    <g id="Landingpage" stroke="none" stroke-width="1" fill="none" fill-rule="evenodd">
        <g id="Landingpage_v2_final" transform="translate(-301.000000, -3026.000000)" fill="#FFFFFF">
            <g id="VORTEILE" transform="translate(1.000000, 2682.000000)">
                <g id="1" transform="translate(260.000000, 304.000000)">
                    <g id="bank" transform="translate(40.000000, 40.000000)">
                        <path d="M42.6756752,14.0809003 C40.9710129,13.3976206 40.4787299,12.9844373 40.4787299,12.2382958 C40.4787299,11.6411897 40.9308199,10.9436013 42.2060611,10.9436013 C43.3338746,10.9436013 44.1988264,11.3882958 44.2063826,11.3921543 C44.2975402,11.4407074 44.3996302,11.4665916 44.5007556,11.4665916 C44.7475402,11.4665916 44.9657074,11.3172347 45.0563826,11.086045 L45.3660289,10.2940836 C45.4739068,10.0054984 45.3104019,9.75405145 45.1017203,9.66385852 C44.4073473,9.36160772 43.0501125,9.12768489 43.0362862,9.12527331 C43.0144212,9.12141479 42.938537,9.10517685 42.938537,9.0162701 L42.9340354,7.8673955 C42.9340354,7.52141479 42.6452894,7.23974277 42.2904662,7.23974277 L41.7346785,7.23974277 C41.3803376,7.23974277 41.0915916,7.52125402 41.0915916,7.86755627 L41.0930386,9.07543408 C41.0930386,9.16803859 40.992717,9.20823151 40.9562219,9.21675241 C39.2430386,9.624791 38.1724598,10.8796141 38.1724598,12.4624116 C38.1724598,14.4355627 39.8036495,15.3272026 41.5647428,15.9964952 C42.9726206,16.5492283 43.5468971,17.1096785 43.5468971,17.9317042 C43.5468971,18.8262379 42.7333923,19.4509968 41.568119,19.4509968 C40.5732637,19.4509968 39.2266399,18.8202894 39.2132958,18.8138585 C39.1271222,18.7730225 39.0356431,18.7524437 38.9417524,18.7524437 C38.6856431,18.7524437 38.462492,18.9074277 38.3731029,19.1474598 L38.077283,19.9484244 C37.9721383,20.2474598 38.1341961,20.4902251 38.3414309,20.5982637 C39.1684405,21.0289711 40.7687621,21.2813826 40.8399839,21.2924759 C40.858955,21.295209 40.9565434,21.3294534 40.9565434,21.4185209 L40.9565434,22.6210932 C40.9565434,22.967074 41.2454502,23.248746 41.6002733,23.248746 L42.1745498,23.248746 C42.5295338,23.248746 42.8184405,22.9672347 42.8184405,22.6210932 L42.8184405,21.3554984 C42.8184405,21.2371704 42.9057395,21.2267203 42.923746,21.2223794 C44.7486656,20.8124116 45.8727814,19.4772026 45.8727814,17.8006752 C45.872299,16.0786495 44.9160289,14.9659486 42.6756752,14.0809003" id="Fill-1"></path>
                        <path d="M41.9580064,26.8321061 C35.5580064,26.8321061 30.3703859,21.6438424 30.3703859,15.2443248 C30.3703859,8.84480707 35.5580064,3.65670418 41.9580064,3.65670418 C48.3578457,3.65670418 53.5453055,8.84480707 53.5453055,15.2443248 C53.5453055,21.6438424 48.3578457,26.8321061 41.9580064,26.8321061 M41.9580064,0.160723473 C33.6276206,0.160723473 26.8748875,6.91409968 26.8748875,15.244164 C26.8748875,23.5743891 33.6276206,30.3277653 41.9580064,30.3277653 C50.2882315,30.3277653 57.0411254,23.5743891 57.0411254,15.244164 C57.0411254,6.91409968 50.2882315,0.160723473 41.9580064,0.160723473" id="Fill-3"></path>
                        <path d="M53.9764791,37.6369293 C50.7690836,39.4071865 46.357508,41.0438424 41.9583119,41.7338746 C38.0440032,42.3478617 30.6804984,40.8674759 30.6804984,39.1190836 C30.6804984,38.4565434 37.1386977,40.7515595 41.0451286,39.7092765 C44.0407878,38.9100804 43.6157074,36.1076688 41.9862862,35.7380547 C40.3663505,35.3703698 30.8756752,31.8935209 26.8218167,31.7735852 C24.9121704,31.7173151 20.1975402,32.4377331 17.9161897,32.8094373 C17.1346785,32.9366077 16.6444855,32.9226206 16.5957717,33.6705305 C16.3687621,37.146254 15.9211736,44.2544534 15.6774437,47.9673151 C15.672299,48.0456109 15.7813023,49.1007556 16.651881,48.3583119 C17.6047749,47.5457717 18.9412701,46.6449678 20.1774437,46.9253537 C22.1168328,47.3655466 38.8949678,50.4393408 41.2094373,49.9012379 C44.520209,49.1317846 53.8923955,43.5774437 55.6891801,41.8512379 C58.4745498,39.1747106 56.3094373,36.3491479 53.9764791,37.6369293" id="Fill-6"></path>
                        <path d="M6.79109325,47.2083441 C5.44881029,47.2083441 4.36086817,46.1202412 4.36086817,44.7782797 C4.36086817,43.435836 5.44897106,42.3480547 6.79109325,42.3480547 C8.13321543,42.3480547 9.22131833,43.4359968 9.22131833,44.7782797 C9.22131833,46.1204019 8.13337621,47.2083441 6.79109325,47.2083441 M11.9656913,32.6739389 L3.17598071,32.2406592 C2.49736334,32.2072186 1.80427653,32.7186334 1.63562701,33.3768328 L0.0373954984,47.887283 C-0.131093248,48.5453215 0.28659164,49.1056109 0.965530547,49.1318167 L10.7066881,49.1306913 C11.3857878,49.1568971 11.983537,48.6242605 12.035627,47.9467685 L13.1054019,33.9663826 C13.1571704,33.2890514 12.6443087,32.7073794 11.9656913,32.6739389" id="Fill-8"></path>
                    </g>
                </g>
            </g>
        </g>
    </g>
</svg>