<?xml version="1.0" encoding="UTF-8"?>
<svg width="41px" height="35px" viewBox="0 0 41 35" version="1.1" xmlns="http://www.w3.org/2000/svg" xmlns:xlink="http://www.w3.org/1999/xlink">
    <!-- Generator: Sketch 51.2 (57519) - http://www.bohemiancoding.com/sketch -->
    <title>Fill 1</title>
    <desc>Created with Sketch.</desc>
    <defs></defs>
    <g id="Landingpage" stroke="none" stroke-width="1" fill="none" fill-rule="evenodd">
        <g id="Landingpage_v2_final" transform="translate(-1104.000000, -6846.000000)" fill="#823792">
            <g id="PARTNER" transform="translate(-86.000000, 5885.000000)">
                <path d="M1227.34138,971.312222 C1227.97028,970.895556 1228.61205,970.869444 1229.26723,971.233889 C1229.92241,971.598889 1230.25,972.145556 1230.25,972.875 L1230.25,994.125 C1230.25,994.645556 1230.06664,995.088333 1229.69992,995.452778 C1229.33319,995.817222 1228.88765,996 1228.36328,996 L1191.88672,996 C1191.36291,996 1190.91736,995.817222 1190.55008,995.452778 C1190.18336,995.088333 1190,994.645556 1190,994.125 L1190,962.874444 C1190,962.353889 1190.18336,961.911111 1190.55008,961.546667 C1190.91736,961.182222 1191.36291,961 1191.88672,961 L1200.69141,961 C1201.21577,961 1201.66076,961.182222 1202.02804,961.546667 C1202.39476,961.911111 1202.57812,962.353889 1202.57812,962.874444 L1202.57812,978.187222 L1213.50544,971.312222 C1214.13435,970.895556 1214.77611,970.869444 1215.43129,971.233889 C1216.08647,971.598889 1216.41406,972.145556 1216.41406,972.875 L1216.41406,978.187222 L1227.34138,971.312222 Z" id="Fill-1"></path>
            </g>
        </g>
    </g>
</svg>