<?xml version="1.0" encoding="UTF-8"?>
<svg width="48px" height="48px" viewBox="0 0 48 48" version="1.1" xmlns="http://www.w3.org/2000/svg" xmlns:xlink="http://www.w3.org/1999/xlink">
    <!-- Generator: Sketch 51.2 (57519) - http://www.bohemiancoding.com/sketch -->
    <title>digital_process</title>
    <desc>Created with Sketch.</desc>
    <defs></defs>
    <g id="Landingpage" stroke="none" stroke-width="1" fill="none" fill-rule="evenodd">
        <g id="Landingpage_v2_final" transform="translate(-1258.000000, -3480.000000)" fill="#702082">
            <g id="VORTEILE" transform="translate(1.000000, 2682.000000)">
                <g id="6" transform="translate(1217.000000, 758.000000)">
                    <g id="digital_process" transform="translate(40.000000, 40.000000)">
                        <path d="M31.8216938,-9.375e-06 L31.8216938,6.52395938 L26.9440687,6.52395938 L26.9440687,9.65436563 L31.8216938,9.65436563 L31.8216938,13.0478344 L26.9440687,13.0478344 L26.9440687,16.1782406 L38.323725,16.1782406 L38.323725,20.9584594 L41.4540375,20.9584594 L41.4540375,16.1782406 L48.0000375,16.1782406 L48.0000375,-9.375e-06 L31.8216938,-9.375e-06 Z M38.3455688,9.65436563 L41.4760688,9.65436563 L41.4760688,6.52395938 L38.3455688,6.52395938 L38.3455688,9.65436563 Z" id="Fill-1"></path>
                        <path d="M0,-9.375e-06 L0,16.1782406 L6.52396875,16.1782406 L6.52396875,20.9584594 L9.654375,20.9584594 L9.654375,16.1782406 L16.1783438,16.1782406 L16.1783438,9.65436563 L20.9585625,9.65436563 L20.9585625,6.52395938 L16.17825,6.52395938 L16.17825,-9.375e-06 L0,-9.375e-06 Z M6.52396875,9.65436563 L9.654375,9.65436563 L9.654375,6.52395938 L6.52396875,6.52395938 L6.52396875,9.65436563 Z" id="Fill-2"></path>
                        <polygon id="Fill-3" points="20.9582812 31.828125 26.9436563 31.828125 26.9436563 28.6977187 20.9582812 28.6977187"></polygon>
                        <path d="M6.52395938,25.5252844 L6.52395938,31.8216281 L-9.375e-06,31.8216281 L-9.375e-06,47.9999719 L16.1782406,47.9999719 L16.1782406,41.4760031 L22.5236156,41.4760031 L22.5236156,33.3868781 L19.3932094,33.3868781 L19.3932094,38.3455969 L16.1782406,38.3455969 L16.1782406,31.8216281 L9.65436563,31.8216281 L9.65436563,28.6556906 L14.6130844,28.6556906 L14.6130844,25.5252844 L6.52395938,25.5252844 Z M6.52395938,41.4760969 L9.65436563,41.4760969 L9.65436563,38.3455969 L6.52395938,38.3455969 L6.52395938,41.4760969 Z" id="Fill-4"></path>
                        <path d="M38.3237156,27.090525 L38.3237156,31.8217125 L31.8216844,31.8217125 L31.8216844,38.3456812 L25.3788094,38.3456812 L25.3788094,46.4348062 L28.5091219,46.4348062 L28.5091219,41.4760875 L31.8216844,41.4760875 L31.8216844,47.9999625 L48.0000281,47.9999625 L48.0000281,31.8217125 L41.4540281,31.8217125 L41.4540281,27.090525 L38.3237156,27.090525 Z M38.3455594,41.4760875 L41.4760594,41.4760875 L41.4760594,38.3455875 L38.3455594,38.3455875 L38.3455594,41.4760875 Z" id="Fill-5"></path>
                        <polygon id="Fill-6" points="19.3932 14.6130938 19.3932 19.3932188 14.613075 19.3932188 14.613075 22.5237188 22.5237 22.5237188 22.5237 14.6130938"></polygon>
                        <polyline id="Fill-7" points="33.2893031 21.8186156 33.2893031 18.6881156 25.3787719 18.6881156 25.3787719 26.5987406 28.5091781 26.5987406 28.5091781 21.8186156"></polyline>
                    </g>
                </g>
            </g>
        </g>
    </g>
</svg>