<?xml version="1.0" encoding="UTF-8"?>
<svg width="38px" height="48px" viewBox="0 0 38 48" version="1.1" xmlns="http://www.w3.org/2000/svg" xmlns:xlink="http://www.w3.org/1999/xlink">
    <!-- Generator: Sketch 51.2 (57519) - http://www.bohemiancoding.com/sketch -->
    <title>document</title>
    <desc>Created with Sketch.</desc>
    <defs></defs>
    <g id="Landingpage" stroke="none" stroke-width="1" fill="none" fill-rule="evenodd">
        <g id="Landingpage_v2_final" transform="translate(-1258.000000, -3026.000000)" fill="#702082">
            <g id="VORTEILE" transform="translate(1.000000, 2682.000000)">
                <g id="3" transform="translate(1217.000000, 304.000000)">
                    <path d="M64.8,52.8 L64.8,41.6 L76,52.8 L64.8,52.8 Z M68.8,59.2 L48.8,59.2 C48.3584,59.2 48,58.8424 48,58.4 C48,57.9576 48.3584,57.6 48.8,57.6 L68.8,57.6 C69.2416,57.6 69.6,57.9576 69.6,58.4 C69.6,58.8424 69.2416,59.2 68.8,59.2 Z M68.8,65.6 L48.8,65.6 C48.3584,65.6 48,65.2424 48,64.8 C48,64.3576 48.3584,64 48.8,64 L68.8,64 C69.2416,64 69.6,64.3576 69.6,64.8 C69.6,65.2424 69.2416,65.6 68.8,65.6 Z M68.8,72 L48.8,72 C48.3584,72 48,71.6424 48,71.2 C48,70.7576 48.3584,70.4 48.8,70.4 L68.8,70.4 C69.2416,70.4 69.6,70.7576 69.6,71.2 C69.6,71.6424 69.2416,72 68.8,72 Z M68.8,78.4 L48.8,78.4 C48.3584,78.4 48,78.0424 48,77.6 C48,77.1576 48.3584,76.8 48.8,76.8 L68.8,76.8 C69.2416,76.8 69.6,77.1576 69.6,77.6 C69.6,78.0424 69.2416,78.4 68.8,78.4 Z M48.8,51.2 L56.8,51.2 C57.2416,51.2 57.6,51.5576 57.6,52 C57.6,52.4424 57.2416,52.8 56.8,52.8 L48.8,52.8 C48.3584,52.8 48,52.4424 48,52 C48,51.5576 48.3584,51.2 48.8,51.2 Z M65.9312,40 L40,40 L40,88 L77.6,88 L77.6,51.6688 L65.9312,40 Z" id="document"></path>
                </g>
            </g>
        </g>
    </g>
</svg>
