<?xml version="1.0" encoding="UTF-8"?>
<svg width="304px" height="242px" viewBox="0 0 304 242" version="1.1" xmlns="http://www.w3.org/2000/svg" xmlns:xlink="http://www.w3.org/1999/xlink">
    <!-- Generator: Sketch 51.2 (57519) - http://www.bohemiancoding.com/sketch -->
    <title>emittenten</title>
    <desc>Created with Sketch.</desc>
    <defs>
        <path d="M49.99996,4.16666667 C75.31308,4.16666667 95.8333467,24.6867467 95.8333467,49.99996 C95.8333467,75.3129867 75.31308,95.8333467 49.99996,95.8333467 C24.6870267,95.8333467 4.16666667,75.3129867 4.16666667,49.99996 C4.16666667,24.6867467 24.6870267,4.16666667 49.99996,4.16666667 Z" id="path-1"></path>
        <path d="M34.9999674,3 C52.673125,3 67,17.3267447 67,34.9999674 C67,52.6730598 52.673125,67 34.9999674,67 C17.3269402,67 3,52.6730598 3,34.9999674 C3,17.3267447 17.3269402,3 34.9999674,3 Z" id="path-3"></path>
        <path d="M24.9999766,2 C37.7025586,2 48,12.2973477 48,24.9999766 C48,37.7025118 37.7025586,48 24.9999766,48 C12.2974882,48 2,37.7025118 2,24.9999766 C2,12.2973477 12.2974882,2 24.9999766,2 Z" id="path-5"></path>
        <path d="M16.9999837,1 C25.8365625,1 33,8.16337234 33,16.9999837 C33,25.8365299 25.8365625,33 16.9999837,33 C8.16347009,33 1,25.8365299 1,16.9999837 C1,8.16337234 8.16347009,1 16.9999837,1 Z" id="path-7"></path>
        <path d="M12.4999883,1 C18.8512793,1 24,6.14867387 24,12.4999883 C24,18.8512559 18.8512793,24 12.4999883,24 C6.14874412,24 1,18.8512559 1,12.4999883 C1,6.14867387 6.14874412,1 12.4999883,1 Z" id="path-9"></path>
        <path d="M59.999952,5 C90.375696,5 115.000016,29.624096 115.000016,59.999952 C115.000016,90.375584 90.375696,115.000016 59.999952,115.000016 C29.624432,115.000016 5,90.375584 5,59.999952 C5,29.624096 29.624432,5 59.999952,5 Z" id="path-11"></path>
    </defs>
    <g id="Landingpage" stroke="none" stroke-width="1" fill="none" fill-rule="evenodd">
        <g id="Landingpage_v2_final" transform="translate(-232.000000, -1941.000000)">
            <g id="GRAFIK" transform="translate(232.000000, 1904.000000)">
                <g id="grafik" transform="translate(0.000000, 37.000000)">
                    <g id="emittenten">
                        <g id="Group-16-Copy-16" opacity="0.600000024" transform="translate(23.000000, 67.000000)">
                            <circle id="Oval-3-Copy-13" fill="#FFFFFF" fill-rule="nonzero" cx="50" cy="50" r="50"></circle>
                            <mask id="mask-2" fill="white">
                                <use xlink:href="#path-1"></use>
                            </mask>
                            <use id="Ellipse-590" fill="#702082" xlink:href="#path-1"></use>
                            <path d="M49.5726496,49.6367521 C47.8589269,49.6367521 46.2794397,49.2204653 44.8352327,48.3878917 C43.3905033,47.5558405 42.2518519,46.417189 41.4198006,44.9724596 C40.587227,43.5282526 40.1709402,41.9487654 40.1709402,40.2350427 C40.1709402,38.52132 40.587227,36.9418329 41.4198006,35.4976258 C42.2518519,34.0528965 43.3905033,32.914245 44.8352327,32.0821937 C46.2794397,31.2496201 47.8589269,30.8333333 49.5726496,30.8333333 C51.2863723,30.8333333 52.8658594,31.2496201 54.3100665,32.0821937 C55.7547958,32.914245 56.8934473,34.0528965 57.7254986,35.4976258 C58.5580722,36.9418329 58.974359,38.52132 58.974359,40.2350427 C58.974359,41.9487654 58.5580722,43.5282526 57.7254986,44.9724596 C56.8934473,46.417189 55.7547958,47.5558405 54.3100665,48.3878917 C52.8658594,49.2204653 51.2863723,49.6367521 49.5726496,49.6367521 Z M56.6962963,52.2008547 C58.4820106,52.2008547 60.1439153,52.6588658 61.6814815,53.5743454 C63.2190476,54.4903677 64.4343915,55.7368742 65.3275132,57.3138651 C66.2201058,58.8908561 66.6666667,60.5953738 66.6666667,62.4268756 L66.6666667,65.6318681 C66.6666667,66.6493691 66.3195767,67.5143807 65.6248677,68.2263601 C64.9306878,68.9388821 64.0873016,69.2948718 63.0952381,69.2948718 L36.9047619,69.2948718 C35.9126984,69.2948718 35.0693122,68.9388821 34.3751323,68.2263601 C33.6804233,67.5143807 33.3333333,66.6493691 33.3333333,65.6318681 L33.3333333,62.4268756 C33.3333333,60.5953738 33.7798942,58.8908561 34.6724868,57.3138651 C35.5656085,55.7368742 36.7809524,54.4903677 38.3185185,53.5743454 C39.8560847,52.6588658 41.5179894,52.2008547 43.3037037,52.2008547 L44.568254,52.2008547 C46.3047619,53.0148555 48.1148148,53.4218559 50,53.4218559 C51.8851852,53.4218559 53.6952381,53.0148555 55.431746,52.2008547 L56.6962963,52.2008547 Z" id="Fill-1" fill="#FFFFFF" mask="url(#mask-2)"></path>
                        </g>
                        <g id="Group-16-Copy-17" opacity="0.200000003" transform="translate(163.000000, 0.000000)">
                            <circle id="Oval-3-Copy-13" fill="#FFFFFF" fill-rule="nonzero" cx="35" cy="35" r="35"></circle>
                            <mask id="mask-4" fill="white">
                                <use xlink:href="#path-3"></use>
                            </mask>
                            <use id="Ellipse-590" fill="#702082" xlink:href="#path-3"></use>
                            <path d="M34.2051282,35.2 C33.0226595,35.2 31.9328134,34.9077667 30.9363105,34.3233 C29.9394473,33.7392 29.1537778,32.9398667 28.5796624,31.9256667 C28.0051866,30.9118333 27.7179487,29.8030333 27.7179487,28.6 C27.7179487,27.3969667 28.0051866,26.2881667 28.5796624,25.2743333 C29.1537778,24.2601333 29.9394473,23.4608 30.9363105,22.8767 C31.9328134,22.2922333 33.0226595,22 34.2051282,22 C35.3875969,22 36.477443,22.2922333 37.4739459,22.8767 C38.4708091,23.4608 39.2564786,24.2601333 39.830594,25.2743333 C40.4050698,26.2881667 40.6923077,27.3969667 40.6923077,28.6 C40.6923077,29.8030333 40.4050698,30.9118333 39.830594,31.9256667 C39.2564786,32.9398667 38.4708091,33.7392 37.4739459,34.3233 C36.477443,34.9077667 35.3875969,35.2 34.2051282,35.2 Z M39.1204444,37 C40.3525873,37 41.4993016,37.3215238 42.5602222,37.9641905 C43.6211429,38.6072381 44.4597302,39.4822857 45.0759841,40.5893333 C45.691873,41.696381 46,42.8929524 46,44.1786667 L46,46.4285714 C46,47.1428571 45.7605079,47.7500952 45.2811587,48.2499048 C44.8021746,48.7500952 44.2202381,49 43.5357143,49 L25.4642857,49 C24.7797619,49 24.1978254,48.7500952 23.7188413,48.2499048 C23.2394921,47.7500952 23,47.1428571 23,46.4285714 L23,44.1786667 C23,42.8929524 23.308127,41.696381 23.9240159,40.5893333 C24.5402698,39.4822857 25.3788571,38.6072381 26.4397778,37.9641905 C27.5006984,37.3215238 28.6474127,37 29.8795556,37 L30.7520952,37 C31.9502857,37.5714286 33.1992222,37.8571429 34.5,37.8571429 C35.8007778,37.8571429 37.0497143,37.5714286 38.2479048,37 L39.1204444,37 Z" id="Fill-1" fill="#FFFFFF" mask="url(#mask-4)"></path>
                        </g>
                        <g id="Group-16-Copy-18" opacity="0.200000003" transform="translate(45.000000, 192.000000)">
                            <circle id="Oval-3-Copy-13" fill="#FFFFFF" fill-rule="nonzero" cx="25" cy="25" r="25"></circle>
                            <mask id="mask-6" fill="white">
                                <use xlink:href="#path-5"></use>
                            </mask>
                            <use id="Ellipse-590" fill="#823792" xlink:href="#path-5"></use>
                            <path d="M23.7948718,25.2888889 C22.9722849,25.2888889 22.2141311,25.0832432 21.5209117,24.6719519 C20.8274416,24.2609185 20.2808889,23.6984247 19.8815043,22.9847284 C19.4818689,22.2712901 19.2820513,21.4910235 19.2820513,20.6444444 C19.2820513,19.7978654 19.4818689,19.0175988 19.8815043,18.3041605 C20.2808889,17.5904642 20.8274416,17.0279704 21.5209117,16.616937 C22.2141311,16.2056457 22.9722849,16 23.7948718,16 C24.6174587,16 25.3756125,16.2056457 26.0688319,16.616937 C26.762302,17.0279704 27.3088547,17.5904642 27.7082393,18.3041605 C28.1078746,19.0175988 28.3076923,19.7978654 28.3076923,20.6444444 C28.3076923,21.4910235 28.1078746,22.2712901 27.7082393,22.9847284 C27.3088547,23.6984247 26.762302,24.2609185 26.0688319,24.6719519 C25.3756125,25.0832432 24.6174587,25.2888889 23.7948718,25.2888889 Z M27.2142222,26.5555556 C28.0713651,26.5555556 28.8690794,26.7818131 29.6071111,27.23406 C30.3451429,27.686575 30.9285079,28.3023492 31.3572063,29.0813827 C31.7856508,29.8604162 32,30.702448 32,31.6072099 L32,33.1904762 C32,33.6931217 31.8333968,34.1204374 31.4999365,34.4721552 C31.1667302,34.8241411 30.7619048,35 30.2857143,35 L17.7142857,35 C17.2380952,35 16.8332698,34.8241411 16.5000635,34.4721552 C16.1666032,34.1204374 16,33.6931217 16,33.1904762 L16,31.6072099 C16,30.702448 16.2143492,29.8604162 16.6427937,29.0813827 C17.0714921,28.3023492 17.6548571,27.686575 18.3928889,27.23406 C19.1309206,26.7818131 19.9286349,26.5555556 20.7857778,26.5555556 L21.3927619,26.5555556 C22.2262857,26.957672 23.0951111,27.1587302 24,27.1587302 C24.9048889,27.1587302 25.7737143,26.957672 26.6072381,26.5555556 L27.2142222,26.5555556 Z" id="Fill-1" fill="#FFFFFF" mask="url(#mask-6)"></path>
                        </g>
                        <g id="Group-16-Copy-19" opacity="0.200000003" transform="translate(269.000000, 50.000000)">
                            <circle id="Oval-3-Copy-13" fill="#FFFFFF" fill-rule="nonzero" cx="17.5" cy="17.5" r="17.5"></circle>
                            <mask id="mask-8" fill="white">
                                <use xlink:href="#path-7"></use>
                            </mask>
                            <use id="Ellipse-590" fill="#823792" xlink:href="#path-7"></use>
                            <path d="M16.3589744,17.3555556 C15.7934459,17.3555556 15.2722151,17.2148506 14.7956268,16.9334407 C14.3188661,16.6522074 13.9431111,16.2673432 13.6685342,15.7790247 C13.3937849,15.2908827 13.2564103,14.757016 13.2564103,14.1777778 C13.2564103,13.5985395 13.3937849,13.0646728 13.6685342,12.5765309 C13.9431111,12.0882123 14.3188661,11.7033481 14.7956268,11.4221148 C15.2722151,11.1407049 15.7934459,11 16.3589744,11 C16.9245028,11 17.4457336,11.1407049 17.9223219,11.4221148 C18.3990826,11.7033481 18.7748376,12.0882123 19.0494145,12.5765309 C19.3241638,13.0646728 19.4615385,13.5985395 19.4615385,14.1777778 C19.4615385,14.757016 19.3241638,15.2908827 19.0494145,15.7790247 C18.7748376,16.2673432 18.3990826,16.6522074 17.9223219,16.9334407 C17.4457336,17.2148506 16.9245028,17.3555556 16.3589744,17.3555556 Z M18.7097778,18.2222222 C19.2990635,18.2222222 19.8474921,18.37703 20.3548889,18.6864621 C20.8622857,18.9960776 21.2633492,19.4173968 21.5580794,19.9504198 C21.8526349,20.4834427 22,21.0595697 22,21.6786173 L22,22.7619048 C22,23.1058201 21.8854603,23.398194 21.6562063,23.638843 C21.427127,23.8796755 21.1488095,24 20.8214286,24 L12.1785714,24 C11.8511905,24 11.572873,23.8796755 11.3437937,23.638843 C11.1145397,23.398194 11,23.1058201 11,22.7619048 L11,21.6786173 C11,21.0595697 11.1473651,20.4834427 11.4419206,19.9504198 C11.7366508,19.4173968 12.1377143,18.9960776 12.6451111,18.6864621 C13.1525079,18.37703 13.7009365,18.2222222 14.2902222,18.2222222 L14.7075238,18.2222222 C15.2805714,18.4973545 15.8778889,18.6349206 16.5,18.6349206 C17.1221111,18.6349206 17.7194286,18.4973545 18.2924762,18.2222222 L18.7097778,18.2222222 Z" id="Fill-1" fill="#FFFFFF" mask="url(#mask-8)"></path>
                        </g>
                        <g id="Group-16-Copy-20" opacity="0.400000006" transform="translate(0.000000, 25.000000)">
                            <circle id="Oval-3-Copy-13" fill="#FFFFFF" fill-rule="nonzero" cx="12.5" cy="12.5" r="12.5"></circle>
                            <mask id="mask-10" fill="white">
                                <use xlink:href="#path-9"></use>
                            </mask>
                            <use id="Ellipse-590" fill="#702082" xlink:href="#path-9"></use>
                            <path d="M11.8974359,12.4 C11.4861425,12.4 11.1070655,12.3025889 10.7604558,12.1077667 C10.4137208,11.9130667 10.1404444,11.6466222 9.94075214,11.3085556 C9.74093447,10.9706111 9.64102564,10.6010111 9.64102564,10.2 C9.64102564,9.79898889 9.74093447,9.42938889 9.94075214,9.09144444 C10.1404444,8.75337778 10.4137208,8.48693333 10.7604558,8.29223333 C11.1070655,8.09741111 11.4861425,8 11.8974359,8 C12.3087293,8 12.6878063,8.09741111 13.034416,8.29223333 C13.381151,8.48693333 13.6544274,8.75337778 13.8541197,9.09144444 C14.0539373,9.42938889 14.1538462,9.79898889 14.1538462,10.2 C14.1538462,10.6010111 14.0539373,10.9706111 13.8541197,11.3085556 C13.6544274,11.6466222 13.381151,11.9130667 13.034416,12.1077667 C12.6878063,12.3025889 12.3087293,12.4 11.8974359,12.4 Z M13.6071111,13 C14.0356825,13 14.4345397,13.1071746 14.8035556,13.3213968 C15.1725714,13.535746 15.464254,13.8274286 15.6786032,14.1964444 C15.8928254,14.5654603 16,14.9643175 16,15.3928889 L16,16.1428571 C16,16.3809524 15.9166984,16.5833651 15.7499683,16.7499683 C15.5833651,16.9166984 15.3809524,17 15.1428571,17 L8.85714286,17 C8.61904762,17 8.41663492,16.9166984 8.25003175,16.7499683 C8.08330159,16.5833651 8,16.3809524 8,16.1428571 L8,15.3928889 C8,14.9643175 8.1071746,14.5654603 8.32139683,14.1964444 C8.53574603,13.8274286 8.82742857,13.535746 9.19644444,13.3213968 C9.56546032,13.1071746 9.96431746,13 10.3928889,13 L10.696381,13 C11.1131429,13.1904762 11.5475556,13.2857143 12,13.2857143 C12.4524444,13.2857143 12.8868571,13.1904762 13.303619,13 L13.6071111,13 Z" id="Fill-1" fill="#FFFFFF" mask="url(#mask-10)"></path>
                        </g>
                        <g id="Group-16-Copy-6" transform="translate(95.000000, 70.000000)">
                            <circle id="Oval-3-Copy-13" fill="#FFFFFF" fill-rule="nonzero" cx="60" cy="60" r="60"></circle>
                            <mask id="mask-12" fill="white">
                                <use xlink:href="#path-11"></use>
                            </mask>
                            <use id="Ellipse-590" fill="#702082" xlink:href="#path-11"></use>
                            <path d="M59.4871795,59.5641026 C57.4307123,59.5641026 55.5353276,59.0645584 53.8022792,58.0654701 C52.068604,57.0670085 50.7022222,55.7006268 49.7037607,53.9669516 C48.7046724,52.2339031 48.2051282,50.3385185 48.2051282,48.2820513 C48.2051282,46.225584 48.7046724,44.3301994 49.7037607,42.597151 C50.7022222,40.8634758 52.068604,39.497094 53.8022792,38.4986325 C55.5353276,37.4995442 57.4307123,37 59.4871795,37 C61.5436467,37 63.4390313,37.4995442 65.1720798,38.4986325 C66.905755,39.497094 68.2721368,40.8634758 69.2705983,42.597151 C70.2696866,44.3301994 70.7692308,46.225584 70.7692308,48.2820513 C70.7692308,50.3385185 70.2696866,52.2339031 69.2705983,53.9669516 C68.2721368,55.7006268 66.905755,57.0670085 65.1720798,58.0654701 C63.4390313,59.0645584 61.5436467,59.5641026 59.4871795,59.5641026 Z M68.0355556,62.6410256 C70.1784127,62.6410256 72.1726984,63.190639 74.0177778,64.2892145 C75.8628571,65.3884412 77.3212698,66.8842491 78.3930159,68.7766382 C79.464127,70.6690273 80,72.7144485 80,74.9122507 L80,78.7582418 C80,79.979243 79.5834921,81.0172568 78.7498413,81.8716321 C77.9168254,82.7266585 76.9047619,83.1538462 75.7142857,83.1538462 L44.2857143,83.1538462 C43.0952381,83.1538462 42.0831746,82.7266585 41.2501587,81.8716321 C40.4165079,81.0172568 40,79.979243 40,78.7582418 L40,74.9122507 C40,72.7144485 40.535873,70.6690273 41.6069841,68.7766382 C42.6787302,66.8842491 44.1371429,65.3884412 45.9822222,64.2892145 C47.8273016,63.190639 49.8215873,62.6410256 51.9644444,62.6410256 L53.4819048,62.6410256 C55.5657143,63.6178266 57.7377778,64.1062271 60,64.1062271 C62.2622222,64.1062271 64.4342857,63.6178266 66.5180952,62.6410256 L68.0355556,62.6410256 Z" id="Fill-1" fill="#FFFFFF" mask="url(#mask-12)"></path>
                        </g>
                    </g>
                </g>
            </g>
        </g>
    </g>
</svg>