<?xml version="1.0" encoding="UTF-8"?>
<svg width="61px" height="44px" viewBox="0 0 61 44" version="1.1" xmlns="http://www.w3.org/2000/svg" xmlns:xlink="http://www.w3.org/1999/xlink">
    <!-- Generator: Sketch 51.2 (57519) - http://www.bohemiancoding.com/sketch -->
    <title>handshake</title>
    <desc>Created with Sketch.</desc>
    <defs></defs>
    <g id="Landingpage" stroke="none" stroke-width="1" fill="none" fill-rule="evenodd">
        <g id="Landingpage_v2_final" transform="translate(-301.000000, -3480.000000)" fill="#702082">
            <g id="VORTEILE" transform="translate(1.000000, 2682.000000)">
                <g id="4" transform="translate(260.000000, 758.000000)">
                    <path d="M88.09879,67.0359164 C77.2052969,56.1424234 82.3291521,61.2683621 76.4668568,55.3934429 C76.4668568,55.3934429 74.7050184,53.6394485 72.3828234,54.658312 C70.7528624,55.3726072 68.6542217,56.3461226 67.0751242,57.0893426 C65.3398819,57.9992479 64.0910908,58.2808969 63.5046284,58.2769749 C60.150088,58.2550362 57.4285838,55.5587799 57.4285838,52.2075487 C57.4285838,50.033532 58.5827565,48.1407967 60.3041493,47.0664123 C62.7247621,45.3913482 68.2964613,42.4277827 68.2964613,42.4277827 C68.2964613,42.4277827 66.5990908,40.2769304 62.8807844,40.2769304 C59.1635811,40.2769304 51.3971521,45.3647521 51.3971521,45.3647521 C51.3971521,45.3647521 49.194088,46.7759387 46.0534195,45.5048412 L40.000049,43.3968858 L40.000049,64.438078 C40.000049,64.438078 41.7285504,64.9383788 43.2816646,65.5727632 C43.632439,64.5724067 44.1984334,63.6486518 44.9835699,62.8856992 C47.560205,60.4315042 51.8309014,60.4060111 54.1752802,62.819883 C54.8814864,63.5536657 55.3743109,64.4288858 55.6258095,65.3966407 C56.5704,65.6882173 57.42601,66.2046964 58.1135866,66.9131086 C58.8217538,67.6419889 59.3128624,68.522234 59.5664446,69.4848412 C60.5098095,69.7767855 61.3643164,70.2952256 62.0542217,71.0041281 C62.8311465,71.8053203 63.3487287,72.7730752 63.5904223,73.8215989 C64.5766841,74.1088858 65.4679599,74.6433816 66.1856869,75.3772869 C67.5946674,76.8243844 68.0947231,78.7877159 67.7917482,80.6815543 C67.7941994,80.6815543 67.7988568,80.6815543 67.801063,80.685844 C67.8241047,80.7159944 68.6739543,81.6634039 69.2037928,82.1977772 C70.2425114,83.2372312 71.9384111,83.2372312 72.9801939,82.1977772 C74.0151131,81.1585682 74.0196479,79.4659777 72.9801939,78.4214986 C72.9429348,78.3843621 69.2332078,74.5040279 69.5317705,74.2031365 C69.828127,73.9043287 74.5543889,78.8222786 74.6425114,78.912117 C75.6797593,79.9497326 77.374556,79.9497326 78.4164613,78.912117 C79.4557928,77.8730306 79.4537092,76.1804401 78.4164613,75.1384123 C78.3654752,75.0898774 78.1527064,74.8860557 78.0736535,74.8049192 C78.0736535,74.8049192 73.3877148,70.6304345 73.7443721,70.2737772 C74.1053192,69.9149136 79.9260657,75.3468914 79.9356256,75.3468914 C80.9819432,76.2891532 82.5936423,76.2820446 83.6002496,75.2750696 C84.5795253,74.2957939 84.6006061,72.7467242 83.7323721,71.7028579 C83.7139877,71.647337 79.2963387,67.0306462 79.640985,66.6833036 C79.9909014,66.3314262 84.3620992,70.8324178 84.3712914,70.8417326 C85.406088,71.8789805 87.1033359,71.8789805 88.1452412,70.8417326 C89.1824891,69.8043621 89.1824891,68.109688 88.1452412,67.0631253 C88.1311465,67.0543008 88.112517,67.0449861 88.09879,67.0359164 M60.6025894,76.6024234 C61.0910017,75.3475042 60.9277482,73.9441616 59.9912468,72.9813092 C59.1499766,72.1199387 57.9215309,71.8930752 56.7501994,72.1614875 C57.0776869,70.9997159 56.8967844,69.7631811 56.0509794,68.8905348 C55.2070128,68.031493 53.9807733,67.7999721 52.8096869,68.0708357 C53.1348457,66.9107799 52.9543109,65.6743677 52.1080156,64.8042953 C50.7826228,63.4448301 48.490088,63.5031699 46.9840379,64.9387465 C45.4859543,66.3762841 44.5262886,68.9807409 45.8632022,70.5137549 C47.1981549,72.0390474 48.7319042,71.1110028 49.9011521,70.8445515 C49.5758708,72.0046072 48.6012524,73.083649 49.8015086,74.6019554 C51.0006618,76.1212423 52.6699655,75.1994485 53.8403164,74.935571 C53.5140546,76.0912145 52.5819655,77.2786017 53.7361382,78.6864791 C54.9007287,80.0986462 56.8081716,79.3461114 58.0679933,78.9548914 C57.5817872,80.2049081 56.5411075,81.5522396 57.8781437,83.0623343 C59.2130964,84.5832145 62.2981214,83.8795822 63.8050295,82.4417994 C65.3077705,81.0042618 65.4521493,78.7259443 64.1301883,77.3621894 C63.2177092,76.426546 61.8572635,76.2088747 60.6025894,76.6024234 M100.744807,45.4456435 L100.744807,63.8337214 C100.744807,63.8337214 96.8091967,64.6090529 95.9985671,64.7110251 C95.1902663,64.8127521 92.6506451,65.6328189 90.8098763,63.8636267 C87.9714474,61.1431031 77.8861326,51.1134318 77.8861326,51.1134318 C77.8861326,51.1134318 76.1470908,49.4071142 73.3551131,50.8817883 C70.7920825,52.2326741 66.9926396,54.212429 65.4058206,54.9833482 C62.405854,56.5800947 59.9194251,54.0467242 59.9194251,52.1169749 C59.9194251,50.620117 60.8534752,49.604195 62.188673,48.8570529 C65.8072134,46.6634262 73.4340435,42.3824345 76.6106228,40.694624 C78.5414752,39.6676713 79.9326841,39.5796713 82.5835922,41.8128858 C85.8484167,44.5586574 88.7538875,47.0615097 88.7538875,47.0615097 C88.7538875,47.0615097 89.7014195,47.8524067 91.2127398,47.5338663 C94.9240602,46.7492201 100.744807,45.4456435 100.744807,45.4456435" id="handshake"></path>
                </g>
            </g>
        </g>
    </g>
</svg>