<?xml version="1.0" encoding="UTF-8"?>
<svg width="294px" height="120px" viewBox="0 0 294 120" version="1.1" xmlns="http://www.w3.org/2000/svg" xmlns:xlink="http://www.w3.org/1999/xlink">
    <!-- Generator: Sketch 51.2 (57519) - http://www.bohemiancoding.com/sketch -->
    <title>investoren</title>
    <desc>Created with Sketch.</desc>
    <defs>
        <path d="M0.548563486,71.1206805 C8.89300112,62.1862972 14,50.1895504 14,37 C14,23.8104123 8.89297219,11.8136348 0.548492565,2.87924357 C4.71329831,1.23602413 9.25119273,0.333290667 13.9999253,0.333290667 C34.2504213,0.333290667 50.6666347,16.7493547 50.6666347,36.9999253 C50.6666347,57.2503467 34.2504213,73.6666347 13.9999253,73.6666347 C9.25121969,73.6666347 4.71334983,72.7638991 0.548566222,71.1206776 Z" id="path-1"></path>
        <path d="M49.9999067,4.16661333 C75.3130267,4.16661333 95.8332933,24.6866933 95.8332933,49.9999067 C95.8332933,75.3129333 75.3130267,95.8332933 49.9999067,95.8332933 C24.6869733,95.8332933 4.16661333,75.3129333 4.16661333,49.9999067 C4.16661333,24.6866933 24.6869733,4.16661333 49.9999067,4.16661333 Z" id="path-3"></path>
        <path d="M0.548563486,71.1206805 C8.89300112,62.1862972 14,50.1895504 14,37 C14,23.8104123 8.89297219,11.8136348 0.548492565,2.87924357 C4.71329831,1.23602413 9.25119273,0.333290667 13.9999253,0.333290667 C34.2504213,0.333290667 50.6666347,16.7493547 50.6666347,36.9999253 C50.6666347,57.2503467 34.2504213,73.6666347 13.9999253,73.6666347 C9.25121969,73.6666347 4.71334983,72.7638991 0.548566222,71.1206776 Z" id="path-5"></path>
        <path d="M49.9999067,4.16661333 C75.3130267,4.16661333 95.8332933,24.6866933 95.8332933,49.9999067 C95.8332933,75.3129333 75.3130267,95.8332933 49.9999067,95.8332933 C24.6869733,95.8332933 4.16661333,75.3129333 4.16661333,49.9999067 C4.16661333,24.6866933 24.6869733,4.16661333 49.9999067,4.16661333 Z" id="path-7"></path>
        <path d="M59.999888,4.999936 C90.375632,4.999936 114.999952,29.624032 114.999952,59.999888 C114.999952,90.37552 90.375632,114.999952 59.999888,114.999952 C29.624368,114.999952 4.999936,90.37552 4.999936,59.999888 C4.999936,29.624032 29.624368,4.999936 59.999888,4.999936 Z" id="path-9"></path>
    </defs>
    <g id="Landingpage" stroke="none" stroke-width="1" fill="none" fill-rule="evenodd">
        <g id="Landingpage_v2_final" transform="translate(-542.000000, -2349.000000)">
            <g id="GRAFIK" transform="translate(232.000000, 1904.000000)">
                <g id="grafik" transform="translate(0.000000, 37.000000)">
                    <g id="investoren" transform="translate(310.000000, 408.000000)">
                        <g id="Group-16-Copy-22" opacity="0.200000003" transform="translate(243.000000, 23.000000)">
                            <mask id="mask-2" fill="white">
                                <use xlink:href="#path-1"></use>
                            </mask>
                            <use id="Ellipse-590" fill="#702082" xlink:href="#path-1"></use>
                            <path d="M20,40.2501389 L20,37.7498611 C20,37.5413935 19.9271111,37.3644849 19.7813333,37.218691 C19.6355556,37.072897 19.4582222,37 19.2502222,37 L16.7502222,37 C16.5417778,37 16.3644444,37.072897 16.2186667,37.218691 C16.0728889,37.3644849 16,37.5413935 16,37.7498611 L16,40.2501389 C16,40.4586065 16.0728889,40.6355151 16.2186667,40.781309 C16.3644444,40.927103 16.5417778,41 16.7502222,41 L19.2502222,41 C19.4582222,41 19.6355556,40.927103 19.7813333,40.781309 C19.9271111,40.6355151 20,40.4586065 20,40.2501389 Z M20,34.2501389 L20,31.7498611 C20,31.5413935 19.9271111,31.3644849 19.7813333,31.218691 C19.6355556,31.072897 19.4582222,31 19.2502222,31 L16.7502222,31 C16.5417778,31 16.3644444,31.072897 16.2186667,31.218691 C16.0728889,31.3644849 16,31.5413935 16,31.7498611 L16,34.2501389 C16,34.4586065 16.0728889,34.6355151 16.2186667,34.781309 C16.3644444,34.927103 16.5417778,35 16.7502222,35 L19.2502222,35 C19.4582222,35 19.6355556,34.927103 19.7813333,34.781309 C19.9271111,34.6355151 20,34.4586065 20,34.2501389 Z M20,28.9165278 L20,26.4168055 C20,26.2083843 19.9271111,26.031515 19.7813333,25.8857534 C19.6355556,25.7399919 19.4582222,25.6666667 19.2502222,25.6666667 L16.7502222,25.6666667 C16.5417778,25.6666667 16.3644444,25.7399919 16.2186667,25.8857534 C16.0728889,26.031515 16,26.2083843 16,26.4168055 L16,28.9165278 C16,29.1249491 16.0728889,29.3018183 16.2186667,29.4475799 C16.3644444,29.5933415 16.5417778,29.6666667 16.7502222,29.6666667 L19.2502222,29.6666667 C19.4582222,29.6666667 19.6355556,29.5933415 19.7813333,29.4475799 C19.9271111,29.3018183 20,29.1249491 20,28.9165278 Z M16,51 L16,45.7498333 C16,45.5413734 15.9271111,45.3644714 15.7813333,45.2186829 C15.6355556,45.0728943 15.4582222,45 15.2497778,45 L12.7502222,45 C12.5417778,45 12.3644444,45.0728943 12.2186667,45.2186829 C12.0728889,45.3644714 12,45.5413734 12,45.7498333 L12,51 L16,51 Z M11.2502222,41 C11.4582222,41 11.6355556,40.927103 11.7813333,40.781309 C11.9271111,40.6355151 12,40.4586065 12,40.2501389 L12,37.7498611 C12,37.5413935 11.9271111,37.3644849 11.7813333,37.218691 C11.6355556,37.072897 11.4582222,37 11.2502222,37 L8.75022222,37 C8.54177778,37 8.36444444,37.072897 8.21866667,37.218691 C8.07288889,37.3644849 8,37.5413935 8,37.7498611 L8,40.2501389 C8,40.4586065 8.07288889,40.6355151 8.21866667,40.781309 C8.36444444,40.927103 8.54177778,41 8.75022222,41 L11.2502222,41 Z M8,31.7498611 L8,34.2501389 C8,34.4586065 8.07288889,34.6355151 8.21866667,34.781309 C8.36444444,34.927103 8.54177778,35 8.75022222,35 L11.2502222,35 C11.4582222,35 11.6355556,34.927103 11.7813333,34.781309 C11.9271111,34.6355151 12,34.4586065 12,34.2501389 L12,31.7498611 C12,31.5413935 11.9271111,31.3644849 11.7813333,31.218691 C11.6355556,31.072897 11.4582222,31 11.2502222,31 L8.75022222,31 C8.54177778,31 8.36444444,31.072897 8.21866667,31.218691 C8.07288889,31.3644849 8,31.5413935 8,31.7498611 Z M8,26.4168055 L8,28.9165278 C8,29.1249491 8.07288889,29.3018183 8.21866667,29.4475799 C8.36444444,29.5933415 8.54177778,29.6666667 8.75022222,29.6666667 L11.2502222,29.6666667 C11.4582222,29.6666667 11.6355556,29.5933415 11.7813333,29.4475799 C11.9271111,29.3018183 12,29.1249491 12,28.9165278 L12,26.4168055 C12,26.2083843 11.9271111,26.031515 11.7813333,25.8857534 C11.6355556,25.7399919 11.4582222,25.6666667 11.2502222,25.6666667 L8.75022222,25.6666667 C8.54177778,25.6666667 8.36444444,25.7399919 8.21866667,25.8857534 C8.07288889,26.031515 8,26.2083843 8,26.4168055 Z M26.618836,50.4166667 C26.8173545,50.4166667 26.9862434,50.4869444 27.1250794,50.6266481 C27.2639153,50.7663519 27.3333333,50.9358704 27.3333333,51.1356296 L27.3333333,52.3333333 L0.666666667,52.3333333 L0.666666667,51.1356296 C0.666666667,50.9358704 0.736084656,50.7663519 0.874920635,50.6266481 C1.01375661,50.4869444 1.1826455,50.4166667 1.38074074,50.4166667 L2.57142857,50.4166667 L2.57142857,23.1041667 C2.57142857,22.7050741 2.71026455,22.3656111 2.98793651,22.0862037 C3.26603175,21.8067963 3.60296296,21.6666667 4,21.6666667 L24,21.6666667 C24.397037,21.6666667 24.7339683,21.8067963 25.0120635,22.0862037 C25.2897354,22.3656111 25.4285714,22.7050741 25.4285714,23.1041667 L25.4285714,50.4166667 L26.618836,50.4166667 Z" id="Fill-1" fill="#FFFFFF"></path>
                        </g>
                        <g id="Group-16-Copy-21" opacity="0.400000006" transform="translate(157.000000, 10.000000)">
                            <circle id="Oval-3-Copy-13" fill="#FFFFFF" fill-rule="nonzero" cx="50" cy="50" r="50"></circle>
                            <mask id="mask-4" fill="white">
                                <use xlink:href="#path-3"></use>
                            </mask>
                            <use id="Ellipse-590" fill="#702082" xlink:href="#path-3"></use>
                            <path d="M57.5,54.0626736 L57.5,50.9373264 C57.5,50.6767419 57.4088889,50.4556062 57.2266667,50.2733637 C57.0444444,50.0911212 56.8227778,50 56.5627778,50 L53.4377778,50 C53.1772222,50 52.9555556,50.0911212 52.7733333,50.2733637 C52.5911111,50.4556062 52.5,50.6767419 52.5,50.9373264 L52.5,54.0626736 C52.5,54.3232581 52.5911111,54.5443938 52.7733333,54.7266363 C52.9555556,54.9088788 53.1772222,55 53.4377778,55 L56.5627778,55 C56.8227778,55 57.0444444,54.9088788 57.2266667,54.7266363 C57.4088889,54.5443938 57.5,54.3232581 57.5,54.0626736 Z M57.5,46.5626736 L57.5,43.4373264 C57.5,43.1767419 57.4088889,42.9556062 57.2266667,42.7733637 C57.0444444,42.5911212 56.8227778,42.5 56.5627778,42.5 L53.4377778,42.5 C53.1772222,42.5 52.9555556,42.5911212 52.7733333,42.7733637 C52.5911111,42.9556062 52.5,43.1767419 52.5,43.4373264 L52.5,46.5626736 C52.5,46.8232581 52.5911111,47.0443938 52.7733333,47.2266363 C52.9555556,47.4088788 53.1772222,47.5 53.4377778,47.5 L56.5627778,47.5 C56.8227778,47.5 57.0444444,47.4088788 57.2266667,47.2266363 C57.4088889,47.0443938 57.5,46.8232581 57.5,46.5626736 Z M57.5,39.8956597 L57.5,36.7710069 C57.5,36.5104803 57.4088889,36.2893938 57.2266667,36.1071918 C57.0444444,35.9249898 56.8227778,35.8333333 56.5627778,35.8333333 L53.4377778,35.8333333 C53.1772222,35.8333333 52.9555556,35.9249898 52.7733333,36.1071918 C52.5911111,36.2893938 52.5,36.5104803 52.5,36.7710069 L52.5,39.8956597 C52.5,40.1561863 52.5911111,40.3772729 52.7733333,40.5594749 C52.9555556,40.7416769 53.1772222,40.8333333 53.4377778,40.8333333 L56.5627778,40.8333333 C56.8227778,40.8333333 57.0444444,40.7416769 57.2266667,40.5594749 C57.4088889,40.3772729 57.5,40.1561863 57.5,39.8956597 Z M52.5,67.5 L52.5,60.9372917 C52.5,60.6767168 52.4088889,60.4555893 52.2266667,60.2733536 C52.0444444,60.0911179 51.8227778,60 51.5622222,60 L48.4377778,60 C48.1772222,60 47.9555556,60.0911179 47.7733333,60.2733536 C47.5911111,60.4555893 47.5,60.6767168 47.5,60.9372917 L47.5,67.5 L52.5,67.5 Z M46.5627778,55 C46.8227778,55 47.0444444,54.9088788 47.2266667,54.7266363 C47.4088889,54.5443938 47.5,54.3232581 47.5,54.0626736 L47.5,50.9373264 C47.5,50.6767419 47.4088889,50.4556062 47.2266667,50.2733637 C47.0444444,50.0911212 46.8227778,50 46.5627778,50 L43.4377778,50 C43.1772222,50 42.9555556,50.0911212 42.7733333,50.2733637 C42.5911111,50.4556062 42.5,50.6767419 42.5,50.9373264 L42.5,54.0626736 C42.5,54.3232581 42.5911111,54.5443938 42.7733333,54.7266363 C42.9555556,54.9088788 43.1772222,55 43.4377778,55 L46.5627778,55 Z M42.5,43.4373264 L42.5,46.5626736 C42.5,46.8232581 42.5911111,47.0443938 42.7733333,47.2266363 C42.9555556,47.4088788 43.1772222,47.5 43.4377778,47.5 L46.5627778,47.5 C46.8227778,47.5 47.0444444,47.4088788 47.2266667,47.2266363 C47.4088889,47.0443938 47.5,46.8232581 47.5,46.5626736 L47.5,43.4373264 C47.5,43.1767419 47.4088889,42.9556062 47.2266667,42.7733637 C47.0444444,42.5911212 46.8227778,42.5 46.5627778,42.5 L43.4377778,42.5 C43.1772222,42.5 42.9555556,42.5911212 42.7733333,42.7733637 C42.5911111,42.9556062 42.5,43.1767419 42.5,43.4373264 Z M42.5,36.7710069 L42.5,39.8956597 C42.5,40.1561863 42.5911111,40.3772729 42.7733333,40.5594749 C42.9555556,40.7416769 43.1772222,40.8333333 43.4377778,40.8333333 L46.5627778,40.8333333 C46.8227778,40.8333333 47.0444444,40.7416769 47.2266667,40.5594749 C47.4088889,40.3772729 47.5,40.1561863 47.5,39.8956597 L47.5,36.7710069 C47.5,36.5104803 47.4088889,36.2893938 47.2266667,36.1071918 C47.0444444,35.9249898 46.8227778,35.8333333 46.5627778,35.8333333 L43.4377778,35.8333333 C43.1772222,35.8333333 42.9555556,35.9249898 42.7733333,36.1071918 C42.5911111,36.2893938 42.5,36.5104803 42.5,36.7710069 Z M65.773545,66.7708333 C66.0216931,66.7708333 66.2328042,66.8586806 66.4063492,67.0333102 C66.5798942,67.2079398 66.6666667,67.419838 66.6666667,67.669537 L66.6666667,69.1666667 L33.3333333,69.1666667 L33.3333333,67.669537 C33.3333333,67.419838 33.4201058,67.2079398 33.5936508,67.0333102 C33.7671958,66.8586806 33.9783069,66.7708333 34.2259259,66.7708333 L35.7142857,66.7708333 L35.7142857,32.6302083 C35.7142857,32.1313426 35.8878307,31.7070139 36.2349206,31.3577546 C36.5825397,31.0084954 37.0037037,30.8333333 37.5,30.8333333 L62.5,30.8333333 C62.9962963,30.8333333 63.4174603,31.0084954 63.7650794,31.3577546 C64.1121693,31.7070139 64.2857143,32.1313426 64.2857143,32.6302083 L64.2857143,66.7708333 L65.773545,66.7708333 Z" id="Fill-1" fill="#FFFFFF"></path>
                        </g>
                        <g id="Group-22" transform="translate(68.500000, 60.000000) scale(-1, 1) translate(-68.500000, -60.000000) translate(0.000000, 10.000000)">
                            <g id="Group-16-Copy-24" opacity="0.200000003" transform="translate(86.000000, 13.000000)">
                                <mask id="mask-6" fill="white">
                                    <use xlink:href="#path-5"></use>
                                </mask>
                                <use id="Ellipse-590" fill="#702082" xlink:href="#path-5"></use>
                                <path d="M20,40.2501389 L20,37.7498611 C20,37.5413935 19.9271111,37.3644849 19.7813333,37.218691 C19.6355556,37.072897 19.4582222,37 19.2502222,37 L16.7502222,37 C16.5417778,37 16.3644444,37.072897 16.2186667,37.218691 C16.0728889,37.3644849 16,37.5413935 16,37.7498611 L16,40.2501389 C16,40.4586065 16.0728889,40.6355151 16.2186667,40.781309 C16.3644444,40.927103 16.5417778,41 16.7502222,41 L19.2502222,41 C19.4582222,41 19.6355556,40.927103 19.7813333,40.781309 C19.9271111,40.6355151 20,40.4586065 20,40.2501389 Z M20,34.2501389 L20,31.7498611 C20,31.5413935 19.9271111,31.3644849 19.7813333,31.218691 C19.6355556,31.072897 19.4582222,31 19.2502222,31 L16.7502222,31 C16.5417778,31 16.3644444,31.072897 16.2186667,31.218691 C16.0728889,31.3644849 16,31.5413935 16,31.7498611 L16,34.2501389 C16,34.4586065 16.0728889,34.6355151 16.2186667,34.781309 C16.3644444,34.927103 16.5417778,35 16.7502222,35 L19.2502222,35 C19.4582222,35 19.6355556,34.927103 19.7813333,34.781309 C19.9271111,34.6355151 20,34.4586065 20,34.2501389 Z M20,28.9165278 L20,26.4168055 C20,26.2083843 19.9271111,26.031515 19.7813333,25.8857534 C19.6355556,25.7399919 19.4582222,25.6666667 19.2502222,25.6666667 L16.7502222,25.6666667 C16.5417778,25.6666667 16.3644444,25.7399919 16.2186667,25.8857534 C16.0728889,26.031515 16,26.2083843 16,26.4168055 L16,28.9165278 C16,29.1249491 16.0728889,29.3018183 16.2186667,29.4475799 C16.3644444,29.5933415 16.5417778,29.6666667 16.7502222,29.6666667 L19.2502222,29.6666667 C19.4582222,29.6666667 19.6355556,29.5933415 19.7813333,29.4475799 C19.9271111,29.3018183 20,29.1249491 20,28.9165278 Z M16,51 L16,45.7498333 C16,45.5413734 15.9271111,45.3644714 15.7813333,45.2186829 C15.6355556,45.0728943 15.4582222,45 15.2497778,45 L12.7502222,45 C12.5417778,45 12.3644444,45.0728943 12.2186667,45.2186829 C12.0728889,45.3644714 12,45.5413734 12,45.7498333 L12,51 L16,51 Z M11.2502222,41 C11.4582222,41 11.6355556,40.927103 11.7813333,40.781309 C11.9271111,40.6355151 12,40.4586065 12,40.2501389 L12,37.7498611 C12,37.5413935 11.9271111,37.3644849 11.7813333,37.218691 C11.6355556,37.072897 11.4582222,37 11.2502222,37 L8.75022222,37 C8.54177778,37 8.36444444,37.072897 8.21866667,37.218691 C8.07288889,37.3644849 8,37.5413935 8,37.7498611 L8,40.2501389 C8,40.4586065 8.07288889,40.6355151 8.21866667,40.781309 C8.36444444,40.927103 8.54177778,41 8.75022222,41 L11.2502222,41 Z M8,31.7498611 L8,34.2501389 C8,34.4586065 8.07288889,34.6355151 8.21866667,34.781309 C8.36444444,34.927103 8.54177778,35 8.75022222,35 L11.2502222,35 C11.4582222,35 11.6355556,34.927103 11.7813333,34.781309 C11.9271111,34.6355151 12,34.4586065 12,34.2501389 L12,31.7498611 C12,31.5413935 11.9271111,31.3644849 11.7813333,31.218691 C11.6355556,31.072897 11.4582222,31 11.2502222,31 L8.75022222,31 C8.54177778,31 8.36444444,31.072897 8.21866667,31.218691 C8.07288889,31.3644849 8,31.5413935 8,31.7498611 Z M8,26.4168055 L8,28.9165278 C8,29.1249491 8.07288889,29.3018183 8.21866667,29.4475799 C8.36444444,29.5933415 8.54177778,29.6666667 8.75022222,29.6666667 L11.2502222,29.6666667 C11.4582222,29.6666667 11.6355556,29.5933415 11.7813333,29.4475799 C11.9271111,29.3018183 12,29.1249491 12,28.9165278 L12,26.4168055 C12,26.2083843 11.9271111,26.031515 11.7813333,25.8857534 C11.6355556,25.7399919 11.4582222,25.6666667 11.2502222,25.6666667 L8.75022222,25.6666667 C8.54177778,25.6666667 8.36444444,25.7399919 8.21866667,25.8857534 C8.07288889,26.031515 8,26.2083843 8,26.4168055 Z M26.618836,50.4166667 C26.8173545,50.4166667 26.9862434,50.4869444 27.1250794,50.6266481 C27.2639153,50.7663519 27.3333333,50.9358704 27.3333333,51.1356296 L27.3333333,52.3333333 L0.666666667,52.3333333 L0.666666667,51.1356296 C0.666666667,50.9358704 0.736084656,50.7663519 0.874920635,50.6266481 C1.01375661,50.4869444 1.1826455,50.4166667 1.38074074,50.4166667 L2.57142857,50.4166667 L2.57142857,23.1041667 C2.57142857,22.7050741 2.71026455,22.3656111 2.98793651,22.0862037 C3.26603175,21.8067963 3.60296296,21.6666667 4,21.6666667 L24,21.6666667 C24.397037,21.6666667 24.7339683,21.8067963 25.0120635,22.0862037 C25.2897354,22.3656111 25.4285714,22.7050741 25.4285714,23.1041667 L25.4285714,50.4166667 L26.618836,50.4166667 Z" id="Fill-1" fill="#FFFFFF"></path>
                            </g>
                            <g id="Group-16-Copy-23" opacity="0.400000006">
                                <circle id="Oval-3-Copy-13" fill="#FFFFFF" fill-rule="nonzero" cx="50" cy="50" r="50"></circle>
                                <mask id="mask-8" fill="white">
                                    <use xlink:href="#path-7"></use>
                                </mask>
                                <use id="Ellipse-590" fill="#702082" xlink:href="#path-7"></use>
                                <path d="M57.5,54.0626736 L57.5,50.9373264 C57.5,50.6767419 57.4088889,50.4556062 57.2266667,50.2733637 C57.0444444,50.0911212 56.8227778,50 56.5627778,50 L53.4377778,50 C53.1772222,50 52.9555556,50.0911212 52.7733333,50.2733637 C52.5911111,50.4556062 52.5,50.6767419 52.5,50.9373264 L52.5,54.0626736 C52.5,54.3232581 52.5911111,54.5443938 52.7733333,54.7266363 C52.9555556,54.9088788 53.1772222,55 53.4377778,55 L56.5627778,55 C56.8227778,55 57.0444444,54.9088788 57.2266667,54.7266363 C57.4088889,54.5443938 57.5,54.3232581 57.5,54.0626736 Z M57.5,46.5626736 L57.5,43.4373264 C57.5,43.1767419 57.4088889,42.9556062 57.2266667,42.7733637 C57.0444444,42.5911212 56.8227778,42.5 56.5627778,42.5 L53.4377778,42.5 C53.1772222,42.5 52.9555556,42.5911212 52.7733333,42.7733637 C52.5911111,42.9556062 52.5,43.1767419 52.5,43.4373264 L52.5,46.5626736 C52.5,46.8232581 52.5911111,47.0443938 52.7733333,47.2266363 C52.9555556,47.4088788 53.1772222,47.5 53.4377778,47.5 L56.5627778,47.5 C56.8227778,47.5 57.0444444,47.4088788 57.2266667,47.2266363 C57.4088889,47.0443938 57.5,46.8232581 57.5,46.5626736 Z M57.5,39.8956597 L57.5,36.7710069 C57.5,36.5104803 57.4088889,36.2893938 57.2266667,36.1071918 C57.0444444,35.9249898 56.8227778,35.8333333 56.5627778,35.8333333 L53.4377778,35.8333333 C53.1772222,35.8333333 52.9555556,35.9249898 52.7733333,36.1071918 C52.5911111,36.2893938 52.5,36.5104803 52.5,36.7710069 L52.5,39.8956597 C52.5,40.1561863 52.5911111,40.3772729 52.7733333,40.5594749 C52.9555556,40.7416769 53.1772222,40.8333333 53.4377778,40.8333333 L56.5627778,40.8333333 C56.8227778,40.8333333 57.0444444,40.7416769 57.2266667,40.5594749 C57.4088889,40.3772729 57.5,40.1561863 57.5,39.8956597 Z M52.5,67.5 L52.5,60.9372917 C52.5,60.6767168 52.4088889,60.4555893 52.2266667,60.2733536 C52.0444444,60.0911179 51.8227778,60 51.5622222,60 L48.4377778,60 C48.1772222,60 47.9555556,60.0911179 47.7733333,60.2733536 C47.5911111,60.4555893 47.5,60.6767168 47.5,60.9372917 L47.5,67.5 L52.5,67.5 Z M46.5627778,55 C46.8227778,55 47.0444444,54.9088788 47.2266667,54.7266363 C47.4088889,54.5443938 47.5,54.3232581 47.5,54.0626736 L47.5,50.9373264 C47.5,50.6767419 47.4088889,50.4556062 47.2266667,50.2733637 C47.0444444,50.0911212 46.8227778,50 46.5627778,50 L43.4377778,50 C43.1772222,50 42.9555556,50.0911212 42.7733333,50.2733637 C42.5911111,50.4556062 42.5,50.6767419 42.5,50.9373264 L42.5,54.0626736 C42.5,54.3232581 42.5911111,54.5443938 42.7733333,54.7266363 C42.9555556,54.9088788 43.1772222,55 43.4377778,55 L46.5627778,55 Z M42.5,43.4373264 L42.5,46.5626736 C42.5,46.8232581 42.5911111,47.0443938 42.7733333,47.2266363 C42.9555556,47.4088788 43.1772222,47.5 43.4377778,47.5 L46.5627778,47.5 C46.8227778,47.5 47.0444444,47.4088788 47.2266667,47.2266363 C47.4088889,47.0443938 47.5,46.8232581 47.5,46.5626736 L47.5,43.4373264 C47.5,43.1767419 47.4088889,42.9556062 47.2266667,42.7733637 C47.0444444,42.5911212 46.8227778,42.5 46.5627778,42.5 L43.4377778,42.5 C43.1772222,42.5 42.9555556,42.5911212 42.7733333,42.7733637 C42.5911111,42.9556062 42.5,43.1767419 42.5,43.4373264 Z M42.5,36.7710069 L42.5,39.8956597 C42.5,40.1561863 42.5911111,40.3772729 42.7733333,40.5594749 C42.9555556,40.7416769 43.1772222,40.8333333 43.4377778,40.8333333 L46.5627778,40.8333333 C46.8227778,40.8333333 47.0444444,40.7416769 47.2266667,40.5594749 C47.4088889,40.3772729 47.5,40.1561863 47.5,39.8956597 L47.5,36.7710069 C47.5,36.5104803 47.4088889,36.2893938 47.2266667,36.1071918 C47.0444444,35.9249898 46.8227778,35.8333333 46.5627778,35.8333333 L43.4377778,35.8333333 C43.1772222,35.8333333 42.9555556,35.9249898 42.7733333,36.1071918 C42.5911111,36.2893938 42.5,36.5104803 42.5,36.7710069 Z M65.773545,66.7708333 C66.0216931,66.7708333 66.2328042,66.8586806 66.4063492,67.0333102 C66.5798942,67.2079398 66.6666667,67.419838 66.6666667,67.669537 L66.6666667,69.1666667 L33.3333333,69.1666667 L33.3333333,67.669537 C33.3333333,67.419838 33.4201058,67.2079398 33.5936508,67.0333102 C33.7671958,66.8586806 33.9783069,66.7708333 34.2259259,66.7708333 L35.7142857,66.7708333 L35.7142857,32.6302083 C35.7142857,32.1313426 35.8878307,31.7070139 36.2349206,31.3577546 C36.5825397,31.0084954 37.0037037,30.8333333 37.5,30.8333333 L62.5,30.8333333 C62.9962963,30.8333333 63.4174603,31.0084954 63.7650794,31.3577546 C64.1121693,31.7070139 64.2857143,32.1313426 64.2857143,32.6302083 L64.2857143,66.7708333 L65.773545,66.7708333 Z" id="Fill-1" fill="#FFFFFF"></path>
                            </g>
                        </g>
                        <g id="Group-16-Copy-11" transform="translate(87.000000, 0.000000)">
                            <circle id="Oval-3-Copy-13" fill="#FFFFFF" fill-rule="nonzero" cx="60" cy="60" r="60"></circle>
                            <mask id="mask-10" fill="white">
                                <use xlink:href="#path-9"></use>
                            </mask>
                            <use id="Ellipse-590" fill="#702082" xlink:href="#path-9"></use>
                            <path d="M69,64.8752084 L69,61.1247916 C69,60.8120902 68.8906667,60.5467274 68.672,60.3280364 C68.4533333,60.1093455 68.1873333,60 67.8753333,60 L64.1253333,60 C63.8126667,60 63.5466667,60.1093455 63.328,60.3280364 C63.1093333,60.5467274 63,60.8120902 63,61.1247916 L63,64.8752084 C63,65.1879098 63.1093333,65.4532726 63.328,65.6719636 C63.5466667,65.8906545 63.8126667,66 64.1253333,66 L67.8753333,66 C68.1873333,66 68.4533333,65.8906545 68.672,65.6719636 C68.8906667,65.4532726 69,65.1879098 69,64.8752084 Z M69,55.8752084 L69,52.1247916 C69,51.8120902 68.8906667,51.5467274 68.672,51.3280364 C68.4533333,51.1093455 68.1873333,51 67.8753333,51 L64.1253333,51 C63.8126667,51 63.5466667,51.1093455 63.328,51.3280364 C63.1093333,51.5467274 63,51.8120902 63,52.1247916 L63,55.8752084 C63,56.1879098 63.1093333,56.4532726 63.328,56.6719636 C63.5466667,56.8906545 63.8126667,57 64.1253333,57 L67.8753333,57 C68.1873333,57 68.4533333,56.8906545 68.672,56.6719636 C68.8906667,56.4532726 69,56.1879098 69,55.8752084 Z M69,47.8747917 L69,44.1252083 C69,43.8125764 68.8906667,43.5472725 68.672,43.3286302 C68.4533333,43.1099878 68.1873333,43 67.8753333,43 L64.1253333,43 C63.8126667,43 63.5466667,43.1099878 63.328,43.3286302 C63.1093333,43.5472725 63,43.8125764 63,44.1252083 L63,47.8747917 C63,48.1874236 63.1093333,48.4527275 63.328,48.6713698 C63.5466667,48.8900122 63.8126667,49 64.1253333,49 L67.8753333,49 C68.1873333,49 68.4533333,48.8900122 68.672,48.6713698 C68.8906667,48.4527275 69,48.1874236 69,47.8747917 Z M63,81 L63,73.12475 C63,72.8120602 62.8906667,72.5467072 62.672,72.3280243 C62.4533333,72.1093414 62.1873333,72 61.8746667,72 L58.1253333,72 C57.8126667,72 57.5466667,72.1093414 57.328,72.3280243 C57.1093333,72.5467072 57,72.8120602 57,73.12475 L57,81 L63,81 Z M55.8753333,66 C56.1873333,66 56.4533333,65.8906545 56.672,65.6719636 C56.8906667,65.4532726 57,65.1879098 57,64.8752084 L57,61.1247916 C57,60.8120902 56.8906667,60.5467274 56.672,60.3280364 C56.4533333,60.1093455 56.1873333,60 55.8753333,60 L52.1253333,60 C51.8126667,60 51.5466667,60.1093455 51.328,60.3280364 C51.1093333,60.5467274 51,60.8120902 51,61.1247916 L51,64.8752084 C51,65.1879098 51.1093333,65.4532726 51.328,65.6719636 C51.5466667,65.8906545 51.8126667,66 52.1253333,66 L55.8753333,66 Z M51,52.1247916 L51,55.8752084 C51,56.1879098 51.1093333,56.4532726 51.328,56.6719636 C51.5466667,56.8906545 51.8126667,57 52.1253333,57 L55.8753333,57 C56.1873333,57 56.4533333,56.8906545 56.672,56.6719636 C56.8906667,56.4532726 57,56.1879098 57,55.8752084 L57,52.1247916 C57,51.8120902 56.8906667,51.5467274 56.672,51.3280364 C56.4533333,51.1093455 56.1873333,51 55.8753333,51 L52.1253333,51 C51.8126667,51 51.5466667,51.1093455 51.328,51.3280364 C51.1093333,51.5467274 51,51.8120902 51,52.1247916 Z M51,44.1252083 L51,47.8747917 C51,48.1874236 51.1093333,48.4527275 51.328,48.6713698 C51.5466667,48.8900122 51.8126667,49 52.1253333,49 L55.8753333,49 C56.1873333,49 56.4533333,48.8900122 56.672,48.6713698 C56.8906667,48.4527275 57,48.1874236 57,47.8747917 L57,44.1252083 C57,43.8125764 56.8906667,43.5472725 56.672,43.3286302 C56.4533333,43.1099878 56.1873333,43 55.8753333,43 L52.1253333,43 C51.8126667,43 51.5466667,43.1099878 51.328,43.3286302 C51.1093333,43.5472725 51,43.8125764 51,44.1252083 Z M78.928254,80.125 C79.2260317,80.125 79.4793651,80.2304167 79.687619,80.4399722 C79.895873,80.6495278 80,80.9038056 80,81.2034444 L80,83 L40,83 L40,81.2034444 C40,80.9038056 40.104127,80.6495278 40.312381,80.4399722 C40.5206349,80.2304167 40.7739683,80.125 41.0711111,80.125 L42.8571429,80.125 L42.8571429,39.15625 C42.8571429,38.5576111 43.0653968,38.0484167 43.4819048,37.6293056 C43.8990476,37.2101944 44.4044444,37 45,37 L75,37 C75.5955556,37 76.1009524,37.2101944 76.5180952,37.6293056 C76.9346032,38.0484167 77.1428571,38.5576111 77.1428571,39.15625 L77.1428571,80.125 L78.928254,80.125 Z" id="Fill-1" fill="#FFFFFF"></path>
                        </g>
                    </g>
                </g>
            </g>
        </g>
    </g>
</svg>