<?xml version="1.0" encoding="UTF-8"?>
<svg width="48px" height="48px" viewBox="0 0 48 48" version="1.1" xmlns="http://www.w3.org/2000/svg" xmlns:xlink="http://www.w3.org/1999/xlink">
    <!-- Generator: Sketch 51.2 (57519) - http://www.bohemiancoding.com/sketch -->
    <title>lifecycle_management</title>
    <desc>Created with Sketch.</desc>
    <defs></defs>
    <g id="Landingpage" stroke="none" stroke-width="1" fill="none" fill-rule="evenodd">
        <g id="Landingpage_v2_final" transform="translate(-301.000000, -3962.000000)" fill="#FFFFFF">
            <g id="VORTEILE" transform="translate(1.000000, 2682.000000)">
                <g id="7" transform="translate(260.000000, 1240.000000)">
                    <g id="lifecycle_management" transform="translate(40.000000, 40.000000)">
                        <path d="M22.9005841,7.99332042 L22.9005841,11.2283377 L32.5527363,5.6556872 L22.9005841,0.0830366782 L22.9005841,3.34529273 C17.1100235,3.53347266 11.7226464,6.18950035 8.03652872,10.6997564 L11.6327917,13.6388844 C14.4329855,10.2125315 18.5100789,8.17934118 22.9005841,7.99332042" id="Fill-1"></path>
                        <path d="M44.6104028,22.9835875 C44.4220567,17.1928609 41.7661121,11.8055668 37.255773,8.11944913 L34.3168111,11.7157121 C37.743081,14.5159059 39.7761052,18.5929993 39.9620429,22.9835875 L36.7273578,22.9835875 L42.3000913,32.6358228 L47.8727419,22.9835875 L44.6104028,22.9835875 Z" id="Fill-4"></path>
                        <path d="M24.9720415,40.0451958 L24.9720415,36.8105107 L15.3199723,42.3831612 L24.9720415,47.9558948 L24.9720415,44.6934727 C30.7626851,44.5051266 36.1502284,41.849182 39.8360969,37.3388429 L36.239917,34.3997979 C33.4397232,37.8259848 29.3625467,39.8591751 24.9720415,40.0451958" id="Fill-6"></path>
                        <path d="M7.91035848,25.0550948 L11.1452097,25.0550948 L5.57272526,15.4029426 L-8.30449827e-06,25.0550948 L3.2623308,25.0550948 C3.45059377,30.8457384 6.10653841,36.2332817 10.6167945,39.9191502 L13.5559225,36.3228872 C10.1295696,33.5227765 8.09637924,29.4456 7.91035848,25.0550948" id="Fill-8"></path>
                    </g>
                </g>
            </g>
        </g>
    </g>
</svg>
