<?xml version="1.0" encoding="UTF-8"?>
<svg width="50px" height="48px" viewBox="0 0 50 48" version="1.1" xmlns="http://www.w3.org/2000/svg" xmlns:xlink="http://www.w3.org/1999/xlink">
    <!-- Generator: Sketch 51.2 (57519) - http://www.bohemiancoding.com/sketch -->
    <title>market</title>
    <desc>Created with Sketch.</desc>
    <defs></defs>
    <g id="Landingpage" stroke="none" stroke-width="1" fill="none" fill-rule="evenodd">
        <g id="Landingpage_v2_final" transform="translate(-779.000000, -3480.000000)" fill="#FFFFFF">
            <g id="VORTEILE" transform="translate(1.000000, 2682.000000)">
                <g id="5" transform="translate(738.000000, 758.000000)">
                    <g id="market" transform="translate(40.000000, 40.000000)">
                        <path d="M18.3306783,15.6803478 L15.3473739,12.8608696 C15.6948522,12.2295652 15.9098087,11.5147826 15.9098087,10.7436522 C15.9098087,8.29982609 13.9303304,6.32034783 11.4854609,6.32034783 C9.0405913,6.32034783 7.05798261,8.29878261 7.05798261,10.7436522 C7.05798261,13.1885217 9.0405913,15.1690435 11.4854609,15.1690435 C12.3473739,15.1690435 13.1445913,14.9123478 13.8249391,14.4866087 L16.8040696,17.3029565 C17.2548522,16.7071304 17.7630261,16.1613913 18.3306783,15.6803478" id="Fill-1"></path>
                        <path d="M30.9497739,15.3277565 L34.9139478,8.6568 C35.3042087,8.76845217 35.7090783,8.8488 36.1337739,8.8488 C38.5817739,8.8488 40.5622957,6.86827826 40.5622957,4.4234087 C40.5622957,1.97958261 38.5817739,0.000104347826 36.1337739,0.000104347826 C33.6889043,0.000104347826 31.7104696,1.97853913 31.7104696,4.4234087 C31.7104696,5.63697391 32.1998609,6.73366957 32.9908174,7.53401739 L29.0391652,14.1861913 C29.7184696,14.4940174 30.3591652,14.8780174 30.9497739,15.3277565" id="Fill-3"></path>
                        <path d="M44.6209043,20.9124522 C42.7186435,20.9124522 41.1054261,22.1218435 40.4803826,23.8081043 L34.9729043,23.2644522 C34.9729043,23.3061913 34.9802087,23.3458435 34.9802087,23.3865391 C34.9802087,24.1044522 34.9009043,24.8046261 34.7569043,25.482887 L40.2622957,26.0254957 C40.5962087,28.1385391 42.4149913,29.7580174 44.6209043,29.7580174 C47.0647304,29.7580174 49.0431652,27.7795826 49.0431652,25.3357565 C49.0431652,22.8929739 47.0647304,20.9124522 44.6209043,20.9124522" id="Fill-5"></path>
                        <path d="M29.4232696,38.3092174 L28.1909217,32.9290435 C27.4959652,33.1711304 26.7738783,33.3443478 26.0184,33.4309565 L27.2528348,38.8121739 C25.8378783,39.552 24.8632696,41.013913 24.8632696,42.7210435 C24.8632696,45.1648696 26.8406609,47.1422609 29.2907478,47.1422609 C31.7345739,47.1422609 33.7119652,45.1638261 33.7119652,42.7210435 C33.7150957,40.322087 31.8034435,38.3801739 29.4232696,38.3092174" id="Fill-7"></path>
                        <path d="M24.8661913,15.7990957 C29.0568,15.7990957 32.4533217,19.1956174 32.4533217,23.3862261 C32.4533217,27.5768348 29.0568,30.9733565 24.8661913,30.9733565 C20.6755826,30.9733565 17.2790609,27.5768348 17.2790609,23.3862261 C17.2790609,19.1956174 20.6755826,15.7990957 24.8661913,15.7990957" id="Fill-12"></path>
                        <path d="M14.981113,25.5225391 L8.12546087,27.8192348 C7.33450435,26.610887 5.97276522,25.8084522 4.4232,25.8084522 C1.97833043,25.8084522 -0.000104347826,27.7889739 -0.000104347826,30.2328 C-0.000104347826,32.678713 1.97833043,34.6592348 4.4232,34.6592348 C6.86598261,34.6592348 8.84963478,32.678713 8.84963478,30.2328 C8.84963478,30.1305391 8.82772174,30.0366261 8.81937391,29.9354087 L15.6969391,27.6324522 C15.3870261,26.9646261 15.1407652,26.2602783 14.981113,25.5225391" id="Fill-9"></path>
                    </g>
                </g>
            </g>
        </g>
    </g>
</svg>
