<?xml version="1.0" encoding="UTF-8"?>
<svg width="50px" height="40px" viewBox="0 0 50 40" version="1.1" xmlns="http://www.w3.org/2000/svg" xmlns:xlink="http://www.w3.org/1999/xlink">
    <!-- Generator: Sketch 51.2 (57519) - http://www.bohemiancoding.com/sketch -->
    <title>price</title>
    <desc>Created with Sketch.</desc>
    <defs></defs>
    <g id="Landingpage" stroke="none" stroke-width="1" fill="none" fill-rule="evenodd">
        <g id="Landingpage_v2_final" transform="translate(-1368.000000, -5034.000000)" fill="#FFFFFF">
            <g id="PROZESS" transform="translate(290.000000, 4582.000000)">
                <g id="02" transform="translate(826.000000, 392.000000)">
                    <path d="M262.808544,70.6740475 C262.150186,71.3241388 261.355895,71.6493666 260.425489,71.6493666 C259.495451,71.6493666 258.701161,71.3241388 258.042803,70.6740475 C257.384445,70.0238651 257.055588,69.2397119 257.055588,68.3209501 C257.055588,67.4020974 257.384445,66.6176709 258.042803,65.9678528 C258.701161,65.3176704 259.495451,64.9924426 260.425489,64.9924426 C261.355895,64.9924426 262.150186,65.3176704 262.808544,65.9678528 C263.466533,66.6176709 263.795942,67.4021884 263.795942,68.3209501 C263.79585,69.2397119 263.466533,70.0238651 262.808544,70.6740475 M291.889174,83.2984601 C291.889174,84.2173128 291.564467,84.9968213 290.915331,85.6384427 L277.987389,98.4317077 C277.302933,99.0731469 276.50394,99.393821 275.591147,99.393821 C274.661017,99.393821 273.871153,99.0731469 273.221648,98.4317077 L254.395966,79.8140326 C253.729216,79.1724112 253.162893,78.2974564 252.697551,77.1877111 C252.232302,76.0779657 252,75.064213 252,74.1454513 L252,63.3284165 C252,62.4268679 252.333467,61.6467219 253.000678,60.9879785 C253.667428,60.3295994 254.457569,60 255.370177,60 L266.323229,60 C267.253544,60 268.280689,60.2296904 269.40402,60.6889802 C270.527443,61.1481789 271.422622,61.7070134 272.089557,62.3662121 L290.914963,80.9319747 C291.564467,81.6082044 291.889174,82.3970936 291.889174,83.2984601 Z M301.025235,80.9322752 C301.675017,81.6083228 301.999631,82.3971209 302,83.2984874 C302,84.2173402 301.675017,84.9968486 301.025235,85.6385611 L288.097201,98.4318261 C287.413391,99.0731743 286.614582,99.3939394 285.70142,99.3939394 C285.069806,99.3939394 284.551991,99.2726279 284.147975,99.0298227 C283.744605,98.7871086 283.279725,98.3971267 282.752411,97.8596948 L295.127587,85.63847 C295.777369,84.9967576 296.102444,84.2172491 296.102444,83.2983963 C296.102444,82.3971209 295.777369,81.6083228 295.127587,80.9322752 L276.302089,62.3666038 C275.635062,61.7076782 274.739883,61.1488438 273.616184,60.6892808 C272.492853,60.230082 271.466168,60.0003916 270.535854,60.0003916 L276.433594,60.0003916 C277.364001,60.0003916 278.390962,60.230082 279.513832,60.6892808 C280.63744,61.1485705 281.532803,61.707405 282.199461,62.3666038 L301.025235,80.9322752 Z" id="price"></path>
                </g>
            </g>
        </g>
    </g>
</svg>
