<?xml version="1.0" encoding="UTF-8"?>
<svg width="50px" height="48px" viewBox="0 0 50 48" version="1.1" xmlns="http://www.w3.org/2000/svg" xmlns:xlink="http://www.w3.org/1999/xlink">
    <!-- Generator: Sketch 51.2 (57519) - http://www.bohemiancoding.com/sketch -->
    <title>quality</title>
    <desc>Created with Sketch.</desc>
    <defs></defs>
    <g id="Landingpage" stroke="none" stroke-width="1" fill="none" fill-rule="evenodd">
        <g id="Landingpage_v2_final" transform="translate(-1257.000000, -3962.000000)" fill="#702082">
            <g id="VORTEILE" transform="translate(1.000000, 2682.000000)">
                <g id="9" transform="translate(1216.000000, 1240.000000)">
                    <g id="Group-5" transform="translate(40.000000, 40.000000)">
                        <path d="M17.0322581,24.7741935 L7.74193548,24.7741935 C6.8876129,24.7741935 6.19354839,24.0809032 6.19354839,23.2258065 C6.19354839,22.3707097 6.8876129,21.6774194 7.74193548,21.6774194 L17.0322581,21.6774194 C17.888129,21.6774194 18.5806452,22.3707097 18.5806452,23.2258065 C18.5806452,24.0809032 17.888129,24.7741935 17.0322581,24.7741935 Z M7.74193548,13.9354839 L23.2258065,13.9354839 C24.0816774,13.9354839 24.7741935,14.6287742 24.7741935,15.483871 C24.7741935,16.3389677 24.0816774,17.0322581 23.2258065,17.0322581 L7.74193548,17.0322581 C6.8876129,17.0322581 6.19354839,16.3389677 6.19354839,15.483871 C6.19354839,14.6287742 6.8876129,13.9354839 7.74193548,13.9354839 Z M7.74193548,6.19354839 C7.74329032,6.19354839 7.74435484,6.19432258 7.74570968,6.19432258 L38.7059032,6.19432258 C38.7072581,6.19432258 38.7083226,6.19354839 38.7096774,6.19354839 C39.5655484,6.19354839 40.2580645,6.8876129 40.2580645,7.74193548 C40.2580645,8.59780645 39.5655484,9.29032258 38.7096774,9.29032258 L38.7096774,9.29109677 L7.74193548,9.29109677 L7.74193548,9.29032258 C6.8876129,9.29032258 6.19354839,8.59780645 6.19354839,7.74193548 C6.19354839,6.8876129 6.8876129,6.19354839 7.74193548,6.19354839 Z M29.151,32.2333548 C28.9982903,31.7593548 28.6262903,31.388129 28.1522903,31.2353226 L26.4859355,30.6977419 L26.8526129,28.9845484 C26.9569355,28.4984516 26.8216452,27.9910645 26.4874839,27.6221613 L25.3132258,26.3225806 L26.4873871,25.0229032 C26.8215484,24.6539032 26.9569355,24.1466129 26.8525161,23.6605161 L26.4858387,21.9473226 L28.1521935,21.4097419 C28.6261935,21.2570323 28.9981935,20.8858065 29.1509032,20.4117097 L29.6892581,18.743129 L31.4016774,19.1113548 C31.8885484,19.218 32.3951613,19.0796129 32.7656129,18.7462258 L34.0645161,17.5712903 L35.3634194,18.7462258 C35.7330968,19.0796129 36.2373871,19.2187742 36.7273548,19.1113548 L38.4397742,18.743129 L38.978129,20.4117097 C39.1308387,20.8857097 39.5028387,21.2569355 39.9768387,21.4097419 L41.6430968,21.9473226 L41.2765161,23.6605161 C41.1721935,24.1466129 41.3074839,24.654 41.6416452,25.0229032 L42.8158065,26.3225806 L41.6416452,27.6222581 C41.3074839,27.9912581 41.1720968,28.4985484 41.2765161,28.9846452 L41.6430968,30.6978387 L39.9768387,31.2354194 C39.5028387,31.388129 39.1308387,31.7593548 38.978129,32.2334516 L38.4405484,33.9012581 L36.728129,33.5322581 C36.2434839,33.4263871 35.7331935,33.5625484 35.3634194,33.8973871 L34.0645161,35.0730968 L32.7656129,33.8974839 C32.4782903,33.6373548 32.1070645,33.4975161 31.7268387,33.4975161 C31.6179677,33.4975161 31.5090968,33.5088387 31.401,33.5322581 L29.6885806,33.9012581 L29.151,32.2333548 Z M46.4516129,0 L3.09677419,0 C1.38648387,0 0,1.3863871 0,3.09677419 L0,30.9677419 C0,32.6709677 1.39354839,34.0645161 3.09677419,34.0645161 L26.3225806,34.0645161 L26.3225806,46.4516129 C26.3225806,47.0382581 26.6537419,47.5743871 27.1784516,47.8366452 C27.7031613,48.0983226 28.329871,48.0408387 28.8001935,47.6900323 L34.0645161,43.7419355 L39.3288387,47.6900323 C39.6025161,47.8949032 39.929129,48 40.2580645,48 C40.4939032,48 40.7313871,47.9462903 40.9505806,47.8366452 C41.4752903,47.5742903 41.8064516,47.0382581 41.8064516,46.4515161 L41.8064516,34.0645161 L46.4516129,34.0645161 C48.1548387,34.0645161 49.5483871,32.6709677 49.5483871,30.9677419 L49.5483871,3.09677419 C49.5483871,1.39345161 48.1548387,0 46.4516129,0 Z M34.0645161,30.9677419 C36.6260323,30.9677419 38.7096774,28.8840968 38.7096774,26.3225806 C38.7096774,23.7610645 36.6260323,21.6774194 34.0645161,21.6774194 C31.503,21.6774194 29.4193548,23.7610645 29.4193548,26.3225806 C29.4193548,28.8840968 31.503,30.9677419 34.0645161,30.9677419" id="quality"></path>
                    </g>
                </g>
            </g>
        </g>
    </g>
</svg>