<?xml version="1.0" encoding="UTF-8"?>
<svg width="180px" height="42px" viewBox="0 0 180 42" version="1.1" xmlns="http://www.w3.org/2000/svg" xmlns:xlink="http://www.w3.org/1999/xlink">
    <!-- Generator: Sketch 50.2 (55047) - http://www.bohemiancoding.com/sketch -->
    <title>Logo/logo-white</title>
    <desc>Created with Sketch.</desc>
    <defs></defs>
    <g id="Logo/logo-white" stroke="none" stroke-width="1" fill="none" fill-rule="evenodd">
        <g id="Logo/logo-black" fill="#702082">
            <path d="M15.232,16.512 C14.756,20.292 12.068,22.336 8.344,22.336 C3.276,22.336 0.84,18.472 0.84,14.3 C0.84,10.128 3.248,6.264 8.316,6.264 C12.124,6.264 15.008,8.476 15.148,12.116 L11.508,12.116 C11.312,10.66 10.248,9.68 8.428,9.68 C5.712,9.68 4.592,11.864 4.592,14.272 C4.592,16.764 5.768,18.864 8.4,18.864 C10.192,18.864 11.284,17.884 11.536,16.512 L15.232,16.512 Z M23.372,6.264 C27.712,6.264 30.932,9.288 30.932,14.3 C30.932,19.34 27.712,22.336 23.372,22.336 C19.06,22.336 15.84,19.34 15.84,14.3 C15.84,9.288 19.06,6.264 23.372,6.264 Z M23.344,9.736 C21.132,9.736 19.648,11.416 19.648,14.3 C19.648,17.408 21.356,18.864 23.428,18.864 C25.64,18.864 27.124,17.184 27.124,14.3 C27.124,11.192 25.416,9.736 23.344,9.736 Z M38.708,12.788 C41.48,13.208 44.84,13.6 44.84,17.212 C44.84,20.684 41.76,22.336 38.288,22.336 C35.096,22.336 31.624,20.964 31.372,17.044 L35.124,17.044 C35.376,18.612 36.748,19.256 38.484,19.256 C40.052,19.256 41.172,18.752 41.172,17.576 C41.172,16.624 40.444,16.4 38.316,16.036 C35.292,15.504 31.848,15 31.848,11.192 C31.848,7.692 34.788,6.264 37.98,6.264 C41.592,6.264 44.252,8.056 44.476,11.5 L40.836,11.5 C40.696,9.96 39.604,9.372 38.036,9.372 C36.188,9.372 35.46,10.184 35.46,11.08 C35.46,12.284 36.832,12.508 38.708,12.788 Z M62.6959999,6.264 C65.9719999,6.264 68.0719999,8.252 68.0719999,11.584 L68.0719999,22 L64.3479999,22 L64.3479999,12.312 C64.3479999,10.464 63.4799999,9.624 61.9399999,9.624 C60.1759999,9.624 59.0279999,10.716 59.0279999,13.32 L59.0279999,22 L55.3039999,22 L55.3039999,12.312 C55.3039999,10.464 54.3799999,9.624 52.8679999,9.624 C51.1319999,9.624 49.9839999,10.744 49.9839999,13.292 L49.9839999,22 L46.2599999,22 L46.2599999,6.544 L49.9279999,6.544 L49.9279999,8.812 C50.4039999,7.58 51.5799999,6.264 53.9319999,6.264 C55.9199999,6.264 57.4599999,7.216 58.1879999,8.812 C58.7759999,7.72 59.8959999,6.264 62.6959999,6.264 Z M77.0239999,6.264 C81.3639999,6.264 84.5839999,9.288 84.5839999,14.3 C84.5839999,19.34 81.3639999,22.336 77.0239999,22.336 C72.7119999,22.336 69.4919999,19.34 69.4919999,14.3 C69.4919999,9.288 72.7119999,6.264 77.0239999,6.264 Z M76.9959999,9.736 C74.7839999,9.736 73.2999999,11.416 73.2999999,14.3 C73.2999999,17.408 75.0079999,18.864 77.0799999,18.864 C79.2919999,18.864 80.7759999,17.184 80.7759999,14.3 C80.7759999,11.192 79.0679999,9.736 76.9959999,9.736 Z M93.5919999,3.968 L91.9119999,3.968 C90.5959999,3.968 90.3439999,4.612 90.3439999,5.536 L90.3439999,6.544 L93.1999999,6.544 L93.1999999,9.904 L90.3439999,9.904 L90.3439999,22 L86.6199999,22 L86.6199999,9.904 L84.3239999,9.904 L84.3239999,6.544 L86.6199999,6.544 L86.6199999,5.704 C86.6199999,1.56 88.4679999,0.664 91.3519999,0.664 L93.5919999,0.664 L93.5919999,3.968 Z M107.836,6.544 L107.836,22 L104.196,22 L104.196,19.816 C103.3,21.244 101.9,22.168 99.7439999,22.168 C96.5239999,22.168 94.1719999,20.096 94.1719999,16.148 L94.1719999,6.544 L97.8959999,6.544 L97.8959999,15.868 C97.8959999,17.968 98.9319999,18.864 100.528,18.864 C102.6,18.864 104.112,17.576 104.112,14.02 L104.112,6.544 L107.836,6.544 Z M118.776,6.264 C122.304,6.264 123.956,8.336 123.956,12.032 L123.956,22 L120.232,22 L120.232,12.368 C120.232,10.632 119.252,9.596 117.516,9.596 C115.388,9.596 114.1,11.136 114.1,13.656 L114.1,22 L110.376,22 L110.376,6.544 L114.072,6.544 L114.072,8.784 C114.94,7.356 116.2,6.264 118.776,6.264 Z M140.552,0.664 L140.552,22 L136.912,22 L136.912,19.62 C136.072,21.412 134.28,22.336 132.152,22.336 C128.54,22.336 125.376,19.676 125.376,14.272 C125.376,8.924 128.54,6.264 132.152,6.264 C134.168,6.264 135.904,7.076 136.828,8.588 L136.828,0.664 L140.552,0.664 Z M133.02,18.92 C135.036,18.92 136.94,17.408 136.94,14.244 C136.94,11.08 135.036,9.568 133.02,9.568 C131.004,9.568 129.156,11.108 129.156,14.244 C129.156,17.38 131.004,18.92 133.02,18.92 Z M142.952,0.272 L146.9,0.272 L146.9,4.5 L142.952,4.5 L142.952,0.272 Z M143.064,6.544 L146.788,6.544 L146.788,22 L143.064,22 L143.064,6.544 Z M157.7,6.264 C161.228,6.264 162.88,8.336 162.88,12.032 L162.88,22 L159.156,22 L159.156,12.368 C159.156,10.632 158.176,9.596 156.44,9.596 C154.312,9.596 153.024,11.136 153.024,13.656 L153.024,22 L149.3,22 L149.3,6.544 L152.996,6.544 L152.996,8.784 C153.864,7.356 155.124,6.264 157.7,6.264 Z M179.196,6.544 L179.196,20.964 C179.196,25.92 176.004,28.104 171.832,28.104 C168.08,28.104 164.972,26.34 164.524,22.476 L168.136,22.476 C168.528,24.38 170.096,24.968 171.832,24.968 C174.24,24.968 175.612,23.792 175.612,21.356 L175.612,18.78 C174.912,20.376 173.4,21.44 171.048,21.44 C167.576,21.44 164.3,19.116 164.3,13.88 C164.3,8.644 167.576,6.264 171.048,6.264 C173.26,6.264 174.828,7.244 175.612,8.7 L175.612,6.544 L179.196,6.544 Z M171.832,18.164 C173.848,18.164 175.472,16.792 175.472,13.852 C175.472,10.912 173.848,9.54 171.832,9.54 C169.788,9.54 167.968,10.912 167.968,13.852 C167.968,16.792 169.788,18.164 171.832,18.164 Z" id="cosmofunding®"></path>
            <path d="M5.164,32.376 C7.12,32.376 8.08,33.984 8.08,35.688 C8.08,37.404 7.12,39.144 5.116,39.144 C3.976,39.144 3.268,38.58 2.932,37.872 L2.932,39 L1.9,39 L1.9,29.856 L2.968,29.856 L2.968,33.708 C3.292,32.988 3.964,32.376 5.164,32.376 Z M4.972,38.196 C6.4,38.196 7,36.996 7,35.736 C7,34.488 6.412,33.372 5.032,33.372 C3.616,33.372 2.98,34.548 2.98,35.82 C2.98,37.056 3.58,38.196 4.972,38.196 Z M14.392,32.496 L11.476,40.152 C11.188,40.896 10.576,41.112 9.856,41.112 L9.136,41.112 L9.136,40.164 L9.604,40.164 C10.228,40.164 10.516,40.056 10.744,39.444 L10.984,38.784 L8.56,32.496 L9.688,32.496 L11.5,37.38 L13.312,32.496 L14.392,32.496 Z M24.868,30 L21.784,39 L20.656,39 L17.512,30 L18.724,30 L21.208,37.644 L23.752,30 L24.868,30 Z M28.072,32.376 C29.872,32.376 31.168,33.672 31.168,35.76 C31.168,37.86 29.872,39.144 28.072,39.144 C26.284,39.144 24.988,37.86 24.988,35.76 C24.988,33.672 26.284,32.376 28.072,32.376 Z M30.076,35.76 C30.076,34.188 29.188,33.36 28.06,33.36 C26.872,33.36 26.08,34.284 26.08,35.76 C26.08,37.332 26.968,38.16 28.096,38.16 C29.284,38.16 30.076,37.236 30.076,35.76 Z M35.728,32.376 C37.06,32.376 37.876,33.18 37.876,34.584 L37.876,39 L36.808,39 L36.808,34.692 C36.808,33.984 36.46,33.336 35.512,33.336 C34.444,33.336 33.616,34.152 33.616,35.664 L33.616,39 L32.548,39 L32.548,32.496 L33.604,32.496 L33.604,33.624 C33.976,32.916 34.636,32.376 35.728,32.376 Z M42.712,38.052 L42.712,39 L41.776,39 C40.84,39 39.964,38.712 39.964,37.2 L39.964,33.444 L38.716,33.444 L38.716,32.496 L39.964,32.496 L39.964,30.756 L41.032,30.456 L41.032,32.496 L42.568,32.496 L42.568,33.444 L41.032,33.444 L41.032,37.14 C41.032,37.68 41.152,38.052 41.896,38.052 L42.712,38.052 Z M46.516,32.376 C48.316,32.376 49.612,33.672 49.612,35.76 C49.612,37.86 48.316,39.144 46.516,39.144 C44.728,39.144 43.432,37.86 43.432,35.76 C43.432,33.672 44.728,32.376 46.516,32.376 Z M48.52,35.76 C48.52,34.188 47.632,33.36 46.504,33.36 C45.316,33.36 44.524,34.284 44.524,35.76 C44.524,37.332 45.412,38.16 46.54,38.16 C47.728,38.16 48.52,37.236 48.52,35.76 Z M54.256,32.376 C56.212,32.376 57.172,33.984 57.172,35.688 C57.172,37.404 56.212,39.144 54.208,39.144 C53.068,39.144 52.36,38.58 52.024,37.872 L52.024,39 L50.992,39 L50.992,29.856 L52.06,29.856 L52.06,33.708 C52.384,32.988 53.056,32.376 54.256,32.376 Z M54.064,38.196 C55.492,38.196 56.092,36.996 56.092,35.736 C56.092,34.488 55.504,33.372 54.124,33.372 C52.708,33.372 52.072,34.548 52.072,35.82 C52.072,37.056 52.672,38.196 54.064,38.196 Z M64.012,36.012 L59.164,36.012 C59.212,37.476 60.088,38.184 61.204,38.184 C62.068,38.184 62.764,37.764 62.944,36.984 L63.976,36.984 C63.7,38.46 62.428,39.144 61.156,39.144 C59.596,39.144 58.132,38.076 58.132,35.748 C58.132,33.408 59.608,32.376 61.168,32.376 C62.716,32.376 64.012,33.384 64.012,35.52 L64.012,36.012 Z M61.132,33.3 C60.196,33.3 59.332,33.864 59.2,35.148 L62.932,35.148 C62.932,34.02 62.188,33.3 61.132,33.3 Z M66.46,29.856 L66.46,39 L65.392,39 L65.392,29.856 L66.46,29.856 Z" id="by-Vontobel"></path>
        </g>
    </g>
</svg>
